<ttFont>
    <TTGlyph name=".notdef" xMin="34" yMin="0" xMax="306" yMax="682">
      <contour>
        <pt x="34" y="0" on="1"/>
        <pt x="34" y="682" on="1"/>
        <pt x="306" y="682" on="1"/>
        <pt x="306" y="0" on="1"/>
      </contour>
      <contour>
        <pt x="68" y="34" on="1"/>
        <pt x="272" y="34" on="1"/>
        <pt x="272" y="648" on="1"/>
        <pt x="68" y="648" on="1"/>
      </contour>
    </TTGlyph>
    <TTGlyph name="A" xMin="-6" yMin="0" xMax="614" yMax="583">
      <contour>
        <pt x="218" y="583" on="1"/>
        <pt x="458" y="583" on="1"/>
        <pt x="556" y="82" on="1"/>
        <pt x="614" y="82" on="1"/>
        <pt x="596" y="0" on="1"/>
        <pt x="357" y="0" on="1"/>
        <pt x="375" y="82" on="1"/>
        <pt x="464" y="82" on="1"/>
        <pt x="447" y="179" on="1"/>
        <pt x="223" y="179" on="1"/>
        <pt x="163" y="82" on="1"/>
        <pt x="251" y="82" on="1"/>
        <pt x="233" y="0" on="1"/>
        <pt x="-6" y="0" on="1"/>
        <pt x="12" y="82" on="1"/>
        <pt x="68" y="82" on="1"/>
        <pt x="327" y="501" on="1"/>
        <pt x="200" y="501" on="1"/>
      </contour>
      <contour>
        <pt x="432" y="263" on="1"/>
        <pt x="394" y="453" on="1"/>
        <pt x="274" y="263" on="1"/>
      </contour>
    </TTGlyph>
    <TTGlyph name="AE" xMin="-2" yMin="0" xMax="717" yMax="583">
      <contour>
        <pt x="256" y="583" on="1"/>
        <pt x="717" y="583" on="1"/>
        <pt x="676" y="367" on="1"/>
        <pt x="602" y="367" on="1"/>
        <pt x="623" y="501" on="1"/>
        <pt x="470" y="501" on="1"/>
        <pt x="436" y="333" on="1"/>
        <pt x="474" y="333" on="1"/>
        <pt x="490" y="402" on="1"/>
        <pt x="561" y="402" on="1"/>
        <pt x="511" y="186" on="1"/>
        <pt x="440" y="186" on="1"/>
        <pt x="456" y="256" on="1"/>
        <pt x="421" y="256" on="1"/>
        <pt x="382" y="82" on="1"/>
        <pt x="534" y="82" on="1"/>
        <pt x="567" y="218" on="1"/>
        <pt x="642" y="218" on="1"/>
        <pt x="596" y="0" on="1"/>
        <pt x="282" y="0" on="1"/>
        <pt x="323" y="174" on="1"/>
        <pt x="207" y="174" on="1"/>
        <pt x="154" y="82" on="1"/>
        <pt x="229" y="82" on="1"/>
        <pt x="211" y="0" on="1"/>
        <pt x="-2" y="0" on="1"/>
        <pt x="16" y="82" on="1"/>
        <pt x="73" y="82" on="1"/>
        <pt x="323" y="501" on="1"/>
        <pt x="238" y="501" on="1"/>
      </contour>
      <contour>
        <pt x="337" y="250" on="1"/>
        <pt x="390" y="482" on="1"/>
        <pt x="388" y="484" on="1"/>
        <pt x="256" y="250" on="1"/>
      </contour>
    </TTGlyph>
    <TTGlyph name="Aacute" xMin="-6" yMin="0" xMax="614" yMax="772">
      <component glyphName="A" x="0" y="0" flags="0x1004"/>
      <component glyphName="acute" x="30" y="130" flags="0x1004"/>
    </TTGlyph>
    <TTGlyph name="Abreve" xMin="-6" yMin="0" xMax="614" yMax="792">
      <component glyphName="A" x="0" y="0" flags="0x1004"/>
      <component glyphName="breve" x="-18" y="130" flags="0x1004"/>
    </TTGlyph>
    <TTGlyph name="Acircumflex" xMin="-6" yMin="0" xMax="614" yMax="782">
      <component glyphName="A" x="0" y="0" flags="0x1004"/>
      <component glyphName="circumflex" x="-18" y="130" flags="0x1004"/>
    </TTGlyph>
    <TTGlyph name="Adieresis" xMin="-6" yMin="0" xMax="614" yMax="778">
      <component glyphName="A" x="0" y="0" flags="0x1004"/>
      <component glyphName="dieresis" x="30" y="130" flags="0x1004"/>
    </TTGlyph>
    <TTGlyph name="Agrave" xMin="-6" yMin="0" xMax="614" yMax="772">
      <component glyphName="A" x="0" y="0" flags="0x1004"/>
      <component glyphName="grave" x="30" y="130" flags="0x1004"/>
    </TTGlyph>
    <TTGlyph name="Amacron" xMin="-6" yMin="0" xMax="614" yMax="765">
      <component glyphName="A" x="0" y="0" flags="0x1004"/>
      <component glyphName="macron" x="-15" y="130" flags="0x1004"/>
    </TTGlyph>
    <TTGlyph name="Aogonek" xMin="-6" yMin="-144" xMax="614" yMax="583">
      <contour>
        <pt x="552" y="-47" on="1"/>
        <pt x="517" y="-116" on="1"/>
        <pt x="465" y="-144" on="0"/>
        <pt x="420" y="-144" on="1"/>
        <pt x="390" y="-144" on="0"/>
        <pt x="346" y="-114" on="0"/>
        <pt x="346" y="-86" on="1"/>
        <pt x="346" y="-32" on="0"/>
        <pt x="417" y="-2" on="1"/>
        <pt x="417" y="0" on="1"/>
        <pt x="357" y="0" on="1"/>
        <pt x="375" y="82" on="1"/>
        <pt x="464" y="82" on="1"/>
        <pt x="447" y="179" on="1"/>
        <pt x="223" y="179" on="1"/>
        <pt x="163" y="82" on="1"/>
        <pt x="251" y="82" on="1"/>
        <pt x="233" y="0" on="1"/>
        <pt x="-6" y="0" on="1"/>
        <pt x="12" y="82" on="1"/>
        <pt x="68" y="82" on="1"/>
        <pt x="327" y="501" on="1"/>
        <pt x="200" y="501" on="1"/>
        <pt x="218" y="583" on="1"/>
        <pt x="458" y="583" on="1"/>
        <pt x="556" y="82" on="1"/>
        <pt x="614" y="82" on="1"/>
        <pt x="596" y="0" on="1"/>
        <pt x="554" y="0" on="1"/>
        <pt x="520" y="-7" on="0"/>
        <pt x="441" y="-43" on="0"/>
        <pt x="441" y="-63" on="1"/>
        <pt x="441" y="-78" on="0"/>
        <pt x="465" y="-78" on="1"/>
        <pt x="481" y="-78" on="0"/>
        <pt x="506" y="-69" on="0"/>
      </contour>
      <contour>
        <pt x="432" y="263" on="1"/>
        <pt x="394" y="453" on="1"/>
        <pt x="274" y="263" on="1"/>
      </contour>
    </TTGlyph>
    <TTGlyph name="Aring" xMin="-6" yMin="0" xMax="614" yMax="824">
      <component glyphName="A" x="0" y="0" flags="0x1004"/>
      <component glyphName="ring" x="30" y="130" flags="0x1004"/>
    </TTGlyph>
    <TTGlyph name="Atilde" xMin="-6" yMin="0" xMax="633" yMax="789">
      <component glyphName="A" x="0" y="0" flags="0x1004"/>
      <component glyphName="tilde" x="30" y="130" flags="0x1004"/>
    </TTGlyph>
    <TTGlyph name="B" xMin="27" yMin="0" xMax="608" yMax="583">
      <contour>
        <pt x="151" y="583" on="1"/>
        <pt x="430" y="583" on="1"/>
        <pt x="447" y="583" on="0"/>
        <pt x="475" y="581" on="0"/>
        <pt x="535" y="567" on="0"/>
        <pt x="575" y="542" on="0"/>
        <pt x="608" y="488" on="0"/>
        <pt x="608" y="450" on="1"/>
        <pt x="608" y="359" on="0"/>
        <pt x="528" y="306" on="1"/>
        <pt x="589" y="269" on="0"/>
        <pt x="589" y="197" on="1"/>
        <pt x="589" y="152" on="0"/>
        <pt x="547" y="76" on="0"/>
        <pt x="517" y="52" on="1"/>
        <pt x="488" y="28" on="0"/>
        <pt x="407" y="4" on="0"/>
        <pt x="352" y="0" on="0"/>
        <pt x="308" y="0" on="1"/>
        <pt x="27" y="0" on="1"/>
        <pt x="45" y="82" on="1"/>
        <pt x="126" y="82" on="1"/>
        <pt x="214" y="501" on="1"/>
        <pt x="133" y="501" on="1"/>
      </contour>
      <contour>
        <pt x="419" y="501" on="1"/>
        <pt x="302" y="501" on="1"/>
        <pt x="269" y="345" on="1"/>
        <pt x="370" y="345" on="1"/>
        <pt x="411" y="345" on="0"/>
        <pt x="472" y="366" on="0"/>
        <pt x="499" y="391" on="0"/>
        <pt x="515" y="425" on="0"/>
        <pt x="517" y="440" on="0"/>
        <pt x="517" y="446" on="1"/>
        <pt x="517" y="501" on="0"/>
      </contour>
      <contour>
        <pt x="358" y="261" on="1"/>
        <pt x="252" y="261" on="1"/>
        <pt x="214" y="82" on="1"/>
        <pt x="312" y="82" on="1"/>
        <pt x="422" y="82" on="0"/>
        <pt x="459" y="112" on="1"/>
        <pt x="498" y="144" on="0"/>
        <pt x="498" y="190" on="1"/>
        <pt x="498" y="224" on="0"/>
        <pt x="436" y="261" on="0"/>
      </contour>
    </TTGlyph>
    <TTGlyph name="C" xMin="103" yMin="-16" xMax="684" yMax="599">
      <contour>
        <pt x="608" y="588" on="1"/>
        <pt x="684" y="569" on="1"/>
        <pt x="638" y="468" on="0"/>
        <pt x="629" y="353" on="1"/>
        <pt x="550" y="358" on="1"/>
        <pt x="555" y="410" on="0"/>
        <pt x="555" y="419" on="1"/>
        <pt x="555" y="447" on="0"/>
        <pt x="530" y="488" on="0"/>
        <pt x="491" y="506" on="0"/>
        <pt x="456" y="513" on="0"/>
        <pt x="439" y="513" on="1"/>
        <pt x="340" y="513" on="0"/>
        <pt x="194" y="339" on="0"/>
        <pt x="194" y="218" on="1"/>
        <pt x="194" y="70" on="0"/>
        <pt x="346" y="70" on="1"/>
        <pt x="389" y="70" on="0"/>
        <pt x="466" y="94" on="0"/>
        <pt x="508" y="119" on="0"/>
        <pt x="550" y="148" on="1"/>
        <pt x="597" y="75" on="1"/>
        <pt x="559" y="48" on="0"/>
        <pt x="508" y="17" on="0"/>
        <pt x="401" y="-16" on="0"/>
        <pt x="342" y="-16" on="1"/>
        <pt x="221" y="-16" on="0"/>
        <pt x="103" y="115" on="0"/>
        <pt x="103" y="221" on="1"/>
        <pt x="103" y="376" on="0"/>
        <pt x="308" y="599" on="0"/>
        <pt x="445" y="599" on="1"/>
        <pt x="543" y="599" on="0"/>
        <pt x="587" y="528" on="1"/>
      </contour>
    </TTGlyph>
    <TTGlyph name="Cacute" xMin="103" yMin="-16" xMax="684" yMax="772">
      <component glyphName="C" x="0" y="0" flags="0x1004"/>
      <component glyphName="acute" x="30" y="130" flags="0x1004"/>
    </TTGlyph>
    <TTGlyph name="Ccaron" xMin="103" yMin="-16" xMax="684" yMax="782">
      <component glyphName="C" x="0" y="0" flags="0x1004"/>
      <component glyphName="caron" x="30" y="130" flags="0x1004"/>
    </TTGlyph>
    <TTGlyph name="Ccedilla" xMin="103" yMin="-182" xMax="684" yMax="599">
      <contour>
        <pt x="193" y="-162" on="1"/>
        <pt x="218" y="-94" on="1"/>
        <pt x="281" y="-112" on="0"/>
        <pt x="325" y="-112" on="1"/>
        <pt x="349" y="-112" on="0"/>
        <pt x="349" y="-98" on="1"/>
        <pt x="349" y="-88" on="0"/>
        <pt x="334" y="-85" on="1"/>
        <pt x="329" y="-83" on="0"/>
        <pt x="280" y="-77" on="1"/>
        <pt x="300" y="-17" on="1"/>
        <pt x="203" y="-7" on="0"/>
        <pt x="103" y="119" on="0"/>
        <pt x="103" y="219" on="1"/>
        <pt x="103" y="375" on="0"/>
        <pt x="308" y="599" on="0"/>
        <pt x="445" y="599" on="1"/>
        <pt x="543" y="599" on="0"/>
        <pt x="587" y="528" on="1"/>
        <pt x="608" y="588" on="1"/>
        <pt x="684" y="569" on="1"/>
        <pt x="638" y="468" on="0"/>
        <pt x="630" y="353" on="1"/>
        <pt x="551" y="358" on="1"/>
        <pt x="555" y="400" on="0"/>
        <pt x="555" y="419" on="1"/>
        <pt x="555" y="447" on="0"/>
        <pt x="530" y="488" on="0"/>
        <pt x="491" y="506" on="0"/>
        <pt x="457" y="513" on="0"/>
        <pt x="440" y="513" on="1"/>
        <pt x="340" y="513" on="0"/>
        <pt x="194" y="339" on="0"/>
        <pt x="194" y="218" on="1"/>
        <pt x="194" y="70" on="0"/>
        <pt x="345" y="70" on="1"/>
        <pt x="388" y="70" on="0"/>
        <pt x="465" y="94" on="0"/>
        <pt x="510" y="120" on="0"/>
        <pt x="550" y="148" on="1"/>
        <pt x="597" y="75" on="1"/>
        <pt x="477" y="-13" on="0"/>
        <pt x="373" y="-16" on="1"/>
        <pt x="373" y="-18" on="1"/>
        <pt x="433" y="-29" on="0"/>
        <pt x="433" y="-90" on="1"/>
        <pt x="433" y="-128" on="0"/>
        <pt x="374" y="-182" on="0"/>
        <pt x="321" y="-182" on="1"/>
        <pt x="267" y="-182" on="0"/>
      </contour>
    </TTGlyph>
    <TTGlyph name="Ccircumflex" xMin="103" yMin="-16" xMax="684" yMax="782">
      <component glyphName="C" x="0" y="0" flags="0x1004"/>
      <component glyphName="circumflex" x="30" y="130" flags="0x1004"/>
    </TTGlyph>
    <TTGlyph name="Cdotaccent" xMin="103" yMin="-16" xMax="684" yMax="783">
      <component glyphName="C" x="0" y="0" flags="0x1004"/>
      <component glyphName="dotaccent" x="30" y="130" flags="0x1004"/>
    </TTGlyph>
    <TTGlyph name="D" xMin="17" yMin="0" xMax="629" yMax="583">
      <contour>
        <pt x="141" y="583" on="1"/>
        <pt x="397" y="583" on="1"/>
        <pt x="506" y="583" on="0"/>
        <pt x="554" y="549" on="1"/>
        <pt x="586" y="527" on="0"/>
        <pt x="629" y="438" on="0"/>
        <pt x="629" y="378" on="1"/>
        <pt x="629" y="352" on="0"/>
        <pt x="619" y="280" on="0"/>
        <pt x="567" y="145" on="0"/>
        <pt x="522" y="94" on="1"/>
        <pt x="439" y="0" on="0"/>
        <pt x="281" y="0" on="1"/>
        <pt x="17" y="0" on="1"/>
        <pt x="35" y="82" on="1"/>
        <pt x="112" y="82" on="1"/>
        <pt x="200" y="501" on="1"/>
        <pt x="123" y="501" on="1"/>
      </contour>
      <contour>
        <pt x="391" y="501" on="1"/>
        <pt x="289" y="501" on="1"/>
        <pt x="201" y="82" on="1"/>
        <pt x="289" y="82" on="1"/>
        <pt x="401" y="82" on="0"/>
        <pt x="456" y="149" on="1"/>
        <pt x="499" y="201" on="0"/>
        <pt x="536" y="325" on="0"/>
        <pt x="536" y="369" on="1"/>
        <pt x="536" y="446" on="0"/>
        <pt x="497" y="479" on="1"/>
        <pt x="472" y="501" on="0"/>
      </contour>
    </TTGlyph>
    <TTGlyph name="Dcaron" xMin="17" yMin="0" xMax="629" yMax="782">
      <component glyphName="D" x="0" y="0" flags="0x1004"/>
      <component glyphName="caron" x="-12" y="130" flags="0x1004"/>
    </TTGlyph>
    <TTGlyph name="E" xMin="40" yMin="0" xMax="663" yMax="583">
      <contour>
        <pt x="164" y="583" on="1"/>
        <pt x="663" y="583" on="1"/>
        <pt x="622" y="367" on="1"/>
        <pt x="538" y="367" on="1"/>
        <pt x="557" y="501" on="1"/>
        <pt x="317" y="501" on="1"/>
        <pt x="285" y="350" on="1"/>
        <pt x="401" y="350" on="1"/>
        <pt x="416" y="420" on="1"/>
        <pt x="501" y="420" on="1"/>
        <pt x="453" y="195" on="1"/>
        <pt x="369" y="195" on="1"/>
        <pt x="383" y="264" on="1"/>
        <pt x="267" y="264" on="1"/>
        <pt x="229" y="82" on="1"/>
        <pt x="477" y="82" on="1"/>
        <pt x="510" y="217" on="1"/>
        <pt x="595" y="217" on="1"/>
        <pt x="548" y="0" on="1"/>
        <pt x="40" y="0" on="1"/>
        <pt x="58" y="82" on="1"/>
        <pt x="140" y="82" on="1"/>
        <pt x="229" y="501" on="1"/>
        <pt x="146" y="501" on="1"/>
      </contour>
    </TTGlyph>
    <TTGlyph name="Eacute" xMin="40" yMin="0" xMax="663" yMax="772">
      <component glyphName="E" x="0" y="0" flags="0x1004"/>
      <component glyphName="acute" x="30" y="130" flags="0x1004"/>
    </TTGlyph>
    <TTGlyph name="Ecaron" xMin="40" yMin="0" xMax="663" yMax="782">
      <component glyphName="E" x="0" y="0" flags="0x1004"/>
      <component glyphName="caron" x="30" y="130" flags="0x1004"/>
    </TTGlyph>
    <TTGlyph name="Ecircumflex" xMin="40" yMin="0" xMax="663" yMax="782">
      <component glyphName="E" x="0" y="0" flags="0x1004"/>
      <component glyphName="circumflex" x="30" y="130" flags="0x1004"/>
    </TTGlyph>
    <TTGlyph name="Edieresis" xMin="40" yMin="0" xMax="663" yMax="778">
      <component glyphName="E" x="0" y="0" flags="0x1004"/>
      <component glyphName="dieresis" x="30" y="130" flags="0x1004"/>
    </TTGlyph>
    <TTGlyph name="Edotaccent" xMin="40" yMin="0" xMax="663" yMax="783">
      <component glyphName="E" x="0" y="0" flags="0x1004"/>
      <component glyphName="dotaccent" x="30" y="130" flags="0x1004"/>
    </TTGlyph>
    <TTGlyph name="Egrave" xMin="40" yMin="0" xMax="663" yMax="802">
      <component glyphName="E" x="0" y="0" flags="0x1004"/>
      <component glyphName="grave" x="30" y="160" flags="0x1004"/>
    </TTGlyph>
    <TTGlyph name="Emacron" xMin="40" yMin="0" xMax="663" yMax="765">
      <component glyphName="E" x="0" y="0" flags="0x1004"/>
      <component glyphName="macron" x="30" y="130" flags="0x1004"/>
    </TTGlyph>
    <TTGlyph name="Eng" xMin="27" yMin="-131" xMax="625" yMax="595">
      <contour>
        <pt x="151" y="583" on="1"/>
        <pt x="321" y="583" on="1"/>
        <pt x="312" y="539" on="1"/>
        <pt x="419" y="595" on="0"/>
        <pt x="495" y="595" on="1"/>
        <pt x="535" y="595" on="0"/>
        <pt x="590" y="565" on="0"/>
        <pt x="615" y="516" on="0"/>
        <pt x="625" y="476" on="0"/>
        <pt x="625" y="456" on="1"/>
        <pt x="625" y="440" on="0"/>
        <pt x="619" y="410" on="1"/>
        <pt x="540" y="36" on="1"/>
        <pt x="523" y="-44" on="0"/>
        <pt x="404" y="-131" on="0"/>
        <pt x="340" y="-131" on="1"/>
        <pt x="241" y="-131" on="1"/>
        <pt x="260" y="-42" on="1"/>
        <pt x="347" y="-42" on="1"/>
        <pt x="395" y="-42" on="0"/>
        <pt x="447" y="17" on="0"/>
        <pt x="454" y="47" on="1"/>
        <pt x="533" y="424" on="1"/>
        <pt x="537" y="440" on="0"/>
        <pt x="537" y="456" on="1"/>
        <pt x="537" y="506" on="0"/>
        <pt x="481" y="506" on="1"/>
        <pt x="434" y="506" on="0"/>
        <pt x="326" y="455" on="0"/>
        <pt x="288" y="424" on="1"/>
        <pt x="215" y="82" on="1"/>
        <pt x="297" y="82" on="1"/>
        <pt x="279" y="0" on="1"/>
        <pt x="27" y="0" on="1"/>
        <pt x="45" y="82" on="1"/>
        <pt x="127" y="82" on="1"/>
        <pt x="215" y="501" on="1"/>
        <pt x="133" y="501" on="1"/>
      </contour>
    </TTGlyph>
    <TTGlyph name="Eogonek" xMin="40" yMin="-144" xMax="663" yMax="583">
      <contour>
        <pt x="530" y="-47" on="1"/>
        <pt x="495" y="-116" on="1"/>
        <pt x="443" y="-144" on="0"/>
        <pt x="398" y="-144" on="1"/>
        <pt x="368" y="-144" on="0"/>
        <pt x="324" y="-114" on="0"/>
        <pt x="324" y="-86" on="1"/>
        <pt x="324" y="-54" on="0"/>
        <pt x="373" y="-10" on="0"/>
        <pt x="395" y="-2" on="1"/>
        <pt x="395" y="0" on="1"/>
        <pt x="40" y="0" on="1"/>
        <pt x="58" y="82" on="1"/>
        <pt x="140" y="82" on="1"/>
        <pt x="229" y="501" on="1"/>
        <pt x="146" y="501" on="1"/>
        <pt x="164" y="583" on="1"/>
        <pt x="663" y="583" on="1"/>
        <pt x="622" y="367" on="1"/>
        <pt x="538" y="367" on="1"/>
        <pt x="557" y="501" on="1"/>
        <pt x="317" y="501" on="1"/>
        <pt x="285" y="350" on="1"/>
        <pt x="401" y="350" on="1"/>
        <pt x="416" y="420" on="1"/>
        <pt x="501" y="420" on="1"/>
        <pt x="453" y="195" on="1"/>
        <pt x="369" y="195" on="1"/>
        <pt x="383" y="264" on="1"/>
        <pt x="267" y="264" on="1"/>
        <pt x="229" y="82" on="1"/>
        <pt x="477" y="82" on="1"/>
        <pt x="510" y="217" on="1"/>
        <pt x="595" y="217" on="1"/>
        <pt x="548" y="0" on="1"/>
        <pt x="532" y="0" on="1"/>
        <pt x="498" y="-7" on="0"/>
        <pt x="419" y="-43" on="0"/>
        <pt x="419" y="-63" on="1"/>
        <pt x="419" y="-78" on="0"/>
        <pt x="443" y="-78" on="1"/>
        <pt x="459" y="-78" on="0"/>
        <pt x="484" y="-69" on="0"/>
      </contour>
    </TTGlyph>
    <TTGlyph name="Eth" xMin="17" yMin="0" xMax="629" yMax="583">
      <contour>
        <pt x="149" y="261" on="1"/>
        <pt x="73" y="261" on="1"/>
        <pt x="91" y="345" on="1"/>
        <pt x="167" y="345" on="1"/>
        <pt x="200" y="501" on="1"/>
        <pt x="123" y="501" on="1"/>
        <pt x="141" y="583" on="1"/>
        <pt x="397" y="583" on="1"/>
        <pt x="506" y="583" on="0"/>
        <pt x="554" y="549" on="1"/>
        <pt x="586" y="527" on="0"/>
        <pt x="629" y="438" on="0"/>
        <pt x="629" y="378" on="1"/>
        <pt x="629" y="352" on="0"/>
        <pt x="619" y="280" on="0"/>
        <pt x="567" y="145" on="0"/>
        <pt x="522" y="94" on="1"/>
        <pt x="439" y="0" on="0"/>
        <pt x="281" y="0" on="1"/>
        <pt x="17" y="0" on="1"/>
        <pt x="35" y="82" on="1"/>
        <pt x="112" y="82" on="1"/>
      </contour>
      <contour>
        <pt x="391" y="501" on="1"/>
        <pt x="289" y="501" on="1"/>
        <pt x="256" y="345" on="1"/>
        <pt x="421" y="345" on="1"/>
        <pt x="403" y="261" on="1"/>
        <pt x="239" y="261" on="1"/>
        <pt x="201" y="82" on="1"/>
        <pt x="289" y="82" on="1"/>
        <pt x="401" y="82" on="0"/>
        <pt x="456" y="149" on="1"/>
        <pt x="499" y="201" on="0"/>
        <pt x="536" y="324" on="0"/>
        <pt x="536" y="368" on="1"/>
        <pt x="536" y="446" on="0"/>
        <pt x="497" y="479" on="1"/>
        <pt x="472" y="501" on="0"/>
      </contour>
    </TTGlyph>
    <TTGlyph name="F" xMin="55" yMin="0" xMax="670" yMax="583">
      <contour>
        <pt x="179" y="583" on="1"/>
        <pt x="670" y="583" on="1"/>
        <pt x="631" y="367" on="1"/>
        <pt x="549" y="367" on="1"/>
        <pt x="565" y="501" on="1"/>
        <pt x="327" y="501" on="1"/>
        <pt x="295" y="350" on="1"/>
        <pt x="411" y="350" on="1"/>
        <pt x="426" y="421" on="1"/>
        <pt x="511" y="421" on="1"/>
        <pt x="463" y="196" on="1"/>
        <pt x="378" y="196" on="1"/>
        <pt x="393" y="264" on="1"/>
        <pt x="277" y="264" on="1"/>
        <pt x="239" y="82" on="1"/>
        <pt x="365" y="82" on="1"/>
        <pt x="347" y="0" on="1"/>
        <pt x="55" y="0" on="1"/>
        <pt x="73" y="82" on="1"/>
        <pt x="152" y="82" on="1"/>
        <pt x="239" y="501" on="1"/>
        <pt x="161" y="501" on="1"/>
      </contour>
    </TTGlyph>
    <TTGlyph name="G" xMin="85" yMin="-16" xMax="670" yMax="599">
      <contour>
        <pt x="363" y="278" on="1"/>
        <pt x="642" y="278" on="1"/>
        <pt x="624" y="194" on="1"/>
        <pt x="578" y="194" on="1"/>
        <pt x="544" y="35" on="1"/>
        <pt x="530" y="30" on="1"/>
        <pt x="406" y="-16" on="0"/>
        <pt x="318" y="-16" on="1"/>
        <pt x="208" y="-16" on="0"/>
        <pt x="85" y="110" on="0"/>
        <pt x="85" y="216" on="1"/>
        <pt x="85" y="311" on="0"/>
        <pt x="174" y="487" on="0"/>
        <pt x="333" y="599" on="0"/>
        <pt x="426" y="599" on="1"/>
        <pt x="516" y="599" on="0"/>
        <pt x="569" y="524" on="1"/>
        <pt x="589" y="587" on="1"/>
        <pt x="670" y="570" on="1"/>
        <pt x="624" y="465" on="0"/>
        <pt x="618" y="362" on="1"/>
        <pt x="535" y="348" on="1"/>
        <pt x="537" y="382" on="0"/>
        <pt x="537" y="403" on="1"/>
        <pt x="537" y="437" on="0"/>
        <pt x="513" y="484" on="0"/>
        <pt x="474" y="506" on="0"/>
        <pt x="439" y="515" on="0"/>
        <pt x="421" y="515" on="1"/>
        <pt x="322" y="515" on="0"/>
        <pt x="178" y="334" on="0"/>
        <pt x="178" y="218" on="1"/>
        <pt x="178" y="70" on="0"/>
        <pt x="332" y="70" on="1"/>
        <pt x="396" y="70" on="0"/>
        <pt x="469" y="98" on="1"/>
        <pt x="489" y="194" on="1"/>
        <pt x="345" y="194" on="1"/>
      </contour>
    </TTGlyph>
    <TTGlyph name="Gamma" xMin="53" yMin="0" xMax="666" yMax="583">
      <contour>
        <pt x="164" y="583" on="1"/>
        <pt x="666" y="583" on="1"/>
        <pt x="626" y="371" on="1"/>
        <pt x="547" y="371" on="1"/>
        <pt x="566" y="501" on="1"/>
        <pt x="319" y="501" on="1"/>
        <pt x="229" y="82" on="1"/>
        <pt x="358" y="82" on="1"/>
        <pt x="341" y="0" on="1"/>
        <pt x="53" y="0" on="1"/>
        <pt x="70" y="82" on="1"/>
        <pt x="147" y="82" on="1"/>
        <pt x="236" y="501" on="1"/>
        <pt x="147" y="501" on="1"/>
      </contour>
    </TTGlyph>
    <TTGlyph name="Gbreve" xMin="85" yMin="-16" xMax="670" yMax="792">
      <component glyphName="G" x="0" y="0" flags="0x1004"/>
      <component glyphName="breve" x="30" y="130" flags="0x1004"/>
    </TTGlyph>
    <TTGlyph name="Gcedilla" xMin="85" yMin="-170" xMax="670" yMax="599">
      <contour>
        <pt x="363" y="-14" on="1"/>
        <pt x="362" y="-18" on="1"/>
        <pt x="421" y="-34" on="0"/>
        <pt x="421" y="-83" on="1"/>
        <pt x="421" y="-113" on="0"/>
        <pt x="368" y="-170" on="0"/>
        <pt x="309" y="-170" on="1"/>
        <pt x="248" y="-170" on="0"/>
        <pt x="182" y="-150" on="1"/>
        <pt x="208" y="-82" on="1"/>
        <pt x="284" y="-100" on="0"/>
        <pt x="314" y="-100" on="1"/>
        <pt x="336" y="-100" on="0"/>
        <pt x="336" y="-92" on="1"/>
        <pt x="336" y="-89" on="0"/>
        <pt x="316" y="-83" on="0"/>
        <pt x="313" y="-83" on="1"/>
        <pt x="269" y="-77" on="1"/>
        <pt x="289" y="-15" on="1"/>
        <pt x="229" y="-9" on="0"/>
        <pt x="144" y="40" on="0"/>
        <pt x="102" y="111" on="0"/>
        <pt x="85" y="179" on="0"/>
        <pt x="85" y="216" on="1"/>
        <pt x="85" y="311" on="0"/>
        <pt x="174" y="487" on="0"/>
        <pt x="333" y="599" on="0"/>
        <pt x="426" y="599" on="1"/>
        <pt x="516" y="599" on="0"/>
        <pt x="569" y="524" on="1"/>
        <pt x="589" y="587" on="1"/>
        <pt x="670" y="570" on="1"/>
        <pt x="624" y="465" on="0"/>
        <pt x="618" y="362" on="1"/>
        <pt x="535" y="348" on="1"/>
        <pt x="537" y="388" on="0"/>
        <pt x="537" y="403" on="1"/>
        <pt x="537" y="437" on="0"/>
        <pt x="513" y="484" on="0"/>
        <pt x="474" y="506" on="0"/>
        <pt x="439" y="515" on="0"/>
        <pt x="421" y="515" on="1"/>
        <pt x="322" y="515" on="0"/>
        <pt x="178" y="334" on="0"/>
        <pt x="178" y="218" on="1"/>
        <pt x="178" y="70" on="0"/>
        <pt x="332" y="70" on="1"/>
        <pt x="396" y="70" on="0"/>
        <pt x="469" y="98" on="1"/>
        <pt x="489" y="194" on="1"/>
        <pt x="345" y="194" on="1"/>
        <pt x="363" y="278" on="1"/>
        <pt x="642" y="278" on="1"/>
        <pt x="624" y="194" on="1"/>
        <pt x="578" y="194" on="1"/>
        <pt x="544" y="35" on="1"/>
        <pt x="431" y="-7" on="0"/>
      </contour>
    </TTGlyph>
    <TTGlyph name="Gcircumflex" xMin="85" yMin="-16" xMax="670" yMax="782">
      <component glyphName="G" x="0" y="0" flags="0x1004"/>
      <component glyphName="circumflex" x="30" y="130" flags="0x1004"/>
    </TTGlyph>
    <TTGlyph name="Gdotaccent" xMin="85" yMin="-16" xMax="670" yMax="783">
      <component glyphName="G" x="0" y="0" flags="0x1004"/>
      <component glyphName="dotaccent" x="30" y="130" flags="0x1004"/>
    </TTGlyph>
    <TTGlyph name="H" xMin="22" yMin="0" xMax="692" yMax="583">
      <contour>
        <pt x="146" y="583" on="1"/>
        <pt x="380" y="583" on="1"/>
        <pt x="362" y="501" on="1"/>
        <pt x="289" y="501" on="1"/>
        <pt x="256" y="343" on="1"/>
        <pt x="479" y="343" on="1"/>
        <pt x="513" y="501" on="1"/>
        <pt x="440" y="501" on="1"/>
        <pt x="458" y="583" on="1"/>
        <pt x="692" y="583" on="1"/>
        <pt x="674" y="501" on="1"/>
        <pt x="601" y="501" on="1"/>
        <pt x="513" y="82" on="1"/>
        <pt x="586" y="82" on="1"/>
        <pt x="568" y="0" on="1"/>
        <pt x="334" y="0" on="1"/>
        <pt x="352" y="82" on="1"/>
        <pt x="425" y="82" on="1"/>
        <pt x="462" y="259" on="1"/>
        <pt x="239" y="259" on="1"/>
        <pt x="201" y="82" on="1"/>
        <pt x="274" y="82" on="1"/>
        <pt x="256" y="0" on="1"/>
        <pt x="22" y="0" on="1"/>
        <pt x="40" y="82" on="1"/>
        <pt x="113" y="82" on="1"/>
        <pt x="201" y="501" on="1"/>
        <pt x="128" y="501" on="1"/>
      </contour>
    </TTGlyph>
    <TTGlyph name="Hbar" xMin="22" yMin="0" xMax="692" yMax="583">
      <contour>
        <pt x="282" y="466" on="1"/>
        <pt x="505" y="466" on="1"/>
        <pt x="513" y="501" on="1"/>
        <pt x="440" y="501" on="1"/>
        <pt x="458" y="583" on="1"/>
        <pt x="692" y="583" on="1"/>
        <pt x="674" y="501" on="1"/>
        <pt x="601" y="501" on="1"/>
        <pt x="593" y="466" on="1"/>
        <pt x="666" y="466" on="1"/>
        <pt x="648" y="382" on="1"/>
        <pt x="576" y="382" on="1"/>
        <pt x="513" y="82" on="1"/>
        <pt x="586" y="82" on="1"/>
        <pt x="568" y="0" on="1"/>
        <pt x="334" y="0" on="1"/>
        <pt x="352" y="82" on="1"/>
        <pt x="425" y="82" on="1"/>
        <pt x="462" y="259" on="1"/>
        <pt x="239" y="259" on="1"/>
        <pt x="201" y="82" on="1"/>
        <pt x="274" y="82" on="1"/>
        <pt x="256" y="0" on="1"/>
        <pt x="22" y="0" on="1"/>
        <pt x="40" y="82" on="1"/>
        <pt x="113" y="82" on="1"/>
        <pt x="176" y="382" on="1"/>
        <pt x="103" y="382" on="1"/>
        <pt x="120" y="466" on="1"/>
        <pt x="193" y="466" on="1"/>
        <pt x="201" y="501" on="1"/>
        <pt x="128" y="501" on="1"/>
        <pt x="146" y="583" on="1"/>
        <pt x="380" y="583" on="1"/>
        <pt x="362" y="501" on="1"/>
        <pt x="290" y="501" on="1"/>
      </contour>
      <contour>
        <pt x="487" y="382" on="1"/>
        <pt x="264" y="382" on="1"/>
        <pt x="257" y="343" on="1"/>
        <pt x="480" y="343" on="1"/>
      </contour>
    </TTGlyph>
    <TTGlyph name="Hcircumflex" xMin="22" yMin="0" xMax="692" yMax="782">
      <component glyphName="H" x="0" y="0" flags="0x1004"/>
      <component glyphName="circumflex" x="30" y="130" flags="0x1004"/>
    </TTGlyph>
    <TTGlyph name="I" xMin="80" yMin="0" xMax="631" yMax="583">
      <contour>
        <pt x="204" y="583" on="1"/>
        <pt x="631" y="583" on="1"/>
        <pt x="613" y="501" on="1"/>
        <pt x="444" y="501" on="1"/>
        <pt x="356" y="82" on="1"/>
        <pt x="525" y="82" on="1"/>
        <pt x="507" y="0" on="1"/>
        <pt x="80" y="0" on="1"/>
        <pt x="98" y="82" on="1"/>
        <pt x="267" y="82" on="1"/>
        <pt x="356" y="501" on="1"/>
        <pt x="186" y="501" on="1"/>
      </contour>
    </TTGlyph>
    <TTGlyph name="IJ" xMin="4" yMin="-16" xMax="719" yMax="583">
      <contour>
        <pt x="189" y="82" on="1"/>
        <pt x="276" y="82" on="1"/>
        <pt x="257" y="0" on="1"/>
        <pt x="4" y="0" on="1"/>
        <pt x="22" y="82" on="1"/>
        <pt x="106" y="82" on="1"/>
        <pt x="194" y="501" on="1"/>
        <pt x="110" y="501" on="1"/>
        <pt x="128" y="583" on="1"/>
        <pt x="385" y="583" on="1"/>
        <pt x="367" y="501" on="1"/>
        <pt x="276" y="501" on="1"/>
      </contour>
      <contour>
        <pt x="303" y="60" on="1"/>
        <pt x="338" y="245" on="1"/>
        <pt x="420" y="245" on="1"/>
        <pt x="408" y="179" on="1"/>
        <pt x="407" y="175" on="0"/>
        <pt x="397" y="114" on="0"/>
        <pt x="397" y="100" on="1"/>
        <pt x="397" y="70" on="0"/>
        <pt x="424" y="70" on="1"/>
        <pt x="444" y="70" on="0"/>
        <pt x="473" y="127" on="0"/>
        <pt x="492" y="217" on="1"/>
        <pt x="552" y="501" on="1"/>
        <pt x="457" y="501" on="1"/>
        <pt x="475" y="583" on="1"/>
        <pt x="719" y="583" on="1"/>
        <pt x="701" y="501" on="1"/>
        <pt x="640" y="501" on="1"/>
        <pt x="580" y="217" on="1"/>
        <pt x="568" y="159" on="0"/>
        <pt x="544" y="84" on="0"/>
        <pt x="507" y="16" on="0"/>
        <pt x="451" y="-16" on="0"/>
        <pt x="413" y="-16" on="1"/>
        <pt x="333" y="-16" on="0"/>
      </contour>
    </TTGlyph>
    <TTGlyph name="Iacute" xMin="80" yMin="0" xMax="631" yMax="772">
      <component glyphName="I" x="0" y="0" flags="0x1004"/>
      <component glyphName="acute" x="30" y="130" flags="0x1004"/>
    </TTGlyph>
    <TTGlyph name="Icircumflex" xMin="80" yMin="0" xMax="631" yMax="782">
      <component glyphName="I" x="0" y="0" flags="0x1004"/>
      <component glyphName="circumflex" x="30" y="130" flags="0x1004"/>
    </TTGlyph>
    <TTGlyph name="Idieresis" xMin="80" yMin="0" xMax="631" yMax="778">
      <component glyphName="I" x="0" y="0" flags="0x1004"/>
      <component glyphName="dieresis" x="30" y="130" flags="0x1004"/>
    </TTGlyph>
    <TTGlyph name="Idotaccent" xMin="80" yMin="0" xMax="631" yMax="783">
      <component glyphName="I" x="0" y="0" flags="0x1004"/>
      <component glyphName="dotaccent" x="30" y="130" flags="0x1004"/>
    </TTGlyph>
    <TTGlyph name="Igrave" xMin="80" yMin="0" xMax="631" yMax="772">
      <component glyphName="I" x="0" y="0" flags="0x1004"/>
      <component glyphName="grave" x="30" y="130" flags="0x1004"/>
    </TTGlyph>
    <TTGlyph name="Imacron" xMin="80" yMin="0" xMax="631" yMax="765">
      <component glyphName="I" x="0" y="0" flags="0x1004"/>
      <component glyphName="macron" x="30" y="130" flags="0x1004"/>
    </TTGlyph>
    <TTGlyph name="Iogonek" xMin="80" yMin="-144" xMax="631" yMax="583">
      <contour>
        <pt x="415" y="-47" on="1"/>
        <pt x="380" y="-116" on="1"/>
        <pt x="328" y="-144" on="0"/>
        <pt x="283" y="-144" on="1"/>
        <pt x="253" y="-144" on="0"/>
        <pt x="208" y="-114" on="0"/>
        <pt x="208" y="-86" on="1"/>
        <pt x="208" y="-64" on="0"/>
        <pt x="239" y="-24" on="0"/>
        <pt x="267" y="-7" on="0"/>
        <pt x="279" y="-2" on="1"/>
        <pt x="279" y="0" on="1"/>
        <pt x="80" y="0" on="1"/>
        <pt x="98" y="82" on="1"/>
        <pt x="267" y="82" on="1"/>
        <pt x="356" y="501" on="1"/>
        <pt x="186" y="501" on="1"/>
        <pt x="204" y="583" on="1"/>
        <pt x="631" y="583" on="1"/>
        <pt x="613" y="501" on="1"/>
        <pt x="444" y="501" on="1"/>
        <pt x="356" y="82" on="1"/>
        <pt x="525" y="82" on="1"/>
        <pt x="507" y="0" on="1"/>
        <pt x="417" y="0" on="1"/>
        <pt x="383" y="-7" on="0"/>
        <pt x="304" y="-43" on="0"/>
        <pt x="304" y="-63" on="1"/>
        <pt x="304" y="-78" on="0"/>
        <pt x="328" y="-78" on="1"/>
        <pt x="343" y="-78" on="0"/>
        <pt x="370" y="-68" on="0"/>
      </contour>
    </TTGlyph>
    <TTGlyph name="Itilde" xMin="80" yMin="0" xMax="633" yMax="789">
      <component glyphName="I" x="0" y="0" flags="0x1004"/>
      <component glyphName="tilde" x="30" y="130" flags="0x1004"/>
    </TTGlyph>
    <TTGlyph name="J" xMin="61" yMin="-16" xMax="708" yMax="583">
      <contour>
        <pt x="306" y="583" on="1"/>
        <pt x="708" y="583" on="1"/>
        <pt x="690" y="501" on="1"/>
        <pt x="567" y="501" on="1"/>
        <pt x="506" y="213" on="1"/>
        <pt x="486" y="114" on="0"/>
        <pt x="456" y="72" on="1"/>
        <pt x="427" y="31" on="0"/>
        <pt x="335" y="-16" on="0"/>
        <pt x="282" y="-16" on="1"/>
        <pt x="195" y="-16" on="0"/>
        <pt x="61" y="52" on="1"/>
        <pt x="102" y="292" on="1"/>
        <pt x="190" y="292" on="1"/>
        <pt x="170" y="175" on="1"/>
        <pt x="165" y="155" on="0"/>
        <pt x="165" y="131" on="1"/>
        <pt x="165" y="103" on="0"/>
        <pt x="238" y="70" on="0"/>
        <pt x="278" y="70" on="1"/>
        <pt x="316" y="70" on="0"/>
        <pt x="367" y="91" on="0"/>
        <pt x="397" y="138" on="0"/>
        <pt x="411" y="181" on="0"/>
        <pt x="419" y="221" on="1"/>
        <pt x="478" y="501" on="1"/>
        <pt x="288" y="501" on="1"/>
      </contour>
    </TTGlyph>
    <TTGlyph name="Jcircumflex" xMin="61" yMin="-16" xMax="708" yMax="782">
      <component glyphName="J" x="0" y="0" flags="0x1004"/>
      <component glyphName="circumflex" x="95" y="130" flags="0x1004"/>
    </TTGlyph>
    <TTGlyph name="K" xMin="43" yMin="0" xMax="689" yMax="583">
      <contour>
        <pt x="167" y="583" on="1"/>
        <pt x="413" y="583" on="1"/>
        <pt x="393" y="501" on="1"/>
        <pt x="319" y="501" on="1"/>
        <pt x="288" y="348" on="1"/>
        <pt x="486" y="499" on="1"/>
        <pt x="486" y="501" on="1"/>
        <pt x="442" y="501" on="1"/>
        <pt x="459" y="583" on="1"/>
        <pt x="689" y="583" on="1"/>
        <pt x="671" y="501" on="1"/>
        <pt x="620" y="501" on="1"/>
        <pt x="393" y="323" on="1"/>
        <pt x="426" y="272" on="0"/>
        <pt x="467" y="186" on="0"/>
        <pt x="502" y="99" on="1"/>
        <pt x="509" y="82" on="1"/>
        <pt x="611" y="82" on="1"/>
        <pt x="593" y="0" on="1"/>
        <pt x="445" y="0" on="1"/>
        <pt x="414" y="87" on="0"/>
        <pt x="365" y="191" on="0"/>
        <pt x="319" y="270" on="1"/>
        <pt x="262" y="227" on="1"/>
        <pt x="231" y="82" on="1"/>
        <pt x="313" y="82" on="1"/>
        <pt x="295" y="0" on="1"/>
        <pt x="43" y="0" on="1"/>
        <pt x="61" y="82" on="1"/>
        <pt x="143" y="82" on="1"/>
        <pt x="231" y="501" on="1"/>
        <pt x="149" y="501" on="1"/>
      </contour>
    </TTGlyph>
    <TTGlyph name="Kcedilla" xMin="43" yMin="-170" xMax="689" yMax="583">
      <contour>
        <pt x="167" y="583" on="1"/>
        <pt x="413" y="583" on="1"/>
        <pt x="393" y="501" on="1"/>
        <pt x="319" y="501" on="1"/>
        <pt x="288" y="348" on="1"/>
        <pt x="486" y="499" on="1"/>
        <pt x="486" y="501" on="1"/>
        <pt x="442" y="501" on="1"/>
        <pt x="459" y="583" on="1"/>
        <pt x="689" y="583" on="1"/>
        <pt x="671" y="501" on="1"/>
        <pt x="620" y="501" on="1"/>
        <pt x="393" y="323" on="1"/>
        <pt x="429" y="266" on="0"/>
        <pt x="472" y="174" on="0"/>
        <pt x="509" y="82" on="1"/>
        <pt x="611" y="82" on="1"/>
        <pt x="593" y="0" on="1"/>
        <pt x="445" y="0" on="1"/>
        <pt x="414" y="86" on="0"/>
        <pt x="367" y="188" on="0"/>
        <pt x="319" y="270" on="1"/>
        <pt x="262" y="227" on="1"/>
        <pt x="231" y="82" on="1"/>
        <pt x="313" y="82" on="1"/>
        <pt x="295" y="0" on="1"/>
        <pt x="43" y="0" on="1"/>
        <pt x="61" y="82" on="1"/>
        <pt x="143" y="82" on="1"/>
        <pt x="231" y="501" on="1"/>
        <pt x="149" y="501" on="1"/>
      </contour>
      <contour>
        <pt x="412" y="7" on="1"/>
        <pt x="404" y="-18" on="1"/>
        <pt x="463" y="-35" on="0"/>
        <pt x="463" y="-83" on="1"/>
        <pt x="463" y="-113" on="0"/>
        <pt x="409" y="-170" on="0"/>
        <pt x="350" y="-170" on="1"/>
        <pt x="290" y="-170" on="0"/>
        <pt x="224" y="-150" on="1"/>
        <pt x="249" y="-82" on="1"/>
        <pt x="326" y="-100" on="0"/>
        <pt x="355" y="-100" on="1"/>
        <pt x="378" y="-100" on="0"/>
        <pt x="378" y="-92" on="1"/>
        <pt x="378" y="-89" on="0"/>
        <pt x="358" y="-83" on="0"/>
        <pt x="355" y="-83" on="1"/>
        <pt x="310" y="-77" on="1"/>
        <pt x="338" y="7" on="1"/>
      </contour>
    </TTGlyph>
    <TTGlyph name="L" xMin="41" yMin="0" xMax="619" yMax="583">
      <contour>
        <pt x="165" y="583" on="1"/>
        <pt x="469" y="583" on="1"/>
        <pt x="451" y="501" on="1"/>
        <pt x="332" y="501" on="1"/>
        <pt x="243" y="82" on="1"/>
        <pt x="478" y="82" on="1"/>
        <pt x="530" y="278" on="1"/>
        <pt x="619" y="278" on="1"/>
        <pt x="547" y="0" on="1"/>
        <pt x="41" y="0" on="1"/>
        <pt x="59" y="82" on="1"/>
        <pt x="155" y="82" on="1"/>
        <pt x="243" y="501" on="1"/>
        <pt x="147" y="501" on="1"/>
      </contour>
    </TTGlyph>
    <TTGlyph name="Lacute" xMin="41" yMin="0" xMax="619" yMax="772">
      <component glyphName="L" x="0" y="0" flags="0x1004"/>
      <component glyphName="acute" x="-88" y="130" flags="0x1004"/>
    </TTGlyph>
    <TTGlyph name="Lcaron" xMin="41" yMin="0" xMax="619" yMax="782">
      <component glyphName="L" x="0" y="0" flags="0x1004"/>
      <component glyphName="caron" x="-88" y="130" flags="0x1004"/>
    </TTGlyph>
    <TTGlyph name="Lcedilla" xMin="41" yMin="-170" xMax="619" yMax="583">
      <contour>
        <pt x="360" y="0" on="1"/>
        <pt x="354" y="-18" on="1"/>
        <pt x="413" y="-34" on="0"/>
        <pt x="413" y="-83" on="1"/>
        <pt x="413" y="-113" on="0"/>
        <pt x="360" y="-170" on="0"/>
        <pt x="301" y="-170" on="1"/>
        <pt x="243" y="-170" on="0"/>
        <pt x="174" y="-150" on="1"/>
        <pt x="200" y="-82" on="1"/>
        <pt x="276" y="-100" on="0"/>
        <pt x="306" y="-100" on="1"/>
        <pt x="329" y="-100" on="0"/>
        <pt x="329" y="-92" on="1"/>
        <pt x="329" y="-89" on="0"/>
        <pt x="309" y="-83" on="0"/>
        <pt x="306" y="-83" on="1"/>
        <pt x="261" y="-77" on="1"/>
        <pt x="286" y="0" on="1"/>
        <pt x="41" y="0" on="1"/>
        <pt x="59" y="82" on="1"/>
        <pt x="155" y="82" on="1"/>
        <pt x="243" y="501" on="1"/>
        <pt x="147" y="501" on="1"/>
        <pt x="165" y="583" on="1"/>
        <pt x="469" y="583" on="1"/>
        <pt x="451" y="501" on="1"/>
        <pt x="332" y="501" on="1"/>
        <pt x="243" y="82" on="1"/>
        <pt x="478" y="82" on="1"/>
        <pt x="530" y="278" on="1"/>
        <pt x="619" y="278" on="1"/>
        <pt x="547" y="0" on="1"/>
      </contour>
    </TTGlyph>
    <TTGlyph name="Ldot" xMin="41" yMin="0" xMax="619" yMax="583">
      <contour>
        <pt x="165" y="583" on="1"/>
        <pt x="469" y="583" on="1"/>
        <pt x="451" y="501" on="1"/>
        <pt x="332" y="501" on="1"/>
        <pt x="243" y="82" on="1"/>
        <pt x="478" y="82" on="1"/>
        <pt x="531" y="278" on="1"/>
        <pt x="619" y="278" on="1"/>
        <pt x="547" y="0" on="1"/>
        <pt x="41" y="0" on="1"/>
        <pt x="59" y="82" on="1"/>
        <pt x="155" y="82" on="1"/>
        <pt x="243" y="501" on="1"/>
        <pt x="147" y="501" on="1"/>
      </contour>
      <contour>
        <pt x="440" y="397" on="1"/>
        <pt x="468" y="397" on="0"/>
        <pt x="511" y="362" on="0"/>
        <pt x="511" y="333" on="1"/>
        <pt x="511" y="296" on="0"/>
        <pt x="449" y="243" on="0"/>
        <pt x="411" y="243" on="1"/>
        <pt x="381" y="243" on="0"/>
        <pt x="339" y="278" on="0"/>
        <pt x="339" y="307" on="1"/>
        <pt x="339" y="344" on="0"/>
        <pt x="401" y="397" on="0"/>
      </contour>
    </TTGlyph>
    <TTGlyph name="Lquoteright" xMin="41" yMin="0" xMax="687" yMax="583">
      <contour>
        <pt x="165" y="583" on="1"/>
        <pt x="469" y="583" on="1"/>
        <pt x="451" y="501" on="1"/>
        <pt x="332" y="501" on="1"/>
        <pt x="243" y="82" on="1"/>
        <pt x="478" y="82" on="1"/>
        <pt x="530" y="278" on="1"/>
        <pt x="619" y="278" on="1"/>
        <pt x="547" y="0" on="1"/>
        <pt x="41" y="0" on="1"/>
        <pt x="59" y="82" on="1"/>
        <pt x="155" y="82" on="1"/>
        <pt x="243" y="501" on="1"/>
        <pt x="147" y="501" on="1"/>
      </contour>
      <contour>
        <pt x="541" y="583" on="1"/>
        <pt x="687" y="583" on="1"/>
        <pt x="506" y="309" on="1"/>
        <pt x="396" y="309" on="1"/>
      </contour>
    </TTGlyph>
    <TTGlyph name="Lslash" xMin="41" yMin="0" xMax="619" yMax="583">
      <contour>
        <pt x="304" y="367" on="1"/>
        <pt x="493" y="464" on="1"/>
        <pt x="521" y="386" on="1"/>
        <pt x="282" y="262" on="1"/>
        <pt x="243" y="82" on="1"/>
        <pt x="478" y="82" on="1"/>
        <pt x="532" y="278" on="1"/>
        <pt x="619" y="278" on="1"/>
        <pt x="547" y="0" on="1"/>
        <pt x="41" y="0" on="1"/>
        <pt x="59" y="82" on="1"/>
        <pt x="155" y="82" on="1"/>
        <pt x="183" y="218" on="1"/>
        <pt x="116" y="183" on="1"/>
        <pt x="88" y="262" on="1"/>
        <pt x="205" y="322" on="1"/>
        <pt x="243" y="501" on="1"/>
        <pt x="147" y="501" on="1"/>
        <pt x="165" y="583" on="1"/>
        <pt x="469" y="583" on="1"/>
        <pt x="451" y="501" on="1"/>
        <pt x="332" y="501" on="1"/>
      </contour>
    </TTGlyph>
    <TTGlyph name="M" xMin="-13" yMin="0" xMax="715" yMax="583">
      <contour>
        <pt x="118" y="583" on="1"/>
        <pt x="312" y="583" on="1"/>
        <pt x="353" y="290" on="1"/>
        <pt x="365" y="290" on="1"/>
        <pt x="523" y="583" on="1"/>
        <pt x="715" y="583" on="1"/>
        <pt x="697" y="501" on="1"/>
        <pt x="636" y="501" on="1"/>
        <pt x="562" y="82" on="1"/>
        <pt x="621" y="82" on="1"/>
        <pt x="603" y="0" on="1"/>
        <pt x="353" y="0" on="1"/>
        <pt x="370" y="82" on="1"/>
        <pt x="473" y="82" on="1"/>
        <pt x="532" y="420" on="1"/>
        <pt x="514" y="420" on="1"/>
        <pt x="370" y="151" on="1"/>
        <pt x="291" y="151" on="1"/>
        <pt x="248" y="431" on="1"/>
        <pt x="230" y="431" on="1"/>
        <pt x="145" y="82" on="1"/>
        <pt x="248" y="82" on="1"/>
        <pt x="230" y="0" on="1"/>
        <pt x="-13" y="0" on="1"/>
        <pt x="5" y="82" on="1"/>
        <pt x="58" y="82" on="1"/>
        <pt x="161" y="501" on="1"/>
        <pt x="100" y="501" on="1"/>
      </contour>
    </TTGlyph>
    <TTGlyph name="N" xMin="12" yMin="-12" xMax="714" yMax="583">
      <contour>
        <pt x="130" y="583" on="1"/>
        <pt x="313" y="583" on="1"/>
        <pt x="455" y="146" on="1"/>
        <pt x="473" y="146" on="1"/>
        <pt x="548" y="501" on="1"/>
        <pt x="455" y="501" on="1"/>
        <pt x="473" y="583" on="1"/>
        <pt x="714" y="583" on="1"/>
        <pt x="696" y="501" on="1"/>
        <pt x="636" y="501" on="1"/>
        <pt x="527" y="-12" on="1"/>
        <pt x="421" y="-12" on="1"/>
        <pt x="275" y="432" on="1"/>
        <pt x="257" y="432" on="1"/>
        <pt x="183" y="82" on="1"/>
        <pt x="279" y="82" on="1"/>
        <pt x="261" y="0" on="1"/>
        <pt x="12" y="0" on="1"/>
        <pt x="30" y="82" on="1"/>
        <pt x="95" y="82" on="1"/>
        <pt x="183" y="501" on="1"/>
        <pt x="112" y="501" on="1"/>
      </contour>
    </TTGlyph>
    <TTGlyph name="Nacute" xMin="12" yMin="-12" xMax="714" yMax="772">
      <component glyphName="N" x="0" y="0" flags="0x1004"/>
      <component glyphName="acute" x="30" y="130" flags="0x1004"/>
    </TTGlyph>
    <TTGlyph name="Ncaron" xMin="12" yMin="-12" xMax="714" yMax="782">
      <component glyphName="N" x="0" y="0" flags="0x1004"/>
      <component glyphName="caron" x="30" y="130" flags="0x1004"/>
    </TTGlyph>
    <TTGlyph name="Ncedilla" xMin="12" yMin="-170" xMax="714" yMax="583">
      <contour>
        <pt x="130" y="583" on="1"/>
        <pt x="313" y="583" on="1"/>
        <pt x="455" y="146" on="1"/>
        <pt x="473" y="146" on="1"/>
        <pt x="548" y="501" on="1"/>
        <pt x="455" y="501" on="1"/>
        <pt x="473" y="583" on="1"/>
        <pt x="714" y="583" on="1"/>
        <pt x="696" y="501" on="1"/>
        <pt x="636" y="501" on="1"/>
        <pt x="527" y="-12" on="1"/>
        <pt x="421" y="-12" on="1"/>
        <pt x="275" y="432" on="1"/>
        <pt x="257" y="432" on="1"/>
        <pt x="183" y="82" on="1"/>
        <pt x="279" y="82" on="1"/>
        <pt x="261" y="0" on="1"/>
        <pt x="12" y="0" on="1"/>
        <pt x="30" y="82" on="1"/>
        <pt x="95" y="82" on="1"/>
        <pt x="183" y="501" on="1"/>
        <pt x="112" y="501" on="1"/>
      </contour>
      <contour>
        <pt x="375" y="7" on="1"/>
        <pt x="367" y="-18" on="1"/>
        <pt x="427" y="-34" on="0"/>
        <pt x="427" y="-83" on="1"/>
        <pt x="427" y="-113" on="0"/>
        <pt x="373" y="-170" on="0"/>
        <pt x="314" y="-170" on="1"/>
        <pt x="256" y="-170" on="0"/>
        <pt x="187" y="-150" on="1"/>
        <pt x="213" y="-82" on="1"/>
        <pt x="289" y="-100" on="0"/>
        <pt x="319" y="-100" on="1"/>
        <pt x="342" y="-100" on="0"/>
        <pt x="342" y="-92" on="1"/>
        <pt x="342" y="-89" on="0"/>
        <pt x="322" y="-83" on="0"/>
        <pt x="319" y="-83" on="1"/>
        <pt x="274" y="-77" on="1"/>
        <pt x="302" y="7" on="1"/>
      </contour>
    </TTGlyph>
    <TTGlyph name="Ntilde" xMin="12" yMin="-12" xMax="714" yMax="789">
      <component glyphName="N" x="0" y="0" flags="0x1004"/>
      <component glyphName="tilde" x="30" y="130" flags="0x1004"/>
    </TTGlyph>
    <TTGlyph name="O" xMin="80" yMin="-16" xMax="633" yMax="599">
      <contour>
        <pt x="80" y="224" on="1"/>
        <pt x="80" y="309" on="0"/>
        <pt x="161" y="479" on="0"/>
        <pt x="319" y="599" on="0"/>
        <pt x="415" y="599" on="1"/>
        <pt x="467" y="599" on="0"/>
        <pt x="547" y="565" on="0"/>
        <pt x="593" y="515" on="0"/>
        <pt x="623" y="449" on="0"/>
        <pt x="633" y="392" on="0"/>
        <pt x="633" y="365" on="1"/>
        <pt x="633" y="274" on="0"/>
        <pt x="549" y="100" on="0"/>
        <pt x="391" y="-16" on="0"/>
        <pt x="297" y="-16" on="1"/>
        <pt x="242" y="-16" on="0"/>
        <pt x="158" y="23" on="0"/>
        <pt x="114" y="77" on="0"/>
        <pt x="87" y="149" on="0"/>
        <pt x="80" y="200" on="0"/>
      </contour>
      <contour>
        <pt x="173" y="227" on="1"/>
        <pt x="173" y="205" on="0"/>
        <pt x="181" y="161" on="0"/>
        <pt x="205" y="104" on="0"/>
        <pt x="261" y="68" on="0"/>
        <pt x="302" y="68" on="1"/>
        <pt x="399" y="68" on="0"/>
        <pt x="540" y="252" on="0"/>
        <pt x="540" y="362" on="1"/>
        <pt x="540" y="383" on="0"/>
        <pt x="530" y="427" on="0"/>
        <pt x="505" y="481" on="0"/>
        <pt x="450" y="515" on="0"/>
        <pt x="410" y="515" on="1"/>
        <pt x="345" y="515" on="0"/>
        <pt x="233" y="424" on="0"/>
        <pt x="173" y="292" on="0"/>
      </contour>
    </TTGlyph>
    <TTGlyph name="OE" xMin="54" yMin="0" xMax="717" yMax="583">
      <contour>
        <pt x="717" y="583" on="1"/>
        <pt x="675" y="367" on="1"/>
        <pt x="596" y="367" on="1"/>
        <pt x="616" y="501" on="1"/>
        <pt x="475" y="501" on="1"/>
        <pt x="444" y="345" on="1"/>
        <pt x="479" y="345" on="1"/>
        <pt x="494" y="420" on="1"/>
        <pt x="570" y="420" on="1"/>
        <pt x="521" y="192" on="1"/>
        <pt x="444" y="192" on="1"/>
        <pt x="461" y="268" on="1"/>
        <pt x="426" y="268" on="1"/>
        <pt x="386" y="82" on="1"/>
        <pt x="530" y="82" on="1"/>
        <pt x="564" y="218" on="1"/>
        <pt x="641" y="218" on="1"/>
        <pt x="596" y="0" on="1"/>
        <pt x="247" y="0" on="1"/>
        <pt x="198" y="0" on="0"/>
        <pt x="162" y="5" on="0"/>
        <pt x="143" y="16" on="1"/>
        <pt x="97" y="41" on="0"/>
        <pt x="54" y="149" on="0"/>
        <pt x="54" y="203" on="1"/>
        <pt x="54" y="294" on="0"/>
        <pt x="133" y="468" on="0"/>
        <pt x="280" y="583" on="0"/>
        <pt x="367" y="583" on="1"/>
      </contour>
      <contour>
        <pt x="314" y="126" on="1"/>
        <pt x="386" y="466" on="1"/>
        <pt x="388" y="472" on="0"/>
        <pt x="388" y="483" on="1"/>
        <pt x="388" y="496" on="0"/>
        <pt x="357" y="506" on="0"/>
        <pt x="345" y="506" on="1"/>
        <pt x="269" y="506" on="0"/>
        <pt x="135" y="322" on="0"/>
        <pt x="135" y="209" on="1"/>
        <pt x="135" y="142" on="0"/>
        <pt x="191" y="74" on="0"/>
        <pt x="238" y="74" on="1"/>
        <pt x="250" y="74" on="0"/>
        <pt x="276" y="80" on="0"/>
        <pt x="309" y="105" on="0"/>
      </contour>
    </TTGlyph>
    <TTGlyph name="Oacute" xMin="80" yMin="-16" xMax="633" yMax="772">
      <component glyphName="O" x="0" y="0" flags="0x1004"/>
      <component glyphName="acute" x="30" y="130" flags="0x1004"/>
    </TTGlyph>
    <TTGlyph name="Ocircumflex" xMin="80" yMin="-16" xMax="633" yMax="782">
      <component glyphName="O" x="0" y="0" flags="0x1004"/>
      <component glyphName="circumflex" x="30" y="130" flags="0x1004"/>
    </TTGlyph>
    <TTGlyph name="Odieresis" xMin="80" yMin="-16" xMax="633" yMax="778">
      <component glyphName="O" x="0" y="0" flags="0x1004"/>
      <component glyphName="dieresis" x="30" y="130" flags="0x1004"/>
    </TTGlyph>
    <TTGlyph name="Ograve" xMin="80" yMin="-16" xMax="633" yMax="772">
      <component glyphName="O" x="0" y="0" flags="0x1004"/>
      <component glyphName="grave" x="60" y="130" flags="0x1004"/>
    </TTGlyph>
    <TTGlyph name="Ohungarumlaut" xMin="80" yMin="-16" xMax="680" yMax="787">
      <component glyphName="O" x="0" y="0" flags="0x1004"/>
      <component glyphName="hungarumlaut" x="30" y="130" flags="0x1004"/>
    </TTGlyph>
    <TTGlyph name="Omacron" xMin="80" yMin="-16" xMax="633" yMax="765">
      <component glyphName="O" x="0" y="0" flags="0x1004"/>
      <component glyphName="macron" x="30" y="130" flags="0x1004"/>
    </TTGlyph>
    <TTGlyph name="Omega" xMin="20" yMin="0" xMax="655" yMax="600">
      <contour>
        <pt x="20" y="0" on="1"/>
        <pt x="44" y="106" on="1"/>
        <pt x="114" y="106" on="1"/>
        <pt x="106" y="69" on="1"/>
        <pt x="209" y="69" on="1"/>
        <pt x="218" y="106" on="1"/>
        <pt x="218" y="106" on="0"/>
        <pt x="200" y="113" on="1"/>
        <pt x="182" y="120" on="0"/>
        <pt x="167" y="128" on="0"/>
        <pt x="133" y="148" on="0"/>
        <pt x="114" y="172" on="0"/>
        <pt x="91" y="205" on="0"/>
        <pt x="81" y="250" on="0"/>
        <pt x="81" y="277" on="1"/>
        <pt x="81" y="407" on="0"/>
        <pt x="277" y="600" on="0"/>
        <pt x="411" y="600" on="1"/>
        <pt x="514" y="600" on="0"/>
        <pt x="655" y="476" on="0"/>
        <pt x="655" y="381" on="1"/>
        <pt x="655" y="292" on="0"/>
        <pt x="541" y="133" on="0"/>
        <pt x="431" y="106" on="1"/>
        <pt x="422" y="69" on="1"/>
        <pt x="520" y="69" on="1"/>
        <pt x="529" y="106" on="1"/>
        <pt x="600" y="106" on="1"/>
        <pt x="576" y="0" on="1"/>
        <pt x="327" y="0" on="1"/>
        <pt x="361" y="159" on="1"/>
        <pt x="441" y="162" on="0"/>
        <pt x="490" y="200" on="1"/>
        <pt x="527" y="228" on="0"/>
        <pt x="571" y="322" on="0"/>
        <pt x="571" y="371" on="1"/>
        <pt x="571" y="438" on="0"/>
        <pt x="478" y="518" on="0"/>
        <pt x="407" y="518" on="1"/>
        <pt x="303" y="518" on="0"/>
        <pt x="165" y="374" on="0"/>
        <pt x="165" y="282" on="1"/>
        <pt x="165" y="234" on="0"/>
        <pt x="227" y="172" on="0"/>
        <pt x="305" y="159" on="1"/>
        <pt x="271" y="0" on="1"/>
      </contour>
    </TTGlyph>
    <TTGlyph name="Oslash" xMin="46" yMin="-30" xMax="665" yMax="599">
      <contour>
        <pt x="159" y="27" on="1"/>
        <pt x="102" y="-30" on="1"/>
        <pt x="46" y="27" on="1"/>
        <pt x="109" y="91" on="1"/>
        <pt x="80" y="164" on="0"/>
        <pt x="80" y="207" on="1"/>
        <pt x="80" y="368" on="0"/>
        <pt x="279" y="599" on="0"/>
        <pt x="415" y="599" on="1"/>
        <pt x="506" y="599" on="0"/>
        <pt x="560" y="549" on="1"/>
        <pt x="608" y="598" on="1"/>
        <pt x="665" y="542" on="1"/>
        <pt x="608" y="484" on="1"/>
        <pt x="633" y="431" on="0"/>
        <pt x="633" y="368" on="1"/>
        <pt x="633" y="273" on="0"/>
        <pt x="547" y="97" on="0"/>
        <pt x="390" y="-16" on="0"/>
        <pt x="296" y="-16" on="1"/>
        <pt x="206" y="-16" on="0"/>
      </contour>
      <contour>
        <pt x="534" y="409" on="1"/>
        <pt x="224" y="93" on="1"/>
        <pt x="259" y="68" on="0"/>
        <pt x="302" y="68" on="1"/>
        <pt x="398" y="68" on="0"/>
        <pt x="540" y="250" on="0"/>
        <pt x="540" y="362" on="1"/>
        <pt x="540" y="376" on="0"/>
      </contour>
      <contour>
        <pt x="181" y="175" on="1"/>
        <pt x="489" y="488" on="1"/>
        <pt x="461" y="515" on="0"/>
        <pt x="410" y="515" on="1"/>
        <pt x="318" y="515" on="0"/>
        <pt x="173" y="336" on="0"/>
        <pt x="173" y="230" on="1"/>
        <pt x="173" y="199" on="0"/>
      </contour>
    </TTGlyph>
    <TTGlyph name="Otilde" xMin="80" yMin="-16" xMax="633" yMax="789">
      <component glyphName="O" x="0" y="0" flags="0x1004"/>
      <component glyphName="tilde" x="30" y="130" flags="0x1004"/>
    </TTGlyph>
    <TTGlyph name="P" xMin="75" yMin="0" xMax="648" yMax="583">
      <contour>
        <pt x="198" y="583" on="1"/>
        <pt x="433" y="583" on="1"/>
        <pt x="551" y="583" on="0"/>
        <pt x="597" y="543" on="1"/>
        <pt x="648" y="500" on="0"/>
        <pt x="648" y="425" on="1"/>
        <pt x="648" y="382" on="0"/>
        <pt x="605" y="298" on="0"/>
        <pt x="572" y="269" on="1"/>
        <pt x="542" y="243" on="0"/>
        <pt x="459" y="217" on="0"/>
        <pt x="393" y="213" on="0"/>
        <pt x="326" y="213" on="1"/>
        <pt x="285" y="213" on="1"/>
        <pt x="259" y="82" on="1"/>
        <pt x="400" y="82" on="1"/>
        <pt x="382" y="0" on="1"/>
        <pt x="75" y="0" on="1"/>
        <pt x="93" y="82" on="1"/>
        <pt x="171" y="82" on="1"/>
        <pt x="259" y="501" on="1"/>
        <pt x="180" y="501" on="1"/>
      </contour>
      <contour>
        <pt x="427" y="501" on="1"/>
        <pt x="346" y="501" on="1"/>
        <pt x="303" y="297" on="1"/>
        <pt x="333" y="297" on="1"/>
        <pt x="411" y="297" on="0"/>
        <pt x="490" y="309" on="0"/>
        <pt x="513" y="330" on="1"/>
        <pt x="557" y="370" on="0"/>
        <pt x="557" y="424" on="1"/>
        <pt x="557" y="451" on="0"/>
        <pt x="535" y="485" on="0"/>
        <pt x="489" y="498" on="0"/>
        <pt x="456" y="501" on="0"/>
      </contour>
    </TTGlyph>
    <TTGlyph name="Phi" xMin="97" yMin="0" xMax="626" yMax="583">
      <contour>
        <pt x="368" y="519" on="1"/>
        <pt x="279" y="519" on="1"/>
        <pt x="292" y="583" on="1"/>
        <pt x="540" y="583" on="1"/>
        <pt x="527" y="519" on="1"/>
        <pt x="452" y="519" on="1"/>
        <pt x="443" y="478" on="1"/>
        <pt x="522" y="470" on="0"/>
        <pt x="554" y="451" on="1"/>
        <pt x="591" y="429" on="0"/>
        <pt x="626" y="362" on="0"/>
        <pt x="626" y="327" on="1"/>
        <pt x="626" y="279" on="0"/>
        <pt x="573" y="180" on="0"/>
        <pt x="522" y="150" on="1"/>
        <pt x="460" y="113" on="0"/>
        <pt x="364" y="110" on="1"/>
        <pt x="354" y="63" on="1"/>
        <pt x="441" y="63" on="1"/>
        <pt x="429" y="0" on="1"/>
        <pt x="182" y="0" on="1"/>
        <pt x="195" y="63" on="1"/>
        <pt x="271" y="63" on="1"/>
        <pt x="282" y="109" on="1"/>
        <pt x="207" y="112" on="0"/>
        <pt x="163" y="139" on="1"/>
        <pt x="97" y="179" on="0"/>
        <pt x="97" y="257" on="1"/>
        <pt x="97" y="264" on="0"/>
        <pt x="98" y="281" on="0"/>
        <pt x="108" y="325" on="0"/>
        <pt x="126" y="365" on="0"/>
        <pt x="166" y="414" on="0"/>
        <pt x="219" y="449" on="0"/>
        <pt x="305" y="476" on="0"/>
        <pt x="359" y="478" on="1"/>
      </contour>
      <contour>
        <pt x="297" y="187" on="1"/>
        <pt x="343" y="400" on="1"/>
        <pt x="310" y="399" on="0"/>
        <pt x="257" y="384" on="0"/>
        <pt x="225" y="363" on="0"/>
        <pt x="201" y="333" on="0"/>
        <pt x="190" y="310" on="0"/>
        <pt x="184" y="282" on="0"/>
        <pt x="183" y="271" on="0"/>
        <pt x="183" y="266" on="1"/>
        <pt x="183" y="244" on="0"/>
        <pt x="202" y="213" on="0"/>
        <pt x="222" y="199" on="0"/>
        <pt x="264" y="189" on="0"/>
        <pt x="278" y="188" on="0"/>
      </contour>
      <contour>
        <pt x="426" y="400" on="1"/>
        <pt x="380" y="188" on="1"/>
        <pt x="425" y="190" on="0"/>
        <pt x="491" y="217" on="0"/>
        <pt x="521" y="248" on="0"/>
        <pt x="538" y="292" on="0"/>
        <pt x="540" y="311" on="0"/>
        <pt x="540" y="321" on="1"/>
        <pt x="540" y="396" on="0"/>
      </contour>
    </TTGlyph>
    <TTGlyph name="Pts" xMin="1" yMin="-14" xMax="598" yMax="583">
      <contour>
        <pt x="125" y="583" on="1"/>
        <pt x="333" y="583" on="1"/>
        <pt x="355" y="583" on="0"/>
        <pt x="382" y="582" on="0"/>
        <pt x="432" y="576" on="0"/>
        <pt x="464" y="560" on="0"/>
        <pt x="498" y="534" on="0"/>
        <pt x="515" y="490" on="0"/>
        <pt x="515" y="461" on="1"/>
        <pt x="515" y="428" on="0"/>
        <pt x="494" y="375" on="0"/>
        <pt x="465" y="342" on="0"/>
        <pt x="412" y="318" on="0"/>
        <pt x="371" y="307" on="0"/>
        <pt x="302" y="301" on="0"/>
        <pt x="264" y="300" on="0"/>
        <pt x="230" y="300" on="1"/>
        <pt x="184" y="300" on="1"/>
        <pt x="135" y="74" on="1"/>
        <pt x="184" y="74" on="1"/>
        <pt x="170" y="0" on="1"/>
        <pt x="1" y="0" on="1"/>
        <pt x="16" y="74" on="1"/>
        <pt x="61" y="74" on="1"/>
        <pt x="156" y="509" on="1"/>
        <pt x="111" y="509" on="1"/>
      </contour>
      <contour>
        <pt x="255" y="265" on="1"/>
        <pt x="320" y="265" on="1"/>
        <pt x="307" y="207" on="1"/>
        <pt x="370" y="207" on="1"/>
        <pt x="356" y="142" on="1"/>
        <pt x="293" y="142" on="1"/>
        <pt x="284" y="102" on="1"/>
        <pt x="279" y="78" on="0"/>
        <pt x="279" y="70" on="1"/>
        <pt x="279" y="53" on="0"/>
        <pt x="298" y="53" on="1"/>
        <pt x="304" y="53" on="0"/>
        <pt x="343" y="66" on="1"/>
        <pt x="351" y="0" on="1"/>
        <pt x="306" y="-14" on="0"/>
        <pt x="285" y="-14" on="1"/>
        <pt x="277" y="-14" on="0"/>
        <pt x="256" y="-9" on="0"/>
        <pt x="229" y="4" on="0"/>
        <pt x="211" y="34" on="0"/>
        <pt x="211" y="55" on="1"/>
        <pt x="211" y="73" on="0"/>
        <pt x="219" y="102" on="1"/>
        <pt x="230" y="142" on="1"/>
        <pt x="195" y="142" on="1"/>
        <pt x="208" y="207" on="1"/>
        <pt x="241" y="207" on="1"/>
      </contour>
      <contour>
        <pt x="545" y="213" on="1"/>
        <pt x="549" y="224" on="1"/>
        <pt x="598" y="216" on="1"/>
        <pt x="586" y="169" on="0"/>
        <pt x="584" y="149" on="1"/>
        <pt x="539" y="149" on="1"/>
        <pt x="538" y="171" on="0"/>
        <pt x="499" y="171" on="1"/>
        <pt x="464" y="171" on="0"/>
        <pt x="464" y="148" on="1"/>
        <pt x="464" y="136" on="0"/>
        <pt x="481" y="130" on="0"/>
        <pt x="504" y="129" on="1"/>
        <pt x="590" y="127" on="0"/>
        <pt x="590" y="69" on="1"/>
        <pt x="590" y="33" on="0"/>
        <pt x="530" y="-14" on="0"/>
        <pt x="486" y="-14" on="1"/>
        <pt x="453" y="-14" on="0"/>
        <pt x="430" y="0" on="1"/>
        <pt x="426" y="-13" on="1"/>
        <pt x="372" y="-6" on="1"/>
        <pt x="378" y="13" on="0"/>
        <pt x="379" y="23" on="1"/>
        <pt x="383" y="31" on="0"/>
        <pt x="383" y="44" on="1"/>
        <pt x="387" y="64" on="0"/>
        <pt x="387" y="66" on="1"/>
        <pt x="436" y="66" on="1"/>
        <pt x="440" y="54" on="0"/>
        <pt x="446" y="49" on="1"/>
        <pt x="456" y="41" on="0"/>
        <pt x="481" y="41" on="1"/>
        <pt x="498" y="41" on="0"/>
        <pt x="525" y="54" on="0"/>
        <pt x="525" y="65" on="1"/>
        <pt x="525" y="75" on="0"/>
        <pt x="511" y="80" on="0"/>
        <pt x="476" y="83" on="1"/>
        <pt x="399" y="89" on="0"/>
        <pt x="399" y="143" on="1"/>
        <pt x="399" y="177" on="0"/>
        <pt x="454" y="225" on="0"/>
        <pt x="496" y="225" on="1"/>
        <pt x="516" y="225" on="0"/>
      </contour>
      <contour>
        <pt x="313" y="509" on="1"/>
        <pt x="230" y="509" on="1"/>
        <pt x="199" y="371" on="1"/>
        <pt x="246" y="371" on="1"/>
        <pt x="271" y="371" on="0"/>
        <pt x="298" y="371" on="0"/>
        <pt x="345" y="374" on="0"/>
        <pt x="371" y="380" on="0"/>
        <pt x="405" y="392" on="0"/>
        <pt x="423" y="409" on="0"/>
        <pt x="436" y="435" on="0"/>
        <pt x="436" y="452" on="1"/>
        <pt x="436" y="472" on="0"/>
        <pt x="412" y="497" on="0"/>
        <pt x="367" y="507" on="0"/>
        <pt x="337" y="509" on="0"/>
      </contour>
    </TTGlyph>
    <TTGlyph name="Q" xMin="80" yMin="-130" xMax="633" yMax="599">
      <contour>
        <pt x="502" y="-7" on="1"/>
        <pt x="544" y="-74" on="1"/>
        <pt x="467" y="-123" on="0"/>
        <pt x="414" y="-123" on="1"/>
        <pt x="379" y="-123" on="0"/>
        <pt x="328" y="-99" on="1"/>
        <pt x="291" y="-82" on="0"/>
        <pt x="268" y="-82" on="1"/>
        <pt x="231" y="-82" on="0"/>
        <pt x="194" y="-99" on="1"/>
        <pt x="188" y="-101" on="0"/>
        <pt x="136" y="-128" on="0"/>
        <pt x="132" y="-130" on="1"/>
        <pt x="104" y="-54" on="1"/>
        <pt x="146" y="-34" on="0"/>
        <pt x="191" y="8" on="1"/>
        <pt x="148" y="25" on="0"/>
        <pt x="80" y="139" on="0"/>
        <pt x="80" y="210" on="1"/>
        <pt x="80" y="366" on="0"/>
        <pt x="278" y="599" on="0"/>
        <pt x="417" y="599" on="1"/>
        <pt x="453" y="599" on="0"/>
        <pt x="523" y="576" on="0"/>
        <pt x="591" y="526" on="0"/>
        <pt x="633" y="430" on="0"/>
        <pt x="633" y="366" on="1"/>
        <pt x="633" y="307" on="0"/>
        <pt x="594" y="184" on="0"/>
        <pt x="522" y="75" on="0"/>
        <pt x="405" y="0" on="0"/>
        <pt x="334" y="-6" on="1"/>
        <pt x="334" y="-8" on="1"/>
        <pt x="344" y="-11" on="0"/>
        <pt x="382" y="-28" on="1"/>
        <pt x="409" y="-37" on="0"/>
        <pt x="423" y="-37" on="1"/>
        <pt x="448" y="-37" on="0"/>
        <pt x="488" y="-14" on="1"/>
      </contour>
      <contour>
        <pt x="173" y="227" on="1"/>
        <pt x="173" y="205" on="0"/>
        <pt x="181" y="161" on="0"/>
        <pt x="205" y="104" on="0"/>
        <pt x="261" y="68" on="0"/>
        <pt x="302" y="68" on="1"/>
        <pt x="399" y="68" on="0"/>
        <pt x="540" y="252" on="0"/>
        <pt x="540" y="362" on="1"/>
        <pt x="540" y="383" on="0"/>
        <pt x="530" y="427" on="0"/>
        <pt x="505" y="481" on="0"/>
        <pt x="450" y="515" on="0"/>
        <pt x="410" y="515" on="1"/>
        <pt x="345" y="515" on="0"/>
        <pt x="233" y="424" on="0"/>
        <pt x="173" y="292" on="0"/>
      </contour>
    </TTGlyph>
    <TTGlyph name="R" xMin="28" yMin="0" xMax="600" yMax="583">
      <contour>
        <pt x="152" y="583" on="1"/>
        <pt x="414" y="583" on="1"/>
        <pt x="434" y="583" on="0"/>
        <pt x="456" y="582" on="0"/>
        <pt x="500" y="577" on="0"/>
        <pt x="528" y="568" on="0"/>
        <pt x="562" y="548" on="0"/>
        <pt x="583" y="520" on="0"/>
        <pt x="597" y="476" on="0"/>
        <pt x="597" y="448" on="1"/>
        <pt x="597" y="401" on="0"/>
        <pt x="548" y="317" on="0"/>
        <pt x="510" y="291" on="1"/>
        <pt x="479" y="271" on="0"/>
        <pt x="429" y="256" on="1"/>
        <pt x="481" y="147" on="0"/>
        <pt x="503" y="82" on="1"/>
        <pt x="600" y="82" on="1"/>
        <pt x="582" y="0" on="1"/>
        <pt x="429" y="0" on="1"/>
        <pt x="399" y="111" on="0"/>
        <pt x="332" y="249" on="1"/>
        <pt x="248" y="249" on="1"/>
        <pt x="213" y="82" on="1"/>
        <pt x="301" y="82" on="1"/>
        <pt x="281" y="0" on="1"/>
        <pt x="28" y="0" on="1"/>
        <pt x="46" y="82" on="1"/>
        <pt x="125" y="82" on="1"/>
        <pt x="213" y="501" on="1"/>
        <pt x="134" y="501" on="1"/>
      </contour>
      <contour>
        <pt x="408" y="501" on="1"/>
        <pt x="301" y="501" on="1"/>
        <pt x="265" y="333" on="1"/>
        <pt x="333" y="333" on="1"/>
        <pt x="425" y="333" on="0"/>
        <pt x="460" y="359" on="1"/>
        <pt x="508" y="395" on="0"/>
        <pt x="508" y="446" on="1"/>
        <pt x="508" y="462" on="0"/>
        <pt x="498" y="484" on="0"/>
        <pt x="484" y="495" on="0"/>
        <pt x="453" y="500" on="0"/>
        <pt x="432" y="501" on="0"/>
      </contour>
    </TTGlyph>
    <TTGlyph name="Racute" xMin="28" yMin="0" xMax="612" yMax="772">
      <component glyphName="R" x="0" y="0" flags="0x1004"/>
      <component glyphName="acute" x="30" y="130" flags="0x1004"/>
    </TTGlyph>
    <TTGlyph name="Rcaron" xMin="28" yMin="0" xMax="600" yMax="782">
      <component glyphName="R" x="0" y="0" flags="0x1004"/>
      <component glyphName="caron" x="30" y="130" flags="0x1004"/>
    </TTGlyph>
    <TTGlyph name="Rcedilla" xMin="28" yMin="-170" xMax="600" yMax="583">
      <contour>
        <pt x="152" y="583" on="1"/>
        <pt x="414" y="583" on="1"/>
        <pt x="434" y="583" on="0"/>
        <pt x="456" y="582" on="0"/>
        <pt x="500" y="577" on="0"/>
        <pt x="528" y="568" on="0"/>
        <pt x="562" y="548" on="0"/>
        <pt x="583" y="520" on="0"/>
        <pt x="597" y="476" on="0"/>
        <pt x="597" y="448" on="1"/>
        <pt x="597" y="401" on="0"/>
        <pt x="548" y="317" on="0"/>
        <pt x="510" y="291" on="1"/>
        <pt x="479" y="271" on="0"/>
        <pt x="429" y="256" on="1"/>
        <pt x="483" y="141" on="0"/>
        <pt x="503" y="82" on="1"/>
        <pt x="600" y="82" on="1"/>
        <pt x="582" y="0" on="1"/>
        <pt x="429" y="0" on="1"/>
        <pt x="399" y="111" on="0"/>
        <pt x="332" y="249" on="1"/>
        <pt x="248" y="249" on="1"/>
        <pt x="213" y="82" on="1"/>
        <pt x="301" y="82" on="1"/>
        <pt x="281" y="0" on="1"/>
        <pt x="28" y="0" on="1"/>
        <pt x="46" y="82" on="1"/>
        <pt x="125" y="82" on="1"/>
        <pt x="213" y="501" on="1"/>
        <pt x="134" y="501" on="1"/>
      </contour>
      <contour>
        <pt x="408" y="501" on="1"/>
        <pt x="301" y="501" on="1"/>
        <pt x="265" y="333" on="1"/>
        <pt x="333" y="333" on="1"/>
        <pt x="425" y="333" on="0"/>
        <pt x="460" y="359" on="1"/>
        <pt x="508" y="395" on="0"/>
        <pt x="508" y="446" on="1"/>
        <pt x="508" y="462" on="0"/>
        <pt x="498" y="484" on="0"/>
        <pt x="484" y="495" on="0"/>
        <pt x="453" y="500" on="0"/>
        <pt x="432" y="501" on="0"/>
      </contour>
      <contour>
        <pt x="380" y="7" on="1"/>
        <pt x="372" y="-18" on="1"/>
        <pt x="431" y="-35" on="0"/>
        <pt x="431" y="-83" on="1"/>
        <pt x="431" y="-113" on="0"/>
        <pt x="378" y="-170" on="0"/>
        <pt x="319" y="-170" on="1"/>
        <pt x="258" y="-170" on="0"/>
        <pt x="192" y="-150" on="1"/>
        <pt x="217" y="-82" on="1"/>
        <pt x="294" y="-100" on="0"/>
        <pt x="323" y="-100" on="1"/>
        <pt x="346" y="-100" on="0"/>
        <pt x="346" y="-92" on="1"/>
        <pt x="346" y="-89" on="0"/>
        <pt x="326" y="-83" on="0"/>
        <pt x="323" y="-83" on="1"/>
        <pt x="322" y="-83" on="0"/>
        <pt x="307" y="-81" on="0"/>
        <pt x="284" y="-78" on="0"/>
        <pt x="279" y="-77" on="1"/>
        <pt x="306" y="7" on="1"/>
      </contour>
    </TTGlyph>
    <TTGlyph name="S" xMin="49" yMin="-18" xMax="645" yMax="606">
      <contour>
        <pt x="569" y="606" on="1"/>
        <pt x="645" y="583" on="1"/>
        <pt x="615" y="521" on="0"/>
        <pt x="594" y="450" on="0"/>
        <pt x="580" y="371" on="1"/>
        <pt x="504" y="383" on="1"/>
        <pt x="510" y="411" on="0"/>
        <pt x="510" y="432" on="1"/>
        <pt x="510" y="516" on="0"/>
        <pt x="405" y="516" on="1"/>
        <pt x="341" y="516" on="0"/>
        <pt x="259" y="456" on="0"/>
        <pt x="259" y="413" on="1"/>
        <pt x="259" y="394" on="0"/>
        <pt x="275" y="366" on="0"/>
        <pt x="294" y="352" on="0"/>
        <pt x="329" y="342" on="0"/>
        <pt x="348" y="340" on="0"/>
        <pt x="366" y="339" on="1"/>
        <pt x="442" y="335" on="0"/>
        <pt x="484" y="312" on="1"/>
        <pt x="556" y="270" on="0"/>
        <pt x="556" y="188" on="1"/>
        <pt x="556" y="157" on="0"/>
        <pt x="530" y="91" on="0"/>
        <pt x="477" y="27" on="0"/>
        <pt x="376" y="-14" on="0"/>
        <pt x="310" y="-14" on="1"/>
        <pt x="248" y="-14" on="0"/>
        <pt x="183" y="16" on="0"/>
        <pt x="151" y="48" on="1"/>
        <pt x="131" y="-18" on="1"/>
        <pt x="49" y="-5" on="1"/>
        <pt x="75" y="62" on="0"/>
        <pt x="93" y="135" on="0"/>
        <pt x="101" y="204" on="1"/>
        <pt x="178" y="204" on="1"/>
        <pt x="178" y="148" on="0"/>
        <pt x="183" y="135" on="1"/>
        <pt x="207" y="75" on="0"/>
        <pt x="311" y="75" on="1"/>
        <pt x="384" y="75" on="0"/>
        <pt x="465" y="141" on="0"/>
        <pt x="465" y="185" on="1"/>
        <pt x="465" y="202" on="0"/>
        <pt x="452" y="225" on="0"/>
        <pt x="435" y="238" on="0"/>
        <pt x="398" y="246" on="0"/>
        <pt x="373" y="249" on="0"/>
        <pt x="347" y="251" on="1"/>
        <pt x="270" y="258" on="0"/>
        <pt x="229" y="288" on="1"/>
        <pt x="201" y="309" on="0"/>
        <pt x="168" y="377" on="0"/>
        <pt x="168" y="412" on="1"/>
        <pt x="168" y="485" on="0"/>
        <pt x="297" y="602" on="0"/>
        <pt x="401" y="602" on="1"/>
        <pt x="494" y="602" on="0"/>
        <pt x="540" y="542" on="1"/>
      </contour>
    </TTGlyph>
    <TTGlyph name="SF010000" xMin="264" yMin="-288" xMax="600" yMax="288">
      <contour>
        <pt x="336" y="216" on="1"/>
        <pt x="336" y="-288" on="1"/>
        <pt x="264" y="-288" on="1"/>
        <pt x="264" y="288" on="1"/>
        <pt x="600" y="288" on="1"/>
        <pt x="600" y="216" on="1"/>
      </contour>
    </TTGlyph>
    <TTGlyph name="SF020000" xMin="264" yMin="216" xMax="600" yMax="792">
      <contour>
        <pt x="336" y="288" on="1"/>
        <pt x="600" y="288" on="1"/>
        <pt x="600" y="216" on="1"/>
        <pt x="264" y="216" on="1"/>
        <pt x="264" y="792" on="1"/>
        <pt x="336" y="792" on="1"/>
      </contour>
    </TTGlyph>
    <TTGlyph name="SF030000" xMin="0" yMin="-288" xMax="336" yMax="288">
      <contour>
        <pt x="0" y="216" on="1"/>
        <pt x="0" y="288" on="1"/>
        <pt x="336" y="288" on="1"/>
        <pt x="336" y="-288" on="1"/>
        <pt x="264" y="-288" on="1"/>
        <pt x="264" y="216" on="1"/>
      </contour>
    </TTGlyph>
    <TTGlyph name="SF040000" xMin="0" yMin="216" xMax="336" yMax="792">
      <contour>
        <pt x="264" y="288" on="1"/>
        <pt x="264" y="792" on="1"/>
        <pt x="336" y="792" on="1"/>
        <pt x="336" y="216" on="1"/>
        <pt x="0" y="216" on="1"/>
        <pt x="0" y="288" on="1"/>
      </contour>
    </TTGlyph>
    <TTGlyph name="SF050000" xMin="0" yMin="-288" xMax="600" yMax="792">
      <contour>
        <pt x="336" y="288" on="1"/>
        <pt x="600" y="288" on="1"/>
        <pt x="600" y="216" on="1"/>
        <pt x="336" y="216" on="1"/>
        <pt x="336" y="-288" on="1"/>
        <pt x="264" y="-288" on="1"/>
        <pt x="264" y="216" on="1"/>
        <pt x="0" y="216" on="1"/>
        <pt x="0" y="288" on="1"/>
        <pt x="264" y="288" on="1"/>
        <pt x="264" y="792" on="1"/>
        <pt x="336" y="792" on="1"/>
      </contour>
    </TTGlyph>
    <TTGlyph name="SF060000" xMin="0" yMin="-288" xMax="600" yMax="288">
      <contour>
        <pt x="336" y="216" on="1"/>
        <pt x="336" y="-288" on="1"/>
        <pt x="264" y="-288" on="1"/>
        <pt x="264" y="216" on="1"/>
        <pt x="0" y="216" on="1"/>
        <pt x="0" y="288" on="1"/>
        <pt x="600" y="288" on="1"/>
        <pt x="600" y="216" on="1"/>
      </contour>
    </TTGlyph>
    <TTGlyph name="SF070000" xMin="0" yMin="216" xMax="600" yMax="792">
      <contour>
        <pt x="336" y="288" on="1"/>
        <pt x="600" y="288" on="1"/>
        <pt x="600" y="216" on="1"/>
        <pt x="0" y="216" on="1"/>
        <pt x="0" y="288" on="1"/>
        <pt x="264" y="288" on="1"/>
        <pt x="264" y="792" on="1"/>
        <pt x="336" y="792" on="1"/>
      </contour>
    </TTGlyph>
    <TTGlyph name="SF080000" xMin="264" yMin="-288" xMax="600" yMax="792">
      <contour>
        <pt x="264" y="-288" on="1"/>
        <pt x="264" y="792" on="1"/>
        <pt x="336" y="792" on="1"/>
        <pt x="336" y="288" on="1"/>
        <pt x="600" y="288" on="1"/>
        <pt x="600" y="216" on="1"/>
        <pt x="336" y="216" on="1"/>
        <pt x="336" y="-288" on="1"/>
      </contour>
    </TTGlyph>
    <TTGlyph name="SF090000" xMin="0" yMin="-288" xMax="336" yMax="792">
      <contour>
        <pt x="336" y="-288" on="1"/>
        <pt x="264" y="-288" on="1"/>
        <pt x="264" y="216" on="1"/>
        <pt x="0" y="216" on="1"/>
        <pt x="0" y="288" on="1"/>
        <pt x="264" y="288" on="1"/>
        <pt x="264" y="792" on="1"/>
        <pt x="336" y="792" on="1"/>
      </contour>
    </TTGlyph>
    <TTGlyph name="SF100000" xMin="0" yMin="216" xMax="600" yMax="288">
      <contour>
        <pt x="0" y="216" on="1"/>
        <pt x="0" y="288" on="1"/>
        <pt x="600" y="288" on="1"/>
        <pt x="600" y="216" on="1"/>
      </contour>
    </TTGlyph>
    <TTGlyph name="SF110000" xMin="264" yMin="-288" xMax="336" yMax="792">
      <contour>
        <pt x="264" y="-288" on="1"/>
        <pt x="264" y="792" on="1"/>
        <pt x="336" y="792" on="1"/>
        <pt x="336" y="-288" on="1"/>
      </contour>
    </TTGlyph>
    <TTGlyph name="SF140000" xMin="0" yMin="-167" xMax="500" yMax="733">
      <contour>
        <pt x="500" y="533" on="1"/>
        <pt x="500" y="433" on="1"/>
        <pt x="400" y="433" on="1"/>
        <pt x="400" y="533" on="1"/>
      </contour>
      <contour>
        <pt x="300" y="533" on="1"/>
        <pt x="300" y="433" on="1"/>
        <pt x="200" y="433" on="1"/>
        <pt x="200" y="533" on="1"/>
      </contour>
      <contour>
        <pt x="500" y="333" on="1"/>
        <pt x="500" y="233" on="1"/>
        <pt x="400" y="233" on="1"/>
        <pt x="400" y="333" on="1"/>
      </contour>
      <contour>
        <pt x="300" y="333" on="1"/>
        <pt x="300" y="233" on="1"/>
        <pt x="200" y="233" on="1"/>
        <pt x="200" y="333" on="1"/>
      </contour>
      <contour>
        <pt x="500" y="133" on="1"/>
        <pt x="500" y="33" on="1"/>
        <pt x="400" y="33" on="1"/>
        <pt x="400" y="133" on="1"/>
      </contour>
      <contour>
        <pt x="300" y="133" on="1"/>
        <pt x="300" y="33" on="1"/>
        <pt x="200" y="33" on="1"/>
        <pt x="200" y="133" on="1"/>
      </contour>
      <contour>
        <pt x="500" y="-67" on="1"/>
        <pt x="500" y="-167" on="1"/>
        <pt x="400" y="-167" on="1"/>
        <pt x="400" y="-67" on="1"/>
      </contour>
      <contour>
        <pt x="300" y="-67" on="1"/>
        <pt x="300" y="-167" on="1"/>
        <pt x="200" y="-167" on="1"/>
        <pt x="200" y="-67" on="1"/>
      </contour>
      <contour>
        <pt x="100" y="533" on="1"/>
        <pt x="100" y="433" on="1"/>
        <pt x="0" y="433" on="1"/>
        <pt x="0" y="533" on="1"/>
      </contour>
      <contour>
        <pt x="100" y="333" on="1"/>
        <pt x="100" y="233" on="1"/>
        <pt x="0" y="233" on="1"/>
        <pt x="0" y="333" on="1"/>
      </contour>
      <contour>
        <pt x="100" y="133" on="1"/>
        <pt x="100" y="33" on="1"/>
        <pt x="0" y="33" on="1"/>
        <pt x="0" y="133" on="1"/>
      </contour>
      <contour>
        <pt x="100" y="-67" on="1"/>
        <pt x="100" y="-167" on="1"/>
        <pt x="0" y="-167" on="1"/>
        <pt x="0" y="-67" on="1"/>
      </contour>
      <contour>
        <pt x="100" y="733" on="1"/>
        <pt x="100" y="633" on="1"/>
        <pt x="0" y="633" on="1"/>
        <pt x="0" y="733" on="1"/>
      </contour>
      <contour>
        <pt x="300" y="733" on="1"/>
        <pt x="300" y="633" on="1"/>
        <pt x="200" y="633" on="1"/>
        <pt x="200" y="733" on="1"/>
      </contour>
      <contour>
        <pt x="500" y="733" on="1"/>
        <pt x="500" y="633" on="1"/>
        <pt x="400" y="633" on="1"/>
        <pt x="400" y="733" on="1"/>
      </contour>
    </TTGlyph>
    <TTGlyph name="SF150000" xMin="0" yMin="-267" xMax="600" yMax="733">
      <contour>
        <pt x="0" y="733" on="1"/>
        <pt x="100" y="733" on="1"/>
        <pt x="100" y="634" on="1"/>
        <pt x="99" y="633" on="1"/>
        <pt x="0" y="633" on="1"/>
      </contour>
      <contour>
        <pt x="200" y="733" on="1"/>
        <pt x="300" y="733" on="1"/>
        <pt x="300" y="634" on="1"/>
        <pt x="299" y="633" on="1"/>
        <pt x="201" y="633" on="1"/>
        <pt x="200" y="634" on="1"/>
      </contour>
      <contour>
        <pt x="400" y="733" on="1"/>
        <pt x="500" y="733" on="1"/>
        <pt x="500" y="634" on="1"/>
        <pt x="499" y="633" on="1"/>
        <pt x="401" y="633" on="1"/>
        <pt x="400" y="634" on="1"/>
      </contour>
      <contour>
        <pt x="100" y="632" on="1"/>
        <pt x="101" y="633" on="1"/>
        <pt x="199" y="633" on="1"/>
        <pt x="200" y="632" on="1"/>
        <pt x="200" y="534" on="1"/>
        <pt x="199" y="533" on="1"/>
        <pt x="101" y="533" on="1"/>
        <pt x="100" y="534" on="1"/>
      </contour>
      <contour>
        <pt x="300" y="632" on="1"/>
        <pt x="301" y="633" on="1"/>
        <pt x="399" y="633" on="1"/>
        <pt x="400" y="632" on="1"/>
        <pt x="400" y="534" on="1"/>
        <pt x="399" y="533" on="1"/>
        <pt x="301" y="533" on="1"/>
        <pt x="300" y="534" on="1"/>
      </contour>
      <contour>
        <pt x="501" y="633" on="1"/>
        <pt x="600" y="633" on="1"/>
        <pt x="600" y="533" on="1"/>
        <pt x="501" y="533" on="1"/>
        <pt x="500" y="534" on="1"/>
        <pt x="500" y="632" on="1"/>
      </contour>
      <contour>
        <pt x="0" y="533" on="1"/>
        <pt x="99" y="533" on="1"/>
        <pt x="100" y="532" on="1"/>
        <pt x="100" y="434" on="1"/>
        <pt x="99" y="433" on="1"/>
        <pt x="0" y="433" on="1"/>
      </contour>
      <contour>
        <pt x="200" y="532" on="1"/>
        <pt x="201" y="533" on="1"/>
        <pt x="299" y="533" on="1"/>
        <pt x="300" y="532" on="1"/>
        <pt x="300" y="434" on="1"/>
        <pt x="299" y="433" on="1"/>
        <pt x="201" y="433" on="1"/>
        <pt x="200" y="434" on="1"/>
      </contour>
      <contour>
        <pt x="400" y="532" on="1"/>
        <pt x="401" y="533" on="1"/>
        <pt x="499" y="533" on="1"/>
        <pt x="500" y="532" on="1"/>
        <pt x="500" y="434" on="1"/>
        <pt x="499" y="433" on="1"/>
        <pt x="401" y="433" on="1"/>
        <pt x="400" y="434" on="1"/>
      </contour>
      <contour>
        <pt x="100" y="432" on="1"/>
        <pt x="101" y="433" on="1"/>
        <pt x="199" y="433" on="1"/>
        <pt x="200" y="432" on="1"/>
        <pt x="200" y="334" on="1"/>
        <pt x="199" y="333" on="1"/>
        <pt x="101" y="333" on="1"/>
        <pt x="100" y="334" on="1"/>
      </contour>
      <contour>
        <pt x="300" y="432" on="1"/>
        <pt x="301" y="433" on="1"/>
        <pt x="399" y="433" on="1"/>
        <pt x="400" y="432" on="1"/>
        <pt x="400" y="334" on="1"/>
        <pt x="399" y="333" on="1"/>
        <pt x="301" y="333" on="1"/>
        <pt x="300" y="334" on="1"/>
      </contour>
      <contour>
        <pt x="501" y="433" on="1"/>
        <pt x="600" y="433" on="1"/>
        <pt x="600" y="333" on="1"/>
        <pt x="501" y="333" on="1"/>
        <pt x="500" y="334" on="1"/>
        <pt x="500" y="432" on="1"/>
      </contour>
      <contour>
        <pt x="0" y="333" on="1"/>
        <pt x="99" y="333" on="1"/>
        <pt x="100" y="332" on="1"/>
        <pt x="100" y="234" on="1"/>
        <pt x="99" y="233" on="1"/>
        <pt x="0" y="233" on="1"/>
      </contour>
      <contour>
        <pt x="200" y="332" on="1"/>
        <pt x="201" y="333" on="1"/>
        <pt x="299" y="333" on="1"/>
        <pt x="300" y="332" on="1"/>
        <pt x="300" y="234" on="1"/>
        <pt x="299" y="233" on="1"/>
        <pt x="201" y="233" on="1"/>
        <pt x="200" y="234" on="1"/>
      </contour>
      <contour>
        <pt x="400" y="332" on="1"/>
        <pt x="401" y="333" on="1"/>
        <pt x="499" y="333" on="1"/>
        <pt x="500" y="332" on="1"/>
        <pt x="500" y="234" on="1"/>
        <pt x="499" y="233" on="1"/>
        <pt x="401" y="233" on="1"/>
        <pt x="400" y="234" on="1"/>
      </contour>
      <contour>
        <pt x="100" y="232" on="1"/>
        <pt x="101" y="233" on="1"/>
        <pt x="199" y="233" on="1"/>
        <pt x="200" y="232" on="1"/>
        <pt x="200" y="134" on="1"/>
        <pt x="199" y="133" on="1"/>
        <pt x="101" y="133" on="1"/>
        <pt x="100" y="134" on="1"/>
      </contour>
      <contour>
        <pt x="300" y="232" on="1"/>
        <pt x="301" y="233" on="1"/>
        <pt x="399" y="233" on="1"/>
        <pt x="400" y="232" on="1"/>
        <pt x="400" y="134" on="1"/>
        <pt x="399" y="133" on="1"/>
        <pt x="301" y="133" on="1"/>
        <pt x="300" y="134" on="1"/>
      </contour>
      <contour>
        <pt x="501" y="233" on="1"/>
        <pt x="600" y="233" on="1"/>
        <pt x="600" y="133" on="1"/>
        <pt x="501" y="133" on="1"/>
        <pt x="500" y="134" on="1"/>
        <pt x="500" y="232" on="1"/>
      </contour>
      <contour>
        <pt x="0" y="133" on="1"/>
        <pt x="99" y="133" on="1"/>
        <pt x="100" y="132" on="1"/>
        <pt x="100" y="34" on="1"/>
        <pt x="99" y="33" on="1"/>
        <pt x="0" y="33" on="1"/>
      </contour>
      <contour>
        <pt x="200" y="132" on="1"/>
        <pt x="201" y="133" on="1"/>
        <pt x="299" y="133" on="1"/>
        <pt x="300" y="132" on="1"/>
        <pt x="300" y="34" on="1"/>
        <pt x="299" y="33" on="1"/>
        <pt x="201" y="33" on="1"/>
        <pt x="200" y="34" on="1"/>
      </contour>
      <contour>
        <pt x="400" y="132" on="1"/>
        <pt x="401" y="133" on="1"/>
        <pt x="499" y="133" on="1"/>
        <pt x="500" y="132" on="1"/>
        <pt x="500" y="34" on="1"/>
        <pt x="499" y="33" on="1"/>
        <pt x="401" y="33" on="1"/>
        <pt x="400" y="34" on="1"/>
      </contour>
      <contour>
        <pt x="100" y="32" on="1"/>
        <pt x="101" y="33" on="1"/>
        <pt x="199" y="33" on="1"/>
        <pt x="200" y="32" on="1"/>
        <pt x="200" y="-66" on="1"/>
        <pt x="199" y="-67" on="1"/>
        <pt x="101" y="-67" on="1"/>
        <pt x="100" y="-66" on="1"/>
      </contour>
      <contour>
        <pt x="300" y="32" on="1"/>
        <pt x="301" y="33" on="1"/>
        <pt x="399" y="33" on="1"/>
        <pt x="400" y="32" on="1"/>
        <pt x="400" y="-66" on="1"/>
        <pt x="399" y="-67" on="1"/>
        <pt x="301" y="-67" on="1"/>
        <pt x="300" y="-66" on="1"/>
      </contour>
      <contour>
        <pt x="501" y="33" on="1"/>
        <pt x="600" y="33" on="1"/>
        <pt x="600" y="-67" on="1"/>
        <pt x="501" y="-67" on="1"/>
        <pt x="500" y="-66" on="1"/>
        <pt x="500" y="32" on="1"/>
      </contour>
      <contour>
        <pt x="0" y="-67" on="1"/>
        <pt x="99" y="-67" on="1"/>
        <pt x="100" y="-68" on="1"/>
        <pt x="100" y="-166" on="1"/>
        <pt x="99" y="-167" on="1"/>
        <pt x="0" y="-167" on="1"/>
      </contour>
      <contour>
        <pt x="200" y="-68" on="1"/>
        <pt x="201" y="-67" on="1"/>
        <pt x="299" y="-67" on="1"/>
        <pt x="300" y="-68" on="1"/>
        <pt x="300" y="-166" on="1"/>
        <pt x="299" y="-167" on="1"/>
        <pt x="201" y="-167" on="1"/>
        <pt x="200" y="-166" on="1"/>
      </contour>
      <contour>
        <pt x="400" y="-68" on="1"/>
        <pt x="401" y="-67" on="1"/>
        <pt x="499" y="-67" on="1"/>
        <pt x="500" y="-68" on="1"/>
        <pt x="500" y="-166" on="1"/>
        <pt x="499" y="-167" on="1"/>
        <pt x="401" y="-167" on="1"/>
        <pt x="400" y="-166" on="1"/>
      </contour>
      <contour>
        <pt x="101" y="-167" on="1"/>
        <pt x="199" y="-167" on="1"/>
        <pt x="200" y="-168" on="1"/>
        <pt x="200" y="-267" on="1"/>
        <pt x="100" y="-267" on="1"/>
        <pt x="100" y="-168" on="1"/>
      </contour>
      <contour>
        <pt x="301" y="-167" on="1"/>
        <pt x="399" y="-167" on="1"/>
        <pt x="400" y="-168" on="1"/>
        <pt x="400" y="-267" on="1"/>
        <pt x="300" y="-267" on="1"/>
        <pt x="300" y="-168" on="1"/>
      </contour>
      <contour>
        <pt x="501" y="-167" on="1"/>
        <pt x="600" y="-167" on="1"/>
        <pt x="600" y="-267" on="1"/>
        <pt x="500" y="-267" on="1"/>
        <pt x="500" y="-168" on="1"/>
      </contour>
    </TTGlyph>
    <TTGlyph name="SF160000" xMin="0" yMin="-267" xMax="600" yMax="733">
      <contour>
        <pt x="600" y="-267" on="1"/>
        <pt x="0" y="-267" on="1"/>
        <pt x="0" y="-167" on="1"/>
        <pt x="100" y="-167" on="1"/>
        <pt x="100" y="-67" on="1"/>
        <pt x="0" y="-67" on="1"/>
        <pt x="0" y="33" on="1"/>
        <pt x="100" y="33" on="1"/>
        <pt x="100" y="133" on="1"/>
        <pt x="0" y="133" on="1"/>
        <pt x="0" y="233" on="1"/>
        <pt x="100" y="233" on="1"/>
        <pt x="100" y="333" on="1"/>
        <pt x="0" y="333" on="1"/>
        <pt x="0" y="433" on="1"/>
        <pt x="100" y="433" on="1"/>
        <pt x="100" y="533" on="1"/>
        <pt x="0" y="533" on="1"/>
        <pt x="0" y="633" on="1"/>
        <pt x="100" y="633" on="1"/>
        <pt x="100" y="733" on="1"/>
        <pt x="200" y="733" on="1"/>
        <pt x="200" y="633" on="1"/>
        <pt x="300" y="633" on="1"/>
        <pt x="300" y="733" on="1"/>
        <pt x="400" y="733" on="1"/>
        <pt x="400" y="633" on="1"/>
        <pt x="500" y="633" on="1"/>
        <pt x="500" y="733" on="1"/>
        <pt x="600" y="733" on="1"/>
      </contour>
      <contour>
        <pt x="500" y="233" on="1"/>
        <pt x="500" y="333" on="1"/>
        <pt x="400" y="333" on="1"/>
        <pt x="400" y="233" on="1"/>
      </contour>
      <contour>
        <pt x="300" y="233" on="1"/>
        <pt x="300" y="333" on="1"/>
        <pt x="200" y="333" on="1"/>
        <pt x="200" y="233" on="1"/>
      </contour>
      <contour>
        <pt x="500" y="33" on="1"/>
        <pt x="500" y="133" on="1"/>
        <pt x="400" y="133" on="1"/>
        <pt x="400" y="33" on="1"/>
      </contour>
      <contour>
        <pt x="300" y="33" on="1"/>
        <pt x="300" y="133" on="1"/>
        <pt x="200" y="133" on="1"/>
        <pt x="200" y="33" on="1"/>
      </contour>
      <contour>
        <pt x="500" y="433" on="1"/>
        <pt x="500" y="533" on="1"/>
        <pt x="400" y="533" on="1"/>
        <pt x="400" y="433" on="1"/>
      </contour>
      <contour>
        <pt x="300" y="433" on="1"/>
        <pt x="300" y="533" on="1"/>
        <pt x="200" y="533" on="1"/>
        <pt x="200" y="433" on="1"/>
      </contour>
      <contour>
        <pt x="500" y="-167" on="1"/>
        <pt x="500" y="-67" on="1"/>
        <pt x="400" y="-67" on="1"/>
        <pt x="400" y="-167" on="1"/>
      </contour>
      <contour>
        <pt x="300" y="-167" on="1"/>
        <pt x="300" y="-67" on="1"/>
        <pt x="200" y="-67" on="1"/>
        <pt x="200" y="-167" on="1"/>
      </contour>
    </TTGlyph>
    <TTGlyph name="SF190000" xMin="0" yMin="-288" xMax="336" yMax="792">
      <contour>
        <pt x="336" y="-288" on="1"/>
        <pt x="264" y="-288" on="1"/>
        <pt x="264" y="144" on="1"/>
        <pt x="0" y="144" on="1"/>
        <pt x="0" y="216" on="1"/>
        <pt x="264" y="216" on="1"/>
        <pt x="264" y="288" on="1"/>
        <pt x="0" y="288" on="1"/>
        <pt x="0" y="360" on="1"/>
        <pt x="264" y="360" on="1"/>
        <pt x="264" y="792" on="1"/>
        <pt x="336" y="792" on="1"/>
      </contour>
    </TTGlyph>
    <TTGlyph name="SF200000" xMin="0" yMin="-288" xMax="408" yMax="792">
      <contour>
        <pt x="264" y="792" on="1"/>
        <pt x="264" y="-288" on="1"/>
        <pt x="192" y="-288" on="1"/>
        <pt x="192" y="216" on="1"/>
        <pt x="0" y="216" on="1"/>
        <pt x="0" y="288" on="1"/>
        <pt x="192" y="288" on="1"/>
        <pt x="192" y="792" on="1"/>
      </contour>
      <contour>
        <pt x="408" y="-288" on="1"/>
        <pt x="336" y="-288" on="1"/>
        <pt x="336" y="792" on="1"/>
        <pt x="408" y="792" on="1"/>
      </contour>
    </TTGlyph>
    <TTGlyph name="SF210000" xMin="0" yMin="-288" xMax="408" yMax="288">
      <contour>
        <pt x="264" y="216" on="1"/>
        <pt x="264" y="-288" on="1"/>
        <pt x="192" y="-288" on="1"/>
        <pt x="192" y="216" on="1"/>
        <pt x="0" y="216" on="1"/>
        <pt x="0" y="288" on="1"/>
        <pt x="408" y="288" on="1"/>
        <pt x="408" y="-288" on="1"/>
        <pt x="336" y="-288" on="1"/>
        <pt x="336" y="216" on="1"/>
      </contour>
    </TTGlyph>
    <TTGlyph name="SF220000" xMin="0" yMin="-288" xMax="336" yMax="360">
      <contour>
        <pt x="0" y="216" on="1"/>
        <pt x="264" y="216" on="1"/>
        <pt x="264" y="288" on="1"/>
        <pt x="0" y="288" on="1"/>
        <pt x="0" y="360" on="1"/>
        <pt x="336" y="360" on="1"/>
        <pt x="336" y="-288" on="1"/>
        <pt x="264" y="-288" on="1"/>
        <pt x="264" y="144" on="1"/>
        <pt x="0" y="144" on="1"/>
      </contour>
    </TTGlyph>
    <TTGlyph name="SF230000" xMin="0" yMin="-288" xMax="408" yMax="792">
      <contour>
        <pt x="336" y="-288" on="1"/>
        <pt x="336" y="792" on="1"/>
        <pt x="408" y="792" on="1"/>
        <pt x="408" y="-288" on="1"/>
      </contour>
      <contour>
        <pt x="192" y="144" on="1"/>
        <pt x="0" y="144" on="1"/>
        <pt x="0" y="216" on="1"/>
        <pt x="264" y="216" on="1"/>
        <pt x="264" y="-288" on="1"/>
        <pt x="192" y="-288" on="1"/>
      </contour>
      <contour>
        <pt x="264" y="288" on="1"/>
        <pt x="0" y="288" on="1"/>
        <pt x="0" y="360" on="1"/>
        <pt x="192" y="360" on="1"/>
        <pt x="192" y="792" on="1"/>
        <pt x="264" y="792" on="1"/>
      </contour>
    </TTGlyph>
    <TTGlyph name="SF240000" xMin="192" yMin="-288" xMax="408" yMax="792">
      <contour>
        <pt x="408" y="-288" on="1"/>
        <pt x="336" y="-288" on="1"/>
        <pt x="336" y="792" on="1"/>
        <pt x="408" y="792" on="1"/>
      </contour>
      <contour>
        <pt x="192" y="-288" on="1"/>
        <pt x="192" y="792" on="1"/>
        <pt x="264" y="792" on="1"/>
        <pt x="264" y="-288" on="1"/>
      </contour>
    </TTGlyph>
    <TTGlyph name="SF250000" xMin="0" yMin="-288" xMax="408" yMax="360">
      <contour>
        <pt x="192" y="144" on="1"/>
        <pt x="0" y="144" on="1"/>
        <pt x="0" y="216" on="1"/>
        <pt x="264" y="216" on="1"/>
        <pt x="264" y="-288" on="1"/>
        <pt x="192" y="-288" on="1"/>
      </contour>
      <contour>
        <pt x="336" y="-288" on="1"/>
        <pt x="336" y="288" on="1"/>
        <pt x="0" y="288" on="1"/>
        <pt x="0" y="360" on="1"/>
        <pt x="408" y="360" on="1"/>
        <pt x="408" y="-288" on="1"/>
      </contour>
    </TTGlyph>
    <TTGlyph name="SF260000" xMin="0" yMin="144" xMax="408" yMax="792">
      <contour>
        <pt x="264" y="288" on="1"/>
        <pt x="0" y="288" on="1"/>
        <pt x="0" y="360" on="1"/>
        <pt x="192" y="360" on="1"/>
        <pt x="192" y="792" on="1"/>
        <pt x="264" y="792" on="1"/>
      </contour>
      <contour>
        <pt x="336" y="216" on="1"/>
        <pt x="336" y="792" on="1"/>
        <pt x="408" y="792" on="1"/>
        <pt x="408" y="144" on="1"/>
        <pt x="0" y="144" on="1"/>
        <pt x="0" y="216" on="1"/>
      </contour>
    </TTGlyph>
    <TTGlyph name="SF270000" xMin="0" yMin="216" xMax="408" yMax="792">
      <contour>
        <pt x="264" y="288" on="1"/>
        <pt x="336" y="288" on="1"/>
        <pt x="336" y="792" on="1"/>
        <pt x="408" y="792" on="1"/>
        <pt x="408" y="216" on="1"/>
        <pt x="0" y="216" on="1"/>
        <pt x="0" y="288" on="1"/>
        <pt x="192" y="288" on="1"/>
        <pt x="192" y="792" on="1"/>
        <pt x="264" y="792" on="1"/>
      </contour>
    </TTGlyph>
    <TTGlyph name="SF280000" xMin="0" yMin="144" xMax="336" yMax="792">
      <contour>
        <pt x="336" y="792" on="1"/>
        <pt x="336" y="144" on="1"/>
        <pt x="0" y="144" on="1"/>
        <pt x="0" y="216" on="1"/>
        <pt x="264" y="216" on="1"/>
        <pt x="264" y="288" on="1"/>
        <pt x="0" y="288" on="1"/>
        <pt x="0" y="360" on="1"/>
        <pt x="264" y="360" on="1"/>
        <pt x="264" y="792" on="1"/>
      </contour>
    </TTGlyph>
    <TTGlyph name="SF360000" xMin="264" yMin="-288" xMax="600" yMax="792">
      <contour>
        <pt x="264" y="-288" on="1"/>
        <pt x="264" y="792" on="1"/>
        <pt x="336" y="792" on="1"/>
        <pt x="336" y="360" on="1"/>
        <pt x="600" y="360" on="1"/>
        <pt x="600" y="288" on="1"/>
        <pt x="336" y="288" on="1"/>
        <pt x="336" y="216" on="1"/>
        <pt x="600" y="216" on="1"/>
        <pt x="600" y="144" on="1"/>
        <pt x="336" y="144" on="1"/>
        <pt x="336" y="-288" on="1"/>
      </contour>
    </TTGlyph>
    <TTGlyph name="SF370000" xMin="192" yMin="-288" xMax="600" yMax="792">
      <contour>
        <pt x="336" y="792" on="1"/>
        <pt x="408" y="792" on="1"/>
        <pt x="408" y="288" on="1"/>
        <pt x="600" y="288" on="1"/>
        <pt x="600" y="216" on="1"/>
        <pt x="408" y="216" on="1"/>
        <pt x="408" y="-288" on="1"/>
        <pt x="336" y="-288" on="1"/>
      </contour>
      <contour>
        <pt x="192" y="-288" on="1"/>
        <pt x="192" y="792" on="1"/>
        <pt x="264" y="792" on="1"/>
        <pt x="264" y="-288" on="1"/>
      </contour>
    </TTGlyph>
    <TTGlyph name="SF380000" xMin="192" yMin="144" xMax="600" yMax="792">
      <contour>
        <pt x="336" y="288" on="1"/>
        <pt x="336" y="792" on="1"/>
        <pt x="408" y="792" on="1"/>
        <pt x="408" y="360" on="1"/>
        <pt x="600" y="360" on="1"/>
        <pt x="600" y="288" on="1"/>
      </contour>
      <contour>
        <pt x="264" y="216" on="1"/>
        <pt x="600" y="216" on="1"/>
        <pt x="600" y="144" on="1"/>
        <pt x="192" y="144" on="1"/>
        <pt x="192" y="792" on="1"/>
        <pt x="264" y="792" on="1"/>
      </contour>
    </TTGlyph>
    <TTGlyph name="SF390000" xMin="192" yMin="-288" xMax="600" yMax="360">
      <contour>
        <pt x="336" y="216" on="1"/>
        <pt x="600" y="216" on="1"/>
        <pt x="600" y="144" on="1"/>
        <pt x="408" y="144" on="1"/>
        <pt x="408" y="-288" on="1"/>
        <pt x="336" y="-288" on="1"/>
      </contour>
      <contour>
        <pt x="264" y="288" on="1"/>
        <pt x="264" y="-288" on="1"/>
        <pt x="192" y="-288" on="1"/>
        <pt x="192" y="360" on="1"/>
        <pt x="600" y="360" on="1"/>
        <pt x="600" y="288" on="1"/>
      </contour>
    </TTGlyph>
    <TTGlyph name="SF400000" xMin="0" yMin="144" xMax="600" yMax="792">
      <contour>
        <pt x="600" y="288" on="1"/>
        <pt x="336" y="288" on="1"/>
        <pt x="336" y="792" on="1"/>
        <pt x="408" y="792" on="1"/>
        <pt x="408" y="360" on="1"/>
        <pt x="600" y="360" on="1"/>
      </contour>
      <contour>
        <pt x="0" y="288" on="1"/>
        <pt x="0" y="360" on="1"/>
        <pt x="192" y="360" on="1"/>
        <pt x="192" y="792" on="1"/>
        <pt x="264" y="792" on="1"/>
        <pt x="264" y="288" on="1"/>
      </contour>
      <contour>
        <pt x="600" y="216" on="1"/>
        <pt x="600" y="144" on="1"/>
        <pt x="0" y="144" on="1"/>
        <pt x="0" y="216" on="1"/>
      </contour>
    </TTGlyph>
    <TTGlyph name="SF410000" xMin="0" yMin="-288" xMax="600" yMax="360">
      <contour>
        <pt x="408" y="-288" on="1"/>
        <pt x="336" y="-288" on="1"/>
        <pt x="336" y="216" on="1"/>
        <pt x="600" y="216" on="1"/>
        <pt x="600" y="144" on="1"/>
        <pt x="408" y="144" on="1"/>
      </contour>
      <contour>
        <pt x="0" y="216" on="1"/>
        <pt x="264" y="216" on="1"/>
        <pt x="264" y="-288" on="1"/>
        <pt x="192" y="-288" on="1"/>
        <pt x="192" y="144" on="1"/>
        <pt x="0" y="144" on="1"/>
      </contour>
      <contour>
        <pt x="600" y="288" on="1"/>
        <pt x="0" y="288" on="1"/>
        <pt x="0" y="360" on="1"/>
        <pt x="600" y="360" on="1"/>
      </contour>
    </TTGlyph>
    <TTGlyph name="SF420000" xMin="192" yMin="-288" xMax="600" yMax="792">
      <contour>
        <pt x="192" y="-288" on="1"/>
        <pt x="192" y="792" on="1"/>
        <pt x="264" y="792" on="1"/>
        <pt x="264" y="-288" on="1"/>
      </contour>
      <contour>
        <pt x="336" y="216" on="1"/>
        <pt x="600" y="216" on="1"/>
        <pt x="600" y="144" on="1"/>
        <pt x="408" y="144" on="1"/>
        <pt x="408" y="-288" on="1"/>
        <pt x="336" y="-288" on="1"/>
      </contour>
      <contour>
        <pt x="336" y="288" on="1"/>
        <pt x="336" y="792" on="1"/>
        <pt x="408" y="792" on="1"/>
        <pt x="408" y="360" on="1"/>
        <pt x="600" y="360" on="1"/>
        <pt x="600" y="288" on="1"/>
      </contour>
    </TTGlyph>
    <TTGlyph name="SF430000" xMin="0" yMin="144" xMax="600" yMax="360">
      <contour>
        <pt x="600" y="360" on="1"/>
        <pt x="600" y="288" on="1"/>
        <pt x="0" y="288" on="1"/>
        <pt x="0" y="360" on="1"/>
      </contour>
      <contour>
        <pt x="600" y="216" on="1"/>
        <pt x="600" y="144" on="1"/>
        <pt x="0" y="144" on="1"/>
        <pt x="0" y="216" on="1"/>
      </contour>
    </TTGlyph>
    <TTGlyph name="SF440000" xMin="0" yMin="-288" xMax="600" yMax="792">
      <contour>
        <pt x="264" y="216" on="1"/>
        <pt x="264" y="-288" on="1"/>
        <pt x="192" y="-288" on="1"/>
        <pt x="192" y="144" on="1"/>
        <pt x="0" y="144" on="1"/>
        <pt x="0" y="216" on="1"/>
      </contour>
      <contour>
        <pt x="264" y="288" on="1"/>
        <pt x="0" y="288" on="1"/>
        <pt x="0" y="360" on="1"/>
        <pt x="192" y="360" on="1"/>
        <pt x="192" y="792" on="1"/>
        <pt x="264" y="792" on="1"/>
      </contour>
      <contour>
        <pt x="336" y="216" on="1"/>
        <pt x="600" y="216" on="1"/>
        <pt x="600" y="144" on="1"/>
        <pt x="408" y="144" on="1"/>
        <pt x="408" y="-288" on="1"/>
        <pt x="336" y="-288" on="1"/>
      </contour>
      <contour>
        <pt x="336" y="288" on="1"/>
        <pt x="336" y="792" on="1"/>
        <pt x="408" y="792" on="1"/>
        <pt x="408" y="360" on="1"/>
        <pt x="600" y="360" on="1"/>
        <pt x="600" y="288" on="1"/>
      </contour>
    </TTGlyph>
    <TTGlyph name="SF450000" xMin="0" yMin="144" xMax="600" yMax="792">
      <contour>
        <pt x="336" y="360" on="1"/>
        <pt x="600" y="360" on="1"/>
        <pt x="600" y="288" on="1"/>
        <pt x="0" y="288" on="1"/>
        <pt x="0" y="360" on="1"/>
        <pt x="264" y="360" on="1"/>
        <pt x="264" y="792" on="1"/>
        <pt x="336" y="792" on="1"/>
      </contour>
      <contour>
        <pt x="600" y="144" on="1"/>
        <pt x="0" y="144" on="1"/>
        <pt x="0" y="216" on="1"/>
        <pt x="600" y="216" on="1"/>
      </contour>
    </TTGlyph>
    <TTGlyph name="SF460000" xMin="0" yMin="216" xMax="600" yMax="792">
      <contour>
        <pt x="336" y="288" on="1"/>
        <pt x="336" y="792" on="1"/>
        <pt x="408" y="792" on="1"/>
        <pt x="408" y="288" on="1"/>
        <pt x="600" y="288" on="1"/>
        <pt x="600" y="216" on="1"/>
        <pt x="0" y="216" on="1"/>
        <pt x="0" y="288" on="1"/>
        <pt x="192" y="288" on="1"/>
        <pt x="192" y="792" on="1"/>
        <pt x="264" y="792" on="1"/>
        <pt x="264" y="288" on="1"/>
      </contour>
    </TTGlyph>
    <TTGlyph name="SF470000" xMin="0" yMin="-288" xMax="600" yMax="360">
      <contour>
        <pt x="336" y="144" on="1"/>
        <pt x="336" y="-288" on="1"/>
        <pt x="264" y="-288" on="1"/>
        <pt x="264" y="144" on="1"/>
        <pt x="0" y="144" on="1"/>
        <pt x="0" y="216" on="1"/>
        <pt x="600" y="216" on="1"/>
        <pt x="600" y="144" on="1"/>
      </contour>
      <contour>
        <pt x="600" y="288" on="1"/>
        <pt x="0" y="288" on="1"/>
        <pt x="0" y="360" on="1"/>
        <pt x="600" y="360" on="1"/>
      </contour>
    </TTGlyph>
    <TTGlyph name="SF480000" xMin="0" yMin="-288" xMax="600" yMax="288">
      <contour>
        <pt x="336" y="216" on="1"/>
        <pt x="264" y="216" on="1"/>
        <pt x="264" y="-288" on="1"/>
        <pt x="192" y="-288" on="1"/>
        <pt x="192" y="216" on="1"/>
        <pt x="0" y="216" on="1"/>
        <pt x="0" y="288" on="1"/>
        <pt x="600" y="288" on="1"/>
        <pt x="600" y="216" on="1"/>
        <pt x="408" y="216" on="1"/>
        <pt x="408" y="-288" on="1"/>
        <pt x="336" y="-288" on="1"/>
      </contour>
    </TTGlyph>
    <TTGlyph name="SF490000" xMin="192" yMin="216" xMax="600" yMax="792">
      <contour>
        <pt x="336" y="288" on="1"/>
        <pt x="336" y="792" on="1"/>
        <pt x="408" y="792" on="1"/>
        <pt x="408" y="288" on="1"/>
        <pt x="600" y="288" on="1"/>
        <pt x="600" y="216" on="1"/>
        <pt x="192" y="216" on="1"/>
        <pt x="192" y="792" on="1"/>
        <pt x="264" y="792" on="1"/>
        <pt x="264" y="288" on="1"/>
      </contour>
    </TTGlyph>
    <TTGlyph name="SF500000" xMin="264" yMin="144" xMax="600" yMax="792">
      <contour>
        <pt x="264" y="792" on="1"/>
        <pt x="336" y="792" on="1"/>
        <pt x="336" y="360" on="1"/>
        <pt x="600" y="360" on="1"/>
        <pt x="600" y="288" on="1"/>
        <pt x="336" y="288" on="1"/>
        <pt x="336" y="216" on="1"/>
        <pt x="600" y="216" on="1"/>
        <pt x="600" y="144" on="1"/>
        <pt x="264" y="144" on="1"/>
      </contour>
    </TTGlyph>
    <TTGlyph name="SF510000" xMin="264" yMin="-288" xMax="600" yMax="360">
      <contour>
        <pt x="336" y="216" on="1"/>
        <pt x="600" y="216" on="1"/>
        <pt x="600" y="144" on="1"/>
        <pt x="336" y="144" on="1"/>
        <pt x="336" y="-288" on="1"/>
        <pt x="264" y="-288" on="1"/>
        <pt x="264" y="360" on="1"/>
        <pt x="600" y="360" on="1"/>
        <pt x="600" y="288" on="1"/>
        <pt x="336" y="288" on="1"/>
      </contour>
    </TTGlyph>
    <TTGlyph name="SF520000" xMin="192" yMin="-288" xMax="600" yMax="288">
      <contour>
        <pt x="336" y="216" on="1"/>
        <pt x="264" y="216" on="1"/>
        <pt x="264" y="-288" on="1"/>
        <pt x="192" y="-288" on="1"/>
        <pt x="192" y="288" on="1"/>
        <pt x="600" y="288" on="1"/>
        <pt x="600" y="216" on="1"/>
        <pt x="408" y="216" on="1"/>
        <pt x="408" y="-288" on="1"/>
        <pt x="336" y="-288" on="1"/>
      </contour>
    </TTGlyph>
    <TTGlyph name="SF530000" xMin="0" yMin="-288" xMax="600" yMax="792">
      <contour>
        <pt x="264" y="288" on="1"/>
        <pt x="336" y="288" on="1"/>
        <pt x="336" y="792" on="1"/>
        <pt x="408" y="792" on="1"/>
        <pt x="408" y="288" on="1"/>
        <pt x="600" y="288" on="1"/>
        <pt x="600" y="216" on="1"/>
        <pt x="408" y="216" on="1"/>
        <pt x="408" y="-288" on="1"/>
        <pt x="336" y="-288" on="1"/>
        <pt x="336" y="216" on="1"/>
        <pt x="264" y="216" on="1"/>
        <pt x="264" y="-288" on="1"/>
        <pt x="192" y="-288" on="1"/>
        <pt x="192" y="216" on="1"/>
        <pt x="0" y="216" on="1"/>
        <pt x="0" y="288" on="1"/>
        <pt x="192" y="288" on="1"/>
        <pt x="192" y="792" on="1"/>
        <pt x="264" y="792" on="1"/>
      </contour>
    </TTGlyph>
    <TTGlyph name="SF540000" xMin="0" yMin="-288" xMax="600" yMax="792">
      <contour>
        <pt x="336" y="360" on="1"/>
        <pt x="600" y="360" on="1"/>
        <pt x="600" y="288" on="1"/>
        <pt x="336" y="288" on="1"/>
        <pt x="336" y="216" on="1"/>
        <pt x="600" y="216" on="1"/>
        <pt x="600" y="144" on="1"/>
        <pt x="336" y="144" on="1"/>
        <pt x="336" y="-288" on="1"/>
        <pt x="264" y="-288" on="1"/>
        <pt x="264" y="144" on="1"/>
        <pt x="0" y="144" on="1"/>
        <pt x="0" y="216" on="1"/>
        <pt x="264" y="216" on="1"/>
        <pt x="264" y="288" on="1"/>
        <pt x="0" y="288" on="1"/>
        <pt x="0" y="360" on="1"/>
        <pt x="264" y="360" on="1"/>
        <pt x="264" y="792" on="1"/>
        <pt x="336" y="792" on="1"/>
      </contour>
    </TTGlyph>
    <TTGlyph name="SF570000" xMin="0" yMin="-288" xMax="600" yMax="252">
      <contour>
        <pt x="0" y="-288" on="1"/>
        <pt x="0" y="252" on="1"/>
        <pt x="600" y="252" on="1"/>
        <pt x="600" y="-288" on="1"/>
      </contour>
    </TTGlyph>
    <TTGlyph name="SF580000" xMin="0" yMin="-288" xMax="300" yMax="792">
      <contour>
        <pt x="0" y="-288" on="1"/>
        <pt x="0" y="792" on="1"/>
        <pt x="300" y="792" on="1"/>
        <pt x="300" y="-288" on="1"/>
      </contour>
    </TTGlyph>
    <TTGlyph name="SF590000" xMin="300" yMin="-288" xMax="600" yMax="792">
      <contour>
        <pt x="300" y="-288" on="1"/>
        <pt x="300" y="792" on="1"/>
        <pt x="600" y="792" on="1"/>
        <pt x="600" y="-288" on="1"/>
      </contour>
    </TTGlyph>
    <TTGlyph name="SF600000" xMin="0" yMin="252" xMax="600" yMax="792">
      <contour>
        <pt x="0" y="252" on="1"/>
        <pt x="0" y="792" on="1"/>
        <pt x="600" y="792" on="1"/>
        <pt x="600" y="252" on="1"/>
      </contour>
    </TTGlyph>
    <TTGlyph name="SF610000" xMin="0" yMin="-288" xMax="600" yMax="792">
      <contour>
        <pt x="0" y="-288" on="1"/>
        <pt x="0" y="792" on="1"/>
        <pt x="600" y="792" on="1"/>
        <pt x="600" y="-288" on="1"/>
      </contour>
    </TTGlyph>
    <TTGlyph name="SM490000" xMin="21" yMin="0" xMax="579" yMax="670">
      <contour>
        <pt x="21" y="612" on="1"/>
        <pt x="71" y="670" on="1"/>
        <pt x="134" y="630" on="0"/>
        <pt x="237" y="597" on="0"/>
        <pt x="300" y="597" on="1"/>
        <pt x="364" y="597" on="0"/>
        <pt x="465" y="629" on="0"/>
        <pt x="531" y="670" on="1"/>
        <pt x="579" y="612" on="1"/>
        <pt x="516" y="472" on="0"/>
        <pt x="517" y="334" on="1"/>
        <pt x="519" y="183" on="0"/>
        <pt x="579" y="59" on="1"/>
        <pt x="531" y="0" on="1"/>
        <pt x="427" y="72" on="0"/>
        <pt x="305" y="72" on="1"/>
        <pt x="180" y="72" on="0"/>
        <pt x="71" y="0" on="1"/>
        <pt x="21" y="59" on="1"/>
        <pt x="83" y="185" on="0"/>
        <pt x="83" y="334" on="1"/>
        <pt x="83" y="473" on="0"/>
      </contour>
      <contour>
        <pt x="100" y="588" on="1"/>
        <pt x="114" y="535" on="1"/>
        <pt x="147" y="443" on="0"/>
        <pt x="147" y="334" on="1"/>
        <pt x="147" y="230" on="0"/>
        <pt x="115" y="135" on="1"/>
        <pt x="100" y="81" on="1"/>
        <pt x="203" y="136" on="0"/>
        <pt x="298" y="136" on="1"/>
        <pt x="399" y="136" on="0"/>
        <pt x="499" y="81" on="1"/>
        <pt x="484" y="135" on="1"/>
        <pt x="453" y="245" on="0"/>
        <pt x="453" y="334" on="1"/>
        <pt x="453" y="450" on="0"/>
        <pt x="483" y="535" on="1"/>
        <pt x="501" y="586" on="1"/>
        <pt x="499" y="588" on="1"/>
        <pt x="417" y="533" on="0"/>
        <pt x="298" y="533" on="1"/>
        <pt x="198" y="533" on="0"/>
      </contour>
    </TTGlyph>
    <TTGlyph name="SM570001" xMin="61" yMin="0" xMax="539" yMax="479">
      <contour>
        <pt x="61" y="0" on="1"/>
        <pt x="61" y="479" on="1"/>
        <pt x="539" y="479" on="1"/>
        <pt x="539" y="0" on="1"/>
      </contour>
      <contour>
        <pt x="341" y="338" on="0"/>
        <pt x="259" y="338" on="0"/>
        <pt x="201" y="280" on="0"/>
        <pt x="201" y="239" on="1"/>
        <pt x="201" y="199" on="0"/>
        <pt x="259" y="141" on="0"/>
        <pt x="341" y="141" on="0"/>
        <pt x="399" y="199" on="0"/>
        <pt x="399" y="239" on="1"/>
        <pt x="399" y="280" on="0"/>
      </contour>
    </TTGlyph>
    <TTGlyph name="SM580000" xMin="85" yMin="67" xMax="515" yMax="497">
      <contour>
        <pt x="211" y="497" on="0"/>
        <pt x="389" y="497" on="0"/>
        <pt x="515" y="371" on="0"/>
        <pt x="515" y="193" on="0"/>
        <pt x="389" y="67" on="0"/>
        <pt x="211" y="67" on="0"/>
        <pt x="85" y="193" on="0"/>
        <pt x="85" y="371" on="0"/>
      </contour>
    </TTGlyph>
    <TTGlyph name="SM590000" xMin="40" yMin="83" xMax="600" yMax="480">
      <contour>
        <pt x="40" y="83" on="1"/>
        <pt x="40" y="480" on="1"/>
        <pt x="600" y="282" on="1"/>
      </contour>
    </TTGlyph>
    <TTGlyph name="SM600000" xMin="102" yMin="95" xMax="498" yMax="466">
      <contour>
        <pt x="102" y="95" on="1"/>
        <pt x="300" y="466" on="1"/>
        <pt x="498" y="95" on="1"/>
      </contour>
    </TTGlyph>
    <TTGlyph name="SM630000" xMin="0" yMin="83" xMax="560" yMax="480">
      <contour>
        <pt x="560" y="83" on="1"/>
        <pt x="0" y="282" on="1"/>
        <pt x="560" y="480" on="1"/>
      </contour>
    </TTGlyph>
    <TTGlyph name="SM680000" xMin="153" yMin="163" xMax="607" yMax="462">
      <contour>
        <pt x="607" y="462" on="1"/>
        <pt x="607" y="373" on="1"/>
        <pt x="242" y="373" on="1"/>
        <pt x="242" y="163" on="1"/>
        <pt x="153" y="163" on="1"/>
        <pt x="153" y="462" on="1"/>
      </contour>
    </TTGlyph>
    <TTGlyph name="SM690000" xMin="6" yMin="-13" xMax="594" yMax="576">
      <contour>
        <pt x="137" y="404" on="1"/>
        <pt x="71" y="469" on="1"/>
        <pt x="113" y="510" on="1"/>
        <pt x="179" y="444" on="1"/>
        <pt x="193" y="458" on="0"/>
        <pt x="251" y="482" on="0"/>
        <pt x="271" y="482" on="1"/>
        <pt x="271" y="576" on="1"/>
        <pt x="329" y="576" on="1"/>
        <pt x="329" y="482" on="1"/>
        <pt x="349" y="482" on="0"/>
        <pt x="403" y="459" on="0"/>
        <pt x="421" y="444" on="1"/>
        <pt x="488" y="510" on="1"/>
        <pt x="529" y="469" on="1"/>
        <pt x="463" y="403" on="1"/>
        <pt x="477" y="389" on="0"/>
        <pt x="500" y="332" on="0"/>
        <pt x="500" y="311" on="1"/>
        <pt x="594" y="311" on="1"/>
        <pt x="594" y="253" on="1"/>
        <pt x="500" y="253" on="1"/>
        <pt x="500" y="206" on="0"/>
        <pt x="463" y="160" on="1"/>
        <pt x="529" y="94" on="1"/>
        <pt x="488" y="53" on="1"/>
        <pt x="421" y="119" on="1"/>
        <pt x="409" y="107" on="0"/>
        <pt x="351" y="82" on="0"/>
        <pt x="329" y="81" on="1"/>
        <pt x="329" y="-13" on="1"/>
        <pt x="271" y="-13" on="1"/>
        <pt x="271" y="82" on="1"/>
        <pt x="214" y="82" on="0"/>
        <pt x="179" y="119" on="1"/>
        <pt x="113" y="53" on="1"/>
        <pt x="71" y="94" on="1"/>
        <pt x="138" y="160" on="1"/>
        <pt x="123" y="175" on="0"/>
        <pt x="101" y="231" on="0"/>
        <pt x="101" y="253" on="1"/>
        <pt x="6" y="253" on="1"/>
        <pt x="6" y="311" on="1"/>
        <pt x="101" y="311" on="1"/>
        <pt x="101" y="329" on="0"/>
        <pt x="124" y="388" on="0"/>
      </contour>
      <contour>
        <pt x="356" y="416" on="0"/>
        <pt x="244" y="416" on="0"/>
        <pt x="167" y="338" on="0"/>
        <pt x="167" y="283" on="1"/>
        <pt x="167" y="227" on="0"/>
        <pt x="245" y="148" on="0"/>
        <pt x="355" y="148" on="0"/>
        <pt x="434" y="227" on="0"/>
        <pt x="434" y="283" on="1"/>
        <pt x="434" y="338" on="0"/>
      </contour>
    </TTGlyph>
    <TTGlyph name="SM700000" xMin="7" yMin="149" xMax="593" yMax="328">
      <contour>
        <pt x="7" y="149" on="1"/>
        <pt x="7" y="328" on="1"/>
        <pt x="593" y="328" on="1"/>
        <pt x="593" y="149" on="1"/>
      </contour>
    </TTGlyph>
    <TTGlyph name="SM750000" xMin="83" yMin="65" xMax="517" yMax="499">
      <contour>
        <pt x="210" y="499" on="0"/>
        <pt x="390" y="499" on="0"/>
        <pt x="517" y="372" on="0"/>
        <pt x="517" y="192" on="0"/>
        <pt x="389" y="65" on="0"/>
        <pt x="211" y="65" on="0"/>
        <pt x="83" y="192" on="0"/>
        <pt x="83" y="372" on="0"/>
      </contour>
      <contour>
        <pt x="300" y="449" on="1"/>
        <pt x="231" y="449" on="0"/>
        <pt x="133" y="351" on="0"/>
        <pt x="133" y="282" on="1"/>
        <pt x="133" y="214" on="0"/>
        <pt x="231" y="115" on="0"/>
        <pt x="369" y="115" on="0"/>
        <pt x="467" y="214" on="0"/>
        <pt x="467" y="282" on="1"/>
        <pt x="467" y="351" on="0"/>
        <pt x="368" y="449" on="0"/>
      </contour>
    </TTGlyph>
    <TTGlyph name="SM750002" xMin="18" yMin="0" xMax="582" yMax="564">
      <contour>
        <pt x="390" y="499" on="0"/>
        <pt x="210" y="499" on="0"/>
        <pt x="83" y="372" on="0"/>
        <pt x="83" y="192" on="0"/>
        <pt x="211" y="65" on="0"/>
        <pt x="389" y="65" on="0"/>
        <pt x="517" y="192" on="0"/>
        <pt x="517" y="372" on="0"/>
      </contour>
      <contour>
        <pt x="18" y="0" on="1"/>
        <pt x="18" y="564" on="1"/>
        <pt x="582" y="564" on="1"/>
        <pt x="582" y="0" on="1"/>
      </contour>
      <contour>
        <pt x="300" y="449" on="1"/>
        <pt x="368" y="449" on="0"/>
        <pt x="467" y="351" on="0"/>
        <pt x="467" y="282" on="1"/>
        <pt x="467" y="214" on="0"/>
        <pt x="369" y="115" on="0"/>
        <pt x="231" y="115" on="0"/>
        <pt x="133" y="214" on="0"/>
        <pt x="133" y="282" on="1"/>
        <pt x="133" y="351" on="0"/>
        <pt x="231" y="449" on="0"/>
      </contour>
    </TTGlyph>
    <TTGlyph name="SM760000" xMin="163" yMin="15" xMax="430" yMax="607">
      <contour>
        <pt x="326" y="462" on="1"/>
        <pt x="326" y="161" on="1"/>
        <pt x="390" y="201" on="0"/>
        <pt x="411" y="201" on="1"/>
        <pt x="417" y="201" on="0"/>
        <pt x="430" y="191" on="0"/>
        <pt x="430" y="180" on="1"/>
        <pt x="430" y="173" on="0"/>
        <pt x="421" y="161" on="0"/>
        <pt x="400" y="143" on="1"/>
        <pt x="362" y="110" on="0"/>
        <pt x="322" y="39" on="1"/>
        <pt x="314" y="25" on="0"/>
        <pt x="305" y="15" on="0"/>
        <pt x="298" y="15" on="1"/>
        <pt x="290" y="15" on="0"/>
        <pt x="281" y="25" on="0"/>
        <pt x="265" y="50" on="1"/>
        <pt x="238" y="94" on="0"/>
        <pt x="207" y="131" on="0"/>
        <pt x="176" y="158" on="1"/>
        <pt x="163" y="170" on="0"/>
        <pt x="163" y="180" on="1"/>
        <pt x="163" y="191" on="0"/>
        <pt x="176" y="201" on="0"/>
        <pt x="182" y="201" on="1"/>
        <pt x="207" y="201" on="0"/>
        <pt x="266" y="161" on="1"/>
        <pt x="266" y="462" on="1"/>
        <pt x="209" y="422" on="0"/>
        <pt x="182" y="422" on="1"/>
        <pt x="176" y="422" on="0"/>
        <pt x="163" y="433" on="0"/>
        <pt x="163" y="442" on="1"/>
        <pt x="163" y="449" on="0"/>
        <pt x="170" y="458" on="0"/>
        <pt x="189" y="475" on="1"/>
        <pt x="234" y="517" on="0"/>
        <pt x="275" y="589" on="1"/>
        <pt x="286" y="607" on="0"/>
        <pt x="298" y="607" on="1"/>
        <pt x="305" y="607" on="0"/>
        <pt x="314" y="596" on="0"/>
        <pt x="331" y="569" on="1"/>
        <pt x="346" y="544" on="0"/>
        <pt x="362" y="522" on="0"/>
        <pt x="394" y="483" on="0"/>
        <pt x="413" y="468" on="1"/>
        <pt x="430" y="453" on="0"/>
        <pt x="430" y="433" on="0"/>
        <pt x="418" y="422" on="0"/>
        <pt x="412" y="422" on="1"/>
        <pt x="389" y="422" on="0"/>
      </contour>
    </TTGlyph>
    <TTGlyph name="SM770000" xMin="163" yMin="-97" xMax="430" yMax="607">
      <contour>
        <pt x="185" y="-37" on="1"/>
        <pt x="418" y="-37" on="1"/>
        <pt x="418" y="-97" on="1"/>
        <pt x="185" y="-97" on="1"/>
      </contour>
      <contour>
        <pt x="326" y="462" on="1"/>
        <pt x="326" y="161" on="1"/>
        <pt x="390" y="201" on="0"/>
        <pt x="411" y="201" on="1"/>
        <pt x="417" y="201" on="0"/>
        <pt x="430" y="191" on="0"/>
        <pt x="430" y="180" on="1"/>
        <pt x="430" y="173" on="0"/>
        <pt x="421" y="161" on="0"/>
        <pt x="400" y="143" on="1"/>
        <pt x="362" y="110" on="0"/>
        <pt x="322" y="39" on="1"/>
        <pt x="314" y="25" on="0"/>
        <pt x="305" y="15" on="0"/>
        <pt x="298" y="15" on="1"/>
        <pt x="290" y="15" on="0"/>
        <pt x="281" y="25" on="0"/>
        <pt x="265" y="50" on="1"/>
        <pt x="238" y="94" on="0"/>
        <pt x="207" y="131" on="0"/>
        <pt x="176" y="158" on="1"/>
        <pt x="163" y="170" on="0"/>
        <pt x="163" y="180" on="1"/>
        <pt x="163" y="191" on="0"/>
        <pt x="176" y="201" on="0"/>
        <pt x="182" y="201" on="1"/>
        <pt x="207" y="201" on="0"/>
        <pt x="266" y="161" on="1"/>
        <pt x="266" y="462" on="1"/>
        <pt x="209" y="422" on="0"/>
        <pt x="182" y="422" on="1"/>
        <pt x="176" y="422" on="0"/>
        <pt x="163" y="433" on="0"/>
        <pt x="163" y="442" on="1"/>
        <pt x="163" y="449" on="0"/>
        <pt x="170" y="458" on="0"/>
        <pt x="189" y="475" on="1"/>
        <pt x="234" y="517" on="0"/>
        <pt x="275" y="589" on="1"/>
        <pt x="286" y="607" on="0"/>
        <pt x="298" y="607" on="1"/>
        <pt x="305" y="607" on="0"/>
        <pt x="314" y="596" on="0"/>
        <pt x="331" y="569" on="1"/>
        <pt x="346" y="544" on="0"/>
        <pt x="362" y="522" on="0"/>
        <pt x="394" y="483" on="0"/>
        <pt x="413" y="468" on="1"/>
        <pt x="430" y="453" on="0"/>
        <pt x="430" y="433" on="0"/>
        <pt x="418" y="422" on="0"/>
        <pt x="412" y="422" on="1"/>
        <pt x="389" y="422" on="0"/>
      </contour>
    </TTGlyph>
    <TTGlyph name="SM790000" xMin="73" yMin="0" xMax="527" yMax="567">
      <contour>
        <pt x="73" y="0" on="1"/>
        <pt x="73" y="312" on="1"/>
        <pt x="300" y="567" on="1"/>
        <pt x="527" y="312" on="1"/>
        <pt x="527" y="0" on="1"/>
      </contour>
      <contour>
        <pt x="126" y="290" on="1"/>
        <pt x="126" y="53" on="1"/>
        <pt x="474" y="53" on="1"/>
        <pt x="474" y="290" on="1"/>
        <pt x="300" y="485" on="1"/>
      </contour>
    </TTGlyph>
    <TTGlyph name="SP500000" xMin="18" yMin="0" xMax="582" yMax="564">
      <contour>
        <pt x="265" y="282" on="1"/>
        <pt x="118" y="430" on="1"/>
        <pt x="154" y="464" on="1"/>
        <pt x="300" y="317" on="1"/>
        <pt x="446" y="464" on="1"/>
        <pt x="482" y="430" on="1"/>
        <pt x="335" y="282" on="1"/>
        <pt x="482" y="136" on="1"/>
        <pt x="446" y="100" on="1"/>
        <pt x="300" y="247" on="1"/>
        <pt x="154" y="100" on="1"/>
        <pt x="118" y="136" on="1"/>
      </contour>
      <contour>
        <pt x="18" y="0" on="1"/>
        <pt x="18" y="564" on="1"/>
        <pt x="582" y="564" on="1"/>
        <pt x="582" y="0" on="1"/>
      </contour>
      <contour>
        <pt x="75" y="507" on="1"/>
        <pt x="75" y="57" on="1"/>
        <pt x="525" y="57" on="1"/>
        <pt x="525" y="507" on="1"/>
      </contour>
    </TTGlyph>
    <TTGlyph name="SS000000" xMin="18" yMin="0" xMax="582" yMax="563">
      <contour>
        <pt x="300" y="563" on="1"/>
        <pt x="416" y="563" on="0"/>
        <pt x="582" y="398" on="0"/>
        <pt x="582" y="282" on="1"/>
        <pt x="582" y="165" on="0"/>
        <pt x="416" y="0" on="0"/>
        <pt x="184" y="0" on="0"/>
        <pt x="18" y="165" on="0"/>
        <pt x="18" y="282" on="1"/>
        <pt x="18" y="398" on="0"/>
        <pt x="183" y="563" on="0"/>
      </contour>
      <contour>
        <pt x="401" y="525" on="0"/>
        <pt x="199" y="525" on="0"/>
        <pt x="56" y="383" on="0"/>
        <pt x="56" y="181" on="0"/>
        <pt x="199" y="38" on="0"/>
        <pt x="401" y="38" on="0"/>
        <pt x="544" y="181" on="0"/>
        <pt x="544" y="383" on="0"/>
      </contour>
      <contour>
        <pt x="200" y="399" on="0"/>
        <pt x="232" y="399" on="0"/>
        <pt x="255" y="376" on="0"/>
        <pt x="255" y="344" on="0"/>
        <pt x="232" y="321" on="0"/>
        <pt x="200" y="321" on="0"/>
        <pt x="177" y="344" on="0"/>
        <pt x="177" y="376" on="0"/>
      </contour>
      <contour>
        <pt x="368" y="399" on="0"/>
        <pt x="400" y="399" on="0"/>
        <pt x="423" y="376" on="0"/>
        <pt x="423" y="359" on="1"/>
        <pt x="423" y="343" on="0"/>
        <pt x="401" y="321" on="0"/>
        <pt x="384" y="321" on="1"/>
        <pt x="368" y="321" on="0"/>
        <pt x="345" y="343" on="0"/>
        <pt x="345" y="375" on="0"/>
      </contour>
      <contour>
        <pt x="483" y="316" on="1"/>
        <pt x="479" y="262" on="0"/>
        <pt x="460" y="200" on="0"/>
        <pt x="438" y="172" on="1"/>
        <pt x="390" y="110" on="0"/>
        <pt x="300" y="110" on="1"/>
        <pt x="202" y="110" on="0"/>
        <pt x="154" y="184" on="1"/>
        <pt x="123" y="231" on="0"/>
        <pt x="117" y="316" on="1"/>
        <pt x="128" y="268" on="0"/>
        <pt x="154" y="238" on="1"/>
        <pt x="208" y="175" on="0"/>
        <pt x="300" y="175" on="1"/>
        <pt x="393" y="175" on="0"/>
        <pt x="447" y="238" on="1"/>
        <pt x="472" y="266" on="0"/>
      </contour>
    </TTGlyph>
    <TTGlyph name="SS010000" xMin="18" yMin="0" xMax="582" yMax="563">
      <contour>
        <pt x="300" y="563" on="1"/>
        <pt x="416" y="563" on="0"/>
        <pt x="582" y="398" on="0"/>
        <pt x="582" y="282" on="1"/>
        <pt x="582" y="165" on="0"/>
        <pt x="416" y="0" on="0"/>
        <pt x="184" y="0" on="0"/>
        <pt x="18" y="165" on="0"/>
        <pt x="18" y="282" on="1"/>
        <pt x="18" y="398" on="0"/>
        <pt x="183" y="563" on="0"/>
      </contour>
      <contour>
        <pt x="213" y="403" on="1"/>
        <pt x="195" y="403" on="0"/>
        <pt x="170" y="378" on="0"/>
        <pt x="170" y="361" on="1"/>
        <pt x="170" y="343" on="0"/>
        <pt x="195" y="318" on="0"/>
        <pt x="213" y="318" on="1"/>
        <pt x="230" y="318" on="0"/>
        <pt x="255" y="343" on="0"/>
        <pt x="255" y="361" on="1"/>
        <pt x="255" y="378" on="0"/>
        <pt x="230" y="403" on="0"/>
      </contour>
      <contour>
        <pt x="391" y="403" on="1"/>
        <pt x="374" y="403" on="0"/>
        <pt x="349" y="378" on="0"/>
        <pt x="349" y="360" on="1"/>
        <pt x="349" y="343" on="0"/>
        <pt x="374" y="318" on="0"/>
        <pt x="391" y="318" on="1"/>
        <pt x="409" y="318" on="0"/>
        <pt x="434" y="343" on="0"/>
        <pt x="434" y="360" on="1"/>
        <pt x="434" y="378" on="0"/>
        <pt x="409" y="403" on="0"/>
      </contour>
      <contour>
        <pt x="483" y="316" on="1"/>
        <pt x="483" y="314" on="1"/>
        <pt x="481" y="316" on="1"/>
        <pt x="474" y="269" on="0"/>
        <pt x="447" y="238" on="1"/>
        <pt x="393" y="175" on="0"/>
        <pt x="300" y="175" on="1"/>
        <pt x="208" y="175" on="0"/>
        <pt x="154" y="238" on="1"/>
        <pt x="128" y="268" on="0"/>
        <pt x="119" y="316" on="1"/>
        <pt x="117" y="314" on="1"/>
        <pt x="123" y="231" on="0"/>
        <pt x="154" y="184" on="1"/>
        <pt x="202" y="110" on="0"/>
        <pt x="300" y="110" on="1"/>
        <pt x="389" y="110" on="0"/>
        <pt x="439" y="172" on="1"/>
        <pt x="461" y="199" on="0"/>
        <pt x="479" y="261" on="0"/>
      </contour>
    </TTGlyph>
    <TTGlyph name="SS260000" xMin="239" yMin="-243" xMax="563" yMax="839">
      <contour>
        <pt x="361" y="-243" on="1"/>
        <pt x="239" y="-243" on="1"/>
        <pt x="239" y="518" on="1"/>
        <pt x="239" y="601" on="0"/>
        <pt x="279" y="730" on="0"/>
        <pt x="344" y="803" on="0"/>
        <pt x="418" y="839" on="0"/>
        <pt x="457" y="839" on="1"/>
        <pt x="489" y="839" on="0"/>
        <pt x="535" y="819" on="0"/>
        <pt x="555" y="789" on="0"/>
        <pt x="563" y="764" on="0"/>
        <pt x="563" y="753" on="1"/>
        <pt x="563" y="719" on="0"/>
        <pt x="520" y="678" on="0"/>
        <pt x="490" y="678" on="1"/>
        <pt x="469" y="678" on="0"/>
        <pt x="435" y="697" on="0"/>
        <pt x="423" y="711" on="0"/>
        <pt x="413" y="726" on="1"/>
        <pt x="399" y="747" on="0"/>
        <pt x="386" y="747" on="1"/>
        <pt x="371" y="747" on="0"/>
        <pt x="361" y="703" on="0"/>
        <pt x="361" y="631" on="1"/>
      </contour>
    </TTGlyph>
    <TTGlyph name="SS270000" xMin="38" yMin="-243" xMax="361" yMax="839">
      <contour>
        <pt x="239" y="839" on="1"/>
        <pt x="361" y="839" on="1"/>
        <pt x="361" y="78" on="1"/>
        <pt x="361" y="-5" on="0"/>
        <pt x="321" y="-134" on="0"/>
        <pt x="255" y="-207" on="0"/>
        <pt x="181" y="-243" on="0"/>
        <pt x="143" y="-243" on="1"/>
        <pt x="111" y="-243" on="0"/>
        <pt x="66" y="-223" on="0"/>
        <pt x="46" y="-193" on="0"/>
        <pt x="38" y="-168" on="0"/>
        <pt x="38" y="-157" on="1"/>
        <pt x="38" y="-122" on="0"/>
        <pt x="80" y="-82" on="0"/>
        <pt x="110" y="-82" on="1"/>
        <pt x="156" y="-82" on="0"/>
        <pt x="187" y="-129" on="1"/>
        <pt x="199" y="-151" on="0"/>
        <pt x="213" y="-151" on="1"/>
        <pt x="228" y="-151" on="0"/>
        <pt x="239" y="-107" on="0"/>
        <pt x="239" y="-35" on="1"/>
      </contour>
    </TTGlyph>
    <TTGlyph name="SV040000" xMin="102" yMin="96" xMax="498" yMax="467">
      <contour>
        <pt x="102" y="467" on="1"/>
        <pt x="498" y="467" on="1"/>
        <pt x="300" y="96" on="1"/>
      </contour>
    </TTGlyph>
    <TTGlyph name="Sacute" xMin="49" yMin="-18" xMax="645" yMax="772">
      <component glyphName="S" x="0" y="0" flags="0x1004"/>
      <component glyphName="acute" x="30" y="130" flags="0x1004"/>
    </TTGlyph>
    <TTGlyph name="Scaron" xMin="49" yMin="-18" xMax="645" yMax="782">
      <component glyphName="S" x="0" y="0" flags="0x1004"/>
      <component glyphName="caron" x="30" y="130" flags="0x1004"/>
    </TTGlyph>
    <TTGlyph name="Scedilla" xMin="49" yMin="-170" xMax="645" yMax="606">
      <contour>
        <pt x="333" y="-13" on="1"/>
        <pt x="331" y="-18" on="1"/>
        <pt x="391" y="-34" on="0"/>
        <pt x="391" y="-83" on="1"/>
        <pt x="391" y="-113" on="0"/>
        <pt x="337" y="-170" on="0"/>
        <pt x="278" y="-170" on="1"/>
        <pt x="218" y="-170" on="0"/>
        <pt x="152" y="-150" on="1"/>
        <pt x="177" y="-82" on="1"/>
        <pt x="249" y="-100" on="0"/>
        <pt x="283" y="-100" on="1"/>
        <pt x="306" y="-100" on="0"/>
        <pt x="306" y="-93" on="1"/>
        <pt x="306" y="-89" on="0"/>
        <pt x="293" y="-85" on="1"/>
        <pt x="289" y="-84" on="0"/>
        <pt x="243" y="-78" on="0"/>
        <pt x="238" y="-77" on="1"/>
        <pt x="260" y="-10" on="1"/>
        <pt x="200" y="-1" on="0"/>
        <pt x="151" y="48" on="1"/>
        <pt x="131" y="-18" on="1"/>
        <pt x="49" y="-5" on="1"/>
        <pt x="75" y="63" on="0"/>
        <pt x="93" y="134" on="0"/>
        <pt x="101" y="204" on="1"/>
        <pt x="178" y="204" on="1"/>
        <pt x="178" y="148" on="0"/>
        <pt x="183" y="135" on="1"/>
        <pt x="207" y="75" on="0"/>
        <pt x="311" y="75" on="1"/>
        <pt x="384" y="75" on="0"/>
        <pt x="465" y="141" on="0"/>
        <pt x="465" y="185" on="1"/>
        <pt x="465" y="202" on="0"/>
        <pt x="452" y="225" on="0"/>
        <pt x="435" y="238" on="0"/>
        <pt x="398" y="246" on="0"/>
        <pt x="373" y="249" on="0"/>
        <pt x="347" y="251" on="1"/>
        <pt x="270" y="258" on="0"/>
        <pt x="229" y="288" on="1"/>
        <pt x="201" y="309" on="0"/>
        <pt x="168" y="377" on="0"/>
        <pt x="168" y="412" on="1"/>
        <pt x="168" y="485" on="0"/>
        <pt x="297" y="602" on="0"/>
        <pt x="401" y="602" on="1"/>
        <pt x="494" y="602" on="0"/>
        <pt x="540" y="542" on="1"/>
        <pt x="569" y="606" on="1"/>
        <pt x="645" y="583" on="1"/>
        <pt x="615" y="521" on="0"/>
        <pt x="594" y="450" on="0"/>
        <pt x="580" y="371" on="1"/>
        <pt x="504" y="383" on="1"/>
        <pt x="510" y="411" on="0"/>
        <pt x="510" y="432" on="1"/>
        <pt x="510" y="516" on="0"/>
        <pt x="405" y="516" on="1"/>
        <pt x="341" y="516" on="0"/>
        <pt x="259" y="456" on="0"/>
        <pt x="259" y="413" on="1"/>
        <pt x="259" y="394" on="0"/>
        <pt x="272" y="368" on="0"/>
        <pt x="291" y="353" on="0"/>
        <pt x="330" y="344" on="0"/>
        <pt x="360" y="340" on="0"/>
        <pt x="389" y="338" on="1"/>
        <pt x="437" y="334" on="0"/>
        <pt x="506" y="303" on="0"/>
        <pt x="541" y="258" on="0"/>
        <pt x="556" y="212" on="0"/>
        <pt x="556" y="188" on="1"/>
        <pt x="556" y="158" on="0"/>
        <pt x="532" y="95" on="0"/>
        <pt x="484" y="33" on="0"/>
        <pt x="393" y="-9" on="0"/>
      </contour>
    </TTGlyph>
    <TTGlyph name="Scircumflex" xMin="49" yMin="-18" xMax="645" yMax="782">
      <component glyphName="S" x="0" y="0" flags="0x1004"/>
      <component glyphName="circumflex" x="30" y="130" flags="0x1004"/>
    </TTGlyph>
    <TTGlyph name="Sigma" xMin="35" yMin="0" xMax="656" yMax="583">
      <contour>
        <pt x="656" y="583" on="1"/>
        <pt x="605" y="371" on="1"/>
        <pt x="526" y="371" on="1"/>
        <pt x="545" y="501" on="1"/>
        <pt x="245" y="501" on="1"/>
        <pt x="352" y="296" on="1"/>
        <pt x="158" y="82" on="1"/>
        <pt x="464" y="82" on="1"/>
        <pt x="498" y="214" on="1"/>
        <pt x="577" y="214" on="1"/>
        <pt x="535" y="0" on="1"/>
        <pt x="35" y="0" on="1"/>
        <pt x="51" y="74" on="1"/>
        <pt x="257" y="302" on="1"/>
        <pt x="147" y="511" on="1"/>
        <pt x="162" y="583" on="1"/>
      </contour>
    </TTGlyph>
    <TTGlyph name="T" xMin="103" yMin="0" xMax="673" yMax="583">
      <contour>
        <pt x="172" y="583" on="1"/>
        <pt x="673" y="583" on="1"/>
        <pt x="639" y="341" on="1"/>
        <pt x="552" y="341" on="1"/>
        <pt x="574" y="501" on="1"/>
        <pt x="448" y="501" on="1"/>
        <pt x="361" y="82" on="1"/>
        <pt x="479" y="82" on="1"/>
        <pt x="461" y="0" on="1"/>
        <pt x="139" y="0" on="1"/>
        <pt x="157" y="82" on="1"/>
        <pt x="273" y="82" on="1"/>
        <pt x="361" y="501" on="1"/>
        <pt x="236" y="501" on="1"/>
        <pt x="191" y="341" on="1"/>
        <pt x="103" y="341" on="1"/>
      </contour>
    </TTGlyph>
    <TTGlyph name="Tbar" xMin="89" yMin="0" xMax="669" yMax="583">
      <contour>
        <pt x="419" y="381" on="1"/>
        <pt x="508" y="381" on="1"/>
        <pt x="490" y="297" on="1"/>
        <pt x="401" y="297" on="1"/>
        <pt x="357" y="82" on="1"/>
        <pt x="475" y="82" on="1"/>
        <pt x="457" y="0" on="1"/>
        <pt x="135" y="0" on="1"/>
        <pt x="153" y="82" on="1"/>
        <pt x="269" y="82" on="1"/>
        <pt x="314" y="297" on="1"/>
        <pt x="227" y="297" on="1"/>
        <pt x="244" y="381" on="1"/>
        <pt x="332" y="381" on="1"/>
        <pt x="357" y="501" on="1"/>
        <pt x="227" y="501" on="1"/>
        <pt x="175" y="307" on="1"/>
        <pt x="89" y="319" on="1"/>
        <pt x="164" y="583" on="1"/>
        <pt x="669" y="583" on="1"/>
        <pt x="632" y="319" on="1"/>
        <pt x="546" y="307" on="1"/>
        <pt x="573" y="501" on="1"/>
        <pt x="444" y="501" on="1"/>
      </contour>
    </TTGlyph>
    <TTGlyph name="Tcaron" xMin="103" yMin="0" xMax="673" yMax="782">
      <component glyphName="T" x="0" y="0" flags="0x1004"/>
      <component glyphName="caron" x="30" y="130" flags="0x1004"/>
    </TTGlyph>
    <TTGlyph name="Tcedilla" xMin="103" yMin="-170" xMax="673" yMax="583">
      <contour>
        <pt x="348" y="0" on="1"/>
        <pt x="342" y="-18" on="1"/>
        <pt x="402" y="-34" on="0"/>
        <pt x="402" y="-83" on="1"/>
        <pt x="402" y="-113" on="0"/>
        <pt x="348" y="-170" on="0"/>
        <pt x="289" y="-170" on="1"/>
        <pt x="231" y="-170" on="0"/>
        <pt x="162" y="-150" on="1"/>
        <pt x="188" y="-82" on="1"/>
        <pt x="265" y="-100" on="0"/>
        <pt x="294" y="-100" on="1"/>
        <pt x="317" y="-100" on="0"/>
        <pt x="317" y="-92" on="1"/>
        <pt x="317" y="-89" on="0"/>
        <pt x="297" y="-83" on="0"/>
        <pt x="294" y="-83" on="1"/>
        <pt x="249" y="-77" on="1"/>
        <pt x="274" y="0" on="1"/>
        <pt x="139" y="0" on="1"/>
        <pt x="157" y="82" on="1"/>
        <pt x="273" y="82" on="1"/>
        <pt x="361" y="501" on="1"/>
        <pt x="236" y="501" on="1"/>
        <pt x="191" y="341" on="1"/>
        <pt x="103" y="341" on="1"/>
        <pt x="172" y="583" on="1"/>
        <pt x="673" y="583" on="1"/>
        <pt x="639" y="341" on="1"/>
        <pt x="552" y="341" on="1"/>
        <pt x="574" y="501" on="1"/>
        <pt x="448" y="501" on="1"/>
        <pt x="361" y="82" on="1"/>
        <pt x="479" y="82" on="1"/>
        <pt x="461" y="0" on="1"/>
      </contour>
    </TTGlyph>
    <TTGlyph name="Theta" xMin="79" yMin="-17" xMax="633" yMax="599">
      <contour>
        <pt x="221" y="193" on="1"/>
        <pt x="261" y="382" on="1"/>
        <pt x="333" y="382" on="1"/>
        <pt x="320" y="323" on="1"/>
        <pt x="404" y="323" on="1"/>
        <pt x="417" y="382" on="1"/>
        <pt x="489" y="382" on="1"/>
        <pt x="449" y="193" on="1"/>
        <pt x="377" y="193" on="1"/>
        <pt x="389" y="252" on="1"/>
        <pt x="305" y="252" on="1"/>
        <pt x="293" y="193" on="1"/>
      </contour>
      <contour>
        <pt x="79" y="212" on="1"/>
        <pt x="79" y="306" on="0"/>
        <pt x="163" y="483" on="0"/>
        <pt x="321" y="599" on="0"/>
        <pt x="416" y="599" on="1"/>
        <pt x="516" y="599" on="0"/>
        <pt x="633" y="464" on="0"/>
        <pt x="633" y="374" on="1"/>
        <pt x="633" y="278" on="0"/>
        <pt x="549" y="100" on="0"/>
        <pt x="392" y="-17" on="0"/>
        <pt x="298" y="-17" on="1"/>
        <pt x="195" y="-17" on="0"/>
        <pt x="79" y="120" on="0"/>
      </contour>
      <contour>
        <pt x="167" y="224" on="1"/>
        <pt x="167" y="163" on="0"/>
        <pt x="234" y="64" on="0"/>
        <pt x="306" y="64" on="1"/>
        <pt x="405" y="64" on="0"/>
        <pt x="545" y="249" on="0"/>
        <pt x="545" y="356" on="1"/>
        <pt x="545" y="422" on="0"/>
        <pt x="477" y="518" on="0"/>
        <pt x="407" y="518" on="1"/>
        <pt x="308" y="518" on="0"/>
        <pt x="167" y="335" on="0"/>
      </contour>
    </TTGlyph>
    <TTGlyph name="Thorn" xMin="75" yMin="0" xMax="618" yMax="583">
      <contour>
        <pt x="335" y="460" on="1"/>
        <pt x="405" y="460" on="1"/>
        <pt x="431" y="460" on="0"/>
        <pt x="462" y="459" on="0"/>
        <pt x="521" y="452" on="0"/>
        <pt x="558" y="435" on="0"/>
        <pt x="598" y="409" on="0"/>
        <pt x="618" y="362" on="0"/>
        <pt x="618" y="331" on="1"/>
        <pt x="618" y="234" on="0"/>
        <pt x="543" y="177" on="1"/>
        <pt x="513" y="154" on="0"/>
        <pt x="419" y="131" on="0"/>
        <pt x="357" y="128" on="0"/>
        <pt x="296" y="128" on="1"/>
        <pt x="261" y="128" on="1"/>
        <pt x="254" y="82" on="1"/>
        <pt x="396" y="82" on="1"/>
        <pt x="378" y="0" on="1"/>
        <pt x="75" y="0" on="1"/>
        <pt x="93" y="82" on="1"/>
        <pt x="171" y="82" on="1"/>
        <pt x="261" y="501" on="1"/>
        <pt x="181" y="501" on="1"/>
        <pt x="199" y="583" on="1"/>
        <pt x="483" y="583" on="1"/>
        <pt x="465" y="501" on="1"/>
        <pt x="342" y="501" on="1"/>
      </contour>
      <contour>
        <pt x="398" y="395" on="1"/>
        <pt x="320" y="395" on="1"/>
        <pt x="277" y="196" on="1"/>
        <pt x="311" y="196" on="1"/>
        <pt x="365" y="196" on="0"/>
        <pt x="415" y="198" on="0"/>
        <pt x="475" y="214" on="0"/>
        <pt x="493" y="231" on="1"/>
        <pt x="532" y="267" on="0"/>
        <pt x="532" y="321" on="1"/>
        <pt x="532" y="347" on="0"/>
        <pt x="508" y="380" on="0"/>
        <pt x="460" y="392" on="0"/>
        <pt x="427" y="395" on="0"/>
      </contour>
    </TTGlyph>
    <TTGlyph name="U" xMin="120" yMin="-16" xMax="708" yMax="583">
      <contour>
        <pt x="138" y="583" on="1"/>
        <pt x="395" y="583" on="1"/>
        <pt x="377" y="501" on="1"/>
        <pt x="279" y="501" on="1"/>
        <pt x="224" y="242" on="1"/>
        <pt x="211" y="180" on="0"/>
        <pt x="211" y="145" on="1"/>
        <pt x="211" y="120" on="0"/>
        <pt x="236" y="87" on="0"/>
        <pt x="276" y="75" on="0"/>
        <pt x="297" y="72" on="0"/>
        <pt x="308" y="72" on="1"/>
        <pt x="342" y="72" on="0"/>
        <pt x="394" y="84" on="0"/>
        <pt x="429" y="112" on="0"/>
        <pt x="452" y="136" on="0"/>
        <pt x="469" y="185" on="0"/>
        <pt x="476" y="213" on="0"/>
        <pt x="482" y="242" on="1"/>
        <pt x="536" y="501" on="1"/>
        <pt x="438" y="501" on="1"/>
        <pt x="456" y="583" on="1"/>
        <pt x="708" y="583" on="1"/>
        <pt x="691" y="501" on="1"/>
        <pt x="622" y="501" on="1"/>
        <pt x="565" y="229" on="1"/>
        <pt x="547" y="149" on="0"/>
        <pt x="509" y="68" on="0"/>
        <pt x="477" y="43" on="1"/>
        <pt x="405" y="-16" on="0"/>
        <pt x="302" y="-16" on="1"/>
        <pt x="227" y="-16" on="0"/>
        <pt x="123" y="64" on="0"/>
        <pt x="123" y="140" on="1"/>
        <pt x="123" y="178" on="0"/>
        <pt x="138" y="252" on="1"/>
        <pt x="191" y="501" on="1"/>
        <pt x="120" y="501" on="1"/>
      </contour>
    </TTGlyph>
    <TTGlyph name="Uacute" xMin="120" yMin="-16" xMax="708" yMax="772">
      <component glyphName="U" x="0" y="0" flags="0x1004"/>
      <component glyphName="acute" x="30" y="130" flags="0x1004"/>
    </TTGlyph>
    <TTGlyph name="Ubreve" xMin="120" yMin="-16" xMax="708" yMax="792">
      <component glyphName="U" x="0" y="0" flags="0x1004"/>
      <component glyphName="breve" x="30" y="130" flags="0x1004"/>
    </TTGlyph>
    <TTGlyph name="Ucircumflex" xMin="120" yMin="-16" xMax="708" yMax="782">
      <component glyphName="U" x="0" y="0" flags="0x1004"/>
      <component glyphName="circumflex" x="30" y="130" flags="0x1004"/>
    </TTGlyph>
    <TTGlyph name="Udieresis" xMin="120" yMin="-16" xMax="708" yMax="778">
      <component glyphName="U" x="0" y="0" flags="0x1004"/>
      <component glyphName="dieresis" x="30" y="130" flags="0x1004"/>
    </TTGlyph>
    <TTGlyph name="Ugrave" xMin="120" yMin="-16" xMax="708" yMax="772">
      <component glyphName="U" x="0" y="0" flags="0x1004"/>
      <component glyphName="grave" x="30" y="130" flags="0x1004"/>
    </TTGlyph>
    <TTGlyph name="Uhungarumlaut" xMin="120" yMin="-16" xMax="708" yMax="787">
      <component glyphName="U" x="0" y="0" flags="0x1004"/>
      <component glyphName="hungarumlaut" x="30" y="130" flags="0x1004"/>
    </TTGlyph>
    <TTGlyph name="Umacron" xMin="120" yMin="-16" xMax="708" yMax="765">
      <component glyphName="U" x="0" y="0" flags="0x1004"/>
      <component glyphName="macron" x="30" y="130" flags="0x1004"/>
    </TTGlyph>
    <TTGlyph name="Uogonek" xMin="120" yMin="-144" xMax="708" yMax="583">
      <contour>
        <pt x="403" y="-47" on="1"/>
        <pt x="368" y="-116" on="1"/>
        <pt x="316" y="-144" on="0"/>
        <pt x="271" y="-144" on="1"/>
        <pt x="241" y="-144" on="0"/>
        <pt x="197" y="-114" on="0"/>
        <pt x="197" y="-86" on="1"/>
        <pt x="197" y="-46" on="0"/>
        <pt x="249" y="-10" on="1"/>
        <pt x="233" y="-7" on="0"/>
        <pt x="203" y="6" on="0"/>
        <pt x="154" y="37" on="0"/>
        <pt x="123" y="98" on="0"/>
        <pt x="123" y="140" on="1"/>
        <pt x="123" y="178" on="0"/>
        <pt x="138" y="252" on="1"/>
        <pt x="191" y="501" on="1"/>
        <pt x="120" y="501" on="1"/>
        <pt x="138" y="583" on="1"/>
        <pt x="395" y="583" on="1"/>
        <pt x="377" y="501" on="1"/>
        <pt x="279" y="501" on="1"/>
        <pt x="224" y="242" on="1"/>
        <pt x="211" y="180" on="0"/>
        <pt x="211" y="145" on="1"/>
        <pt x="211" y="120" on="0"/>
        <pt x="236" y="87" on="0"/>
        <pt x="276" y="75" on="0"/>
        <pt x="297" y="72" on="0"/>
        <pt x="308" y="72" on="1"/>
        <pt x="342" y="72" on="0"/>
        <pt x="394" y="84" on="0"/>
        <pt x="429" y="112" on="0"/>
        <pt x="452" y="136" on="0"/>
        <pt x="469" y="185" on="0"/>
        <pt x="476" y="213" on="0"/>
        <pt x="482" y="242" on="1"/>
        <pt x="536" y="501" on="1"/>
        <pt x="438" y="501" on="1"/>
        <pt x="456" y="583" on="1"/>
        <pt x="708" y="583" on="1"/>
        <pt x="691" y="501" on="1"/>
        <pt x="622" y="501" on="1"/>
        <pt x="565" y="229" on="1"/>
        <pt x="547" y="144" on="0"/>
        <pt x="497" y="54" on="0"/>
        <pt x="424" y="7" on="0"/>
        <pt x="350" y="-17" on="1"/>
        <pt x="332" y="-23" on="0"/>
        <pt x="293" y="-48" on="0"/>
        <pt x="293" y="-78" on="0"/>
        <pt x="316" y="-78" on="1"/>
        <pt x="332" y="-78" on="0"/>
        <pt x="357" y="-69" on="0"/>
      </contour>
    </TTGlyph>
    <TTGlyph name="Uring" xMin="120" yMin="-16" xMax="708" yMax="824">
      <component glyphName="U" x="0" y="0" flags="0x1004"/>
      <component glyphName="ring" x="30" y="130" flags="0x1004"/>
    </TTGlyph>
    <TTGlyph name="Utilde" xMin="120" yMin="-16" xMax="708" yMax="789">
      <component glyphName="U" x="0" y="0" flags="0x1004"/>
      <component glyphName="tilde" x="30" y="130" flags="0x1004"/>
    </TTGlyph>
    <TTGlyph name="V" xMin="98" yMin="0" xMax="723" yMax="583">
      <contour>
        <pt x="116" y="583" on="1"/>
        <pt x="363" y="583" on="1"/>
        <pt x="344" y="501" on="1"/>
        <pt x="260" y="501" on="1"/>
        <pt x="323" y="125" on="1"/>
        <pt x="547" y="501" on="1"/>
        <pt x="459" y="501" on="1"/>
        <pt x="477" y="583" on="1"/>
        <pt x="723" y="583" on="1"/>
        <pt x="705" y="501" on="1"/>
        <pt x="641" y="501" on="1"/>
        <pt x="344" y="0" on="1"/>
        <pt x="255" y="0" on="1"/>
        <pt x="172" y="501" on="1"/>
        <pt x="98" y="501" on="1"/>
      </contour>
    </TTGlyph>
    <TTGlyph name="W" xMin="94" yMin="0" xMax="727" yMax="583">
      <contour>
        <pt x="112" y="583" on="1"/>
        <pt x="342" y="583" on="1"/>
        <pt x="324" y="501" on="1"/>
        <pt x="228" y="501" on="1"/>
        <pt x="205" y="201" on="1"/>
        <pt x="207" y="199" on="1"/>
        <pt x="368" y="471" on="1"/>
        <pt x="429" y="471" on="1"/>
        <pt x="467" y="195" on="1"/>
        <pt x="469" y="195" on="1"/>
        <pt x="575" y="501" on="1"/>
        <pt x="480" y="501" on="1"/>
        <pt x="498" y="583" on="1"/>
        <pt x="727" y="583" on="1"/>
        <pt x="709" y="501" on="1"/>
        <pt x="662" y="501" on="1"/>
        <pt x="485" y="0" on="1"/>
        <pt x="406" y="0" on="1"/>
        <pt x="363" y="311" on="1"/>
        <pt x="361" y="311" on="1"/>
        <pt x="185" y="0" on="1"/>
        <pt x="104" y="0" on="1"/>
        <pt x="143" y="501" on="1"/>
        <pt x="94" y="501" on="1"/>
      </contour>
    </TTGlyph>
    <TTGlyph name="X" xMin="16" yMin="0" xMax="678" yMax="583">
      <contour>
        <pt x="159" y="583" on="1"/>
        <pt x="387" y="583" on="1"/>
        <pt x="368" y="501" on="1"/>
        <pt x="307" y="501" on="1"/>
        <pt x="373" y="371" on="1"/>
        <pt x="493" y="501" on="1"/>
        <pt x="443" y="501" on="1"/>
        <pt x="461" y="583" on="1"/>
        <pt x="678" y="583" on="1"/>
        <pt x="660" y="501" on="1"/>
        <pt x="604" y="501" on="1"/>
        <pt x="411" y="302" on="1"/>
        <pt x="528" y="82" on="1"/>
        <pt x="591" y="82" on="1"/>
        <pt x="573" y="0" on="1"/>
        <pt x="337" y="0" on="1"/>
        <pt x="355" y="82" on="1"/>
        <pt x="427" y="82" on="1"/>
        <pt x="348" y="236" on="1"/>
        <pt x="201" y="82" on="1"/>
        <pt x="281" y="82" on="1"/>
        <pt x="263" y="0" on="1"/>
        <pt x="16" y="0" on="1"/>
        <pt x="34" y="82" on="1"/>
        <pt x="90" y="82" on="1"/>
        <pt x="307" y="309" on="1"/>
        <pt x="206" y="501" on="1"/>
        <pt x="141" y="501" on="1"/>
      </contour>
    </TTGlyph>
    <TTGlyph name="Y" xMin="121" yMin="0" xMax="698" yMax="583">
      <contour>
        <pt x="138" y="583" on="1"/>
        <pt x="369" y="583" on="1"/>
        <pt x="351" y="501" on="1"/>
        <pt x="290" y="501" on="1"/>
        <pt x="361" y="317" on="1"/>
        <pt x="509" y="501" on="1"/>
        <pt x="452" y="501" on="1"/>
        <pt x="471" y="583" on="1"/>
        <pt x="698" y="583" on="1"/>
        <pt x="680" y="501" on="1"/>
        <pt x="613" y="501" on="1"/>
        <pt x="386" y="220" on="1"/>
        <pt x="357" y="82" on="1"/>
        <pt x="471" y="82" on="1"/>
        <pt x="452" y="0" on="1"/>
        <pt x="138" y="0" on="1"/>
        <pt x="154" y="82" on="1"/>
        <pt x="270" y="82" on="1"/>
        <pt x="300" y="229" on="1"/>
        <pt x="194" y="501" on="1"/>
        <pt x="121" y="501" on="1"/>
      </contour>
    </TTGlyph>
    <TTGlyph name="Yacute" xMin="121" yMin="0" xMax="698" yMax="772">
      <component glyphName="Y" x="0" y="0" flags="0x1004"/>
      <component glyphName="acute" x="30" y="130" flags="0x1004"/>
    </TTGlyph>
    <TTGlyph name="Ydieresis" xMin="121" yMin="0" xMax="698" yMax="778">
      <component glyphName="Y" x="0" y="0" flags="0x1004"/>
      <component glyphName="dieresis" x="30" y="130" flags="0x1004"/>
    </TTGlyph>
    <TTGlyph name="Z" xMin="66" yMin="0" xMax="625" yMax="583">
      <contour>
        <pt x="196" y="583" on="1"/>
        <pt x="625" y="583" on="1"/>
        <pt x="610" y="513" on="1"/>
        <pt x="204" y="82" on="1"/>
        <pt x="456" y="82" on="1"/>
        <pt x="489" y="241" on="1"/>
        <pt x="574" y="241" on="1"/>
        <pt x="523" y="0" on="1"/>
        <pt x="66" y="0" on="1"/>
        <pt x="81" y="74" on="1"/>
        <pt x="482" y="501" on="1"/>
        <pt x="264" y="501" on="1"/>
        <pt x="234" y="358" on="1"/>
        <pt x="148" y="358" on="1"/>
      </contour>
    </TTGlyph>
    <TTGlyph name="Zacute" xMin="66" yMin="0" xMax="625" yMax="772">
      <component glyphName="Z" x="0" y="0" flags="0x1004"/>
      <component glyphName="acute" x="30" y="130" flags="0x1004"/>
    </TTGlyph>
    <TTGlyph name="Zcaron" xMin="66" yMin="0" xMax="625" yMax="782">
      <component glyphName="Z" x="0" y="0" flags="0x1004"/>
      <component glyphName="caron" x="30" y="130" flags="0x1004"/>
    </TTGlyph>
    <TTGlyph name="Zdotaccent" xMin="66" yMin="0" xMax="625" yMax="783">
      <component glyphName="Z" x="0" y="0" flags="0x1004"/>
      <component glyphName="dotaccent" x="30" y="130" flags="0x1004"/>
    </TTGlyph>
    <TTGlyph name="a" xMin="70" yMin="-14" xMax="575" yMax="474">
      <contour>
        <pt x="535" y="301" on="1"/>
        <pt x="489" y="82" on="1"/>
        <pt x="575" y="82" on="1"/>
        <pt x="557" y="0" on="1"/>
        <pt x="382" y="0" on="1"/>
        <pt x="390" y="36" on="1"/>
        <pt x="290" y="-14" on="0"/>
        <pt x="218" y="-14" on="1"/>
        <pt x="152" y="-14" on="0"/>
        <pt x="70" y="63" on="0"/>
        <pt x="70" y="119" on="1"/>
        <pt x="70" y="189" on="0"/>
        <pt x="206" y="307" on="0"/>
        <pt x="332" y="307" on="1"/>
        <pt x="377" y="307" on="0"/>
        <pt x="447" y="298" on="1"/>
        <pt x="447" y="314" on="0"/>
        <pt x="449" y="327" on="1"/>
        <pt x="451" y="343" on="0"/>
        <pt x="451" y="345" on="1"/>
        <pt x="451" y="388" on="0"/>
        <pt x="373" y="388" on="1"/>
        <pt x="306" y="388" on="0"/>
        <pt x="213" y="352" on="1"/>
        <pt x="203" y="348" on="0"/>
        <pt x="188" y="342" on="0"/>
        <pt x="184" y="341" on="1"/>
        <pt x="166" y="424" on="1"/>
        <pt x="170" y="425" on="0"/>
        <pt x="178" y="428" on="0"/>
        <pt x="181" y="429" on="1"/>
        <pt x="186" y="432" on="0"/>
        <pt x="188" y="432" on="1"/>
        <pt x="304" y="474" on="0"/>
        <pt x="384" y="474" on="1"/>
        <pt x="452" y="474" on="0"/>
        <pt x="542" y="411" on="0"/>
        <pt x="542" y="354" on="1"/>
        <pt x="542" y="343" on="0"/>
      </contour>
      <contour>
        <pt x="413" y="146" on="1"/>
        <pt x="428" y="215" on="1"/>
        <pt x="368" y="223" on="0"/>
        <pt x="331" y="223" on="1"/>
        <pt x="281" y="223" on="0"/>
        <pt x="208" y="200" on="0"/>
        <pt x="175" y="165" on="0"/>
        <pt x="161" y="136" on="0"/>
        <pt x="161" y="123" on="1"/>
        <pt x="161" y="100" on="0"/>
        <pt x="200" y="72" on="0"/>
        <pt x="223" y="72" on="1"/>
        <pt x="265" y="72" on="0"/>
        <pt x="380" y="121" on="0"/>
      </contour>
    </TTGlyph>
    <TTGlyph name="aacute" xMin="70" yMin="-14" xMax="582" yMax="642">
      <component glyphName="a" x="0" y="0" flags="0x1004"/>
      <component glyphName="acute" x="0" y="0" flags="0x1004"/>
    </TTGlyph>
    <TTGlyph name="abreve" xMin="70" yMin="-14" xMax="615" yMax="662">
      <component glyphName="a" x="0" y="0" flags="0x1004"/>
      <component glyphName="breve" x="0" y="0" flags="0x1004"/>
    </TTGlyph>
    <TTGlyph name="acircumflex" xMin="70" yMin="-14" xMax="575" yMax="652">
      <component glyphName="a" x="0" y="0" flags="0x1004"/>
      <component glyphName="circumflex" x="0" y="0" flags="0x1004"/>
    </TTGlyph>
    <TTGlyph name="acute" xMin="319" yMin="544" xMax="582" yMax="642">
      <contour>
        <pt x="582" y="638" on="1"/>
        <pt x="408" y="544" on="1"/>
        <pt x="319" y="544" on="1"/>
        <pt x="442" y="642" on="1"/>
        <pt x="582" y="642" on="1"/>
      </contour>
    </TTGlyph>
    <TTGlyph name="adieresis" xMin="70" yMin="-14" xMax="575" yMax="648">
      <component glyphName="a" x="0" y="0" flags="0x1004"/>
      <component glyphName="dieresis" x="0" y="0" flags="0x1004"/>
    </TTGlyph>
    <TTGlyph name="ae" xMin="42" yMin="-14" xMax="631" yMax="474">
      <contour>
        <pt x="608" y="198" on="1"/>
        <pt x="371" y="198" on="1"/>
        <pt x="367" y="179" on="0"/>
        <pt x="367" y="154" on="1"/>
        <pt x="367" y="70" on="0"/>
        <pt x="431" y="70" on="1"/>
        <pt x="475" y="70" on="0"/>
        <pt x="566" y="97" on="1"/>
        <pt x="582" y="17" on="1"/>
        <pt x="489" y="-14" on="0"/>
        <pt x="427" y="-14" on="1"/>
        <pt x="389" y="-14" on="0"/>
        <pt x="337" y="12" on="0"/>
        <pt x="318" y="37" on="0"/>
        <pt x="305" y="61" on="1"/>
        <pt x="256" y="20" on="0"/>
        <pt x="195" y="-14" on="0"/>
        <pt x="158" y="-14" on="1"/>
        <pt x="108" y="-14" on="0"/>
        <pt x="42" y="49" on="0"/>
        <pt x="42" y="104" on="1"/>
        <pt x="42" y="172" on="0"/>
        <pt x="155" y="296" on="0"/>
        <pt x="256" y="296" on="1"/>
        <pt x="272" y="296" on="0"/>
        <pt x="305" y="289" on="1"/>
        <pt x="317" y="340" on="0"/>
        <pt x="317" y="356" on="1"/>
        <pt x="317" y="370" on="0"/>
        <pt x="308" y="385" on="0"/>
        <pt x="297" y="388" on="0"/>
        <pt x="287" y="388" on="1"/>
        <pt x="242" y="388" on="0"/>
        <pt x="174" y="365" on="1"/>
        <pt x="172" y="364" on="0"/>
        <pt x="145" y="355" on="0"/>
        <pt x="143" y="354" on="1"/>
        <pt x="134" y="438" on="1"/>
        <pt x="234" y="474" on="0"/>
        <pt x="287" y="474" on="1"/>
        <pt x="363" y="474" on="0"/>
        <pt x="387" y="421" on="1"/>
        <pt x="447" y="474" on="0"/>
        <pt x="512" y="474" on="1"/>
        <pt x="561" y="474" on="0"/>
        <pt x="631" y="395" on="0"/>
        <pt x="631" y="322" on="1"/>
        <pt x="631" y="264" on="0"/>
      </contour>
      <contour>
        <pt x="278" y="143" on="1"/>
        <pt x="289" y="208" on="1"/>
        <pt x="267" y="212" on="0"/>
        <pt x="248" y="212" on="1"/>
        <pt x="186" y="212" on="0"/>
        <pt x="130" y="141" on="0"/>
        <pt x="130" y="109" on="1"/>
        <pt x="130" y="72" on="0"/>
        <pt x="160" y="72" on="1"/>
        <pt x="183" y="72" on="0"/>
        <pt x="254" y="117" on="0"/>
      </contour>
      <contour>
        <pt x="387" y="280" on="1"/>
        <pt x="540" y="280" on="1"/>
        <pt x="543" y="313" on="0"/>
        <pt x="543" y="328" on="1"/>
        <pt x="543" y="359" on="0"/>
        <pt x="526" y="391" on="0"/>
        <pt x="497" y="391" on="1"/>
        <pt x="467" y="391" on="0"/>
        <pt x="403" y="335" on="0"/>
      </contour>
    </TTGlyph>
    <TTGlyph name="afii299" xMin="-48" yMin="649" xMax="68" yMax="786">
      <contour>
        <pt x="-48" y="649" on="1"/>
        <pt x="-48" y="786" on="1"/>
        <pt x="68" y="718" on="1"/>
      </contour>
    </TTGlyph>
    <TTGlyph name="afii300" xMin="-68" yMin="649" xMax="48" yMax="786">
      <contour>
        <pt x="-68" y="718" on="1"/>
        <pt x="48" y="786" on="1"/>
        <pt x="48" y="649" on="1"/>
      </contour>
    </TTGlyph>
    <TTGlyph name="afii301" xMin="-202" yMin="0" xMax="202" yMax="782">
      <contour>
        <pt x="0" y="782" on="1"/>
        <pt x="36" y="782" on="0"/>
        <pt x="95" y="767" on="0"/>
        <pt x="144" y="742" on="0"/>
        <pt x="184" y="712" on="0"/>
        <pt x="202" y="696" on="1"/>
        <pt x="202" y="695" on="0"/>
        <pt x="200" y="692" on="1"/>
        <pt x="196" y="686" on="1"/>
        <pt x="190" y="680" on="1"/>
        <pt x="170" y="693" on="0"/>
        <pt x="130" y="713" on="0"/>
        <pt x="84" y="725" on="0"/>
        <pt x="33" y="730" on="0"/>
        <pt x="-33" y="730" on="0"/>
        <pt x="-84" y="725" on="0"/>
        <pt x="-130" y="714" on="0"/>
        <pt x="-170" y="695" on="0"/>
        <pt x="-190" y="680" on="1"/>
        <pt x="-193" y="684" on="0"/>
        <pt x="-196" y="687" on="1"/>
        <pt x="-198" y="689" on="0"/>
        <pt x="-202" y="695" on="0"/>
        <pt x="-202" y="696" on="1"/>
        <pt x="-184" y="712" on="0"/>
        <pt x="-144" y="742" on="0"/>
        <pt x="-95" y="767" on="0"/>
        <pt x="-36" y="782" on="0"/>
      </contour>
      <contour>
        <pt x="22" y="636" on="1"/>
        <pt x="22" y="628" on="0"/>
        <pt x="10" y="614" on="0"/>
        <pt x="0" y="614" on="1"/>
        <pt x="-10" y="614" on="0"/>
        <pt x="-22" y="628" on="0"/>
        <pt x="-22" y="636" on="1"/>
        <pt x="-22" y="646" on="0"/>
        <pt x="-10" y="659" on="0"/>
        <pt x="0" y="659" on="1"/>
        <pt x="10" y="659" on="0"/>
        <pt x="22" y="646" on="0"/>
      </contour>
      <contour>
        <pt x="22" y="534" on="1"/>
        <pt x="22" y="524" on="0"/>
        <pt x="10" y="512" on="0"/>
        <pt x="0" y="512" on="1"/>
        <pt x="-10" y="512" on="0"/>
        <pt x="-22" y="524" on="0"/>
        <pt x="-22" y="534" on="1"/>
        <pt x="-22" y="543" on="0"/>
        <pt x="-10" y="555" on="0"/>
        <pt x="0" y="555" on="1"/>
        <pt x="10" y="555" on="0"/>
        <pt x="22" y="543" on="0"/>
      </contour>
      <contour>
        <pt x="22" y="432" on="1"/>
        <pt x="22" y="422" on="0"/>
        <pt x="10" y="410" on="0"/>
        <pt x="0" y="410" on="1"/>
        <pt x="-10" y="410" on="0"/>
        <pt x="-22" y="422" on="0"/>
        <pt x="-22" y="432" on="1"/>
        <pt x="-22" y="440" on="0"/>
        <pt x="-10" y="454" on="0"/>
        <pt x="0" y="454" on="1"/>
        <pt x="10" y="454" on="0"/>
        <pt x="22" y="440" on="0"/>
      </contour>
      <contour>
        <pt x="22" y="328" on="1"/>
        <pt x="22" y="320" on="0"/>
        <pt x="10" y="308" on="0"/>
        <pt x="0" y="308" on="1"/>
        <pt x="-10" y="308" on="0"/>
        <pt x="-22" y="320" on="0"/>
        <pt x="-22" y="328" on="1"/>
        <pt x="-22" y="338" on="0"/>
        <pt x="-10" y="351" on="0"/>
        <pt x="0" y="351" on="1"/>
        <pt x="10" y="351" on="0"/>
        <pt x="22" y="338" on="0"/>
      </contour>
      <contour>
        <pt x="22" y="226" on="1"/>
        <pt x="22" y="218" on="0"/>
        <pt x="10" y="204" on="0"/>
        <pt x="0" y="204" on="1"/>
        <pt x="-10" y="204" on="0"/>
        <pt x="-22" y="218" on="0"/>
        <pt x="-22" y="226" on="1"/>
        <pt x="-22" y="236" on="0"/>
        <pt x="-10" y="249" on="0"/>
        <pt x="0" y="249" on="1"/>
        <pt x="10" y="249" on="0"/>
        <pt x="22" y="236" on="0"/>
      </contour>
      <contour>
        <pt x="22" y="124" on="1"/>
        <pt x="22" y="114" on="0"/>
        <pt x="10" y="102" on="0"/>
        <pt x="0" y="102" on="1"/>
        <pt x="-10" y="102" on="0"/>
        <pt x="-22" y="114" on="0"/>
        <pt x="-22" y="124" on="1"/>
        <pt x="-22" y="133" on="0"/>
        <pt x="-10" y="146" on="0"/>
        <pt x="0" y="146" on="1"/>
        <pt x="10" y="146" on="0"/>
        <pt x="22" y="133" on="0"/>
      </contour>
      <contour>
        <pt x="22" y="22" on="1"/>
        <pt x="22" y="13" on="0"/>
        <pt x="10" y="0" on="0"/>
        <pt x="0" y="0" on="1"/>
        <pt x="-10" y="0" on="0"/>
        <pt x="-22" y="13" on="0"/>
        <pt x="-22" y="22" on="1"/>
        <pt x="-22" y="30" on="0"/>
        <pt x="-10" y="43" on="0"/>
        <pt x="0" y="43" on="1"/>
        <pt x="10" y="43" on="0"/>
        <pt x="22" y="30" on="0"/>
      </contour>
    </TTGlyph>
    <TTGlyph name="afii57505" xMin="-35" yMin="0" xMax="619" yMax="585">
      <contour>
        <pt x="342" y="435" on="1"/>
        <pt x="302" y="378" on="1"/>
        <pt x="223" y="440" on="1"/>
        <pt x="262" y="496" on="1"/>
      </contour>
      <contour>
        <pt x="471" y="440" on="1"/>
        <pt x="431" y="383" on="1"/>
        <pt x="351" y="444" on="1"/>
        <pt x="390" y="502" on="1"/>
      </contour>
      <contour>
        <pt x="374" y="523" on="1"/>
        <pt x="335" y="466" on="1"/>
        <pt x="254" y="528" on="1"/>
        <pt x="293" y="585" on="1"/>
      </contour>
      <contour>
        <pt x="519" y="174" on="1"/>
        <pt x="495" y="208" on="0"/>
        <pt x="438" y="254" on="0"/>
        <pt x="420" y="254" on="1"/>
        <pt x="413" y="254" on="0"/>
        <pt x="397" y="238" on="0"/>
        <pt x="393" y="225" on="1"/>
        <pt x="410" y="217" on="0"/>
        <pt x="467" y="194" on="1"/>
        <pt x="503" y="180" on="0"/>
      </contour>
      <contour>
        <pt x="138" y="0" on="1"/>
        <pt x="75" y="0" on="0"/>
        <pt x="36" y="28" on="1"/>
        <pt x="-9" y="59" on="0"/>
        <pt x="-29" y="126" on="1"/>
        <pt x="-40" y="162" on="0"/>
        <pt x="-22" y="283" on="0"/>
        <pt x="-3" y="306" on="1"/>
        <pt x="20" y="306" on="1"/>
        <pt x="13" y="280" on="0"/>
        <pt x="10" y="265" on="1"/>
        <pt x="3" y="216" on="0"/>
        <pt x="12" y="187" on="1"/>
        <pt x="22" y="153" on="0"/>
        <pt x="44" y="136" on="1"/>
        <pt x="75" y="113" on="0"/>
        <pt x="133" y="113" on="1"/>
        <pt x="470" y="113" on="1"/>
        <pt x="449" y="121" on="0"/>
        <pt x="426" y="129" on="1"/>
        <pt x="377" y="150" on="0"/>
        <pt x="371" y="170" on="1"/>
        <pt x="366" y="186" on="0"/>
        <pt x="360" y="230" on="1"/>
        <pt x="352" y="288" on="0"/>
        <pt x="358" y="323" on="1"/>
        <pt x="366" y="370" on="0"/>
        <pt x="396" y="370" on="1"/>
        <pt x="438" y="370" on="0"/>
        <pt x="497" y="298" on="1"/>
        <pt x="562" y="221" on="0"/>
        <pt x="591" y="122" on="1"/>
        <pt x="616" y="40" on="1"/>
        <pt x="622" y="19" on="0"/>
        <pt x="605" y="0" on="0"/>
        <pt x="578" y="0" on="1"/>
      </contour>
    </TTGlyph>
    <TTGlyph name="afii57511" xMin="-29" yMin="0" xMax="618" yMax="501">
      <contour>
        <pt x="155" y="0" on="1"/>
        <pt x="94" y="0" on="0"/>
        <pt x="50" y="29" on="1"/>
        <pt x="0" y="63" on="0"/>
        <pt x="-20" y="130" on="1"/>
        <pt x="-32" y="171" on="0"/>
        <pt x="-27" y="225" on="1"/>
        <pt x="-20" y="283" on="0"/>
        <pt x="7" y="309" on="1"/>
        <pt x="29" y="309" on="1"/>
        <pt x="20" y="282" on="0"/>
        <pt x="17" y="266" on="1"/>
        <pt x="7" y="217" on="0"/>
        <pt x="16" y="187" on="1"/>
        <pt x="26" y="154" on="0"/>
        <pt x="51" y="136" on="1"/>
        <pt x="84" y="113" on="0"/>
        <pt x="142" y="113" on="1"/>
        <pt x="522" y="113" on="1"/>
        <pt x="514" y="140" on="0"/>
        <pt x="488" y="170" on="1"/>
        <pt x="478" y="180" on="0"/>
        <pt x="447" y="210" on="1"/>
        <pt x="452" y="320" on="1"/>
        <pt x="488" y="287" on="0"/>
        <pt x="525" y="229" on="1"/>
        <pt x="570" y="161" on="0"/>
        <pt x="589" y="97" on="1"/>
        <pt x="618" y="0" on="1"/>
      </contour>
      <contour>
        <pt x="334" y="319" on="1"/>
        <pt x="343" y="288" on="0"/>
        <pt x="343" y="272" on="1"/>
        <pt x="343" y="249" on="0"/>
        <pt x="324" y="249" on="1"/>
        <pt x="185" y="249" on="1"/>
        <pt x="171" y="249" on="0"/>
        <pt x="156" y="265" on="1"/>
        <pt x="146" y="275" on="0"/>
        <pt x="137" y="292" on="1"/>
        <pt x="129" y="307" on="1"/>
        <pt x="136" y="303" on="0"/>
        <pt x="140" y="301" on="1"/>
        <pt x="154" y="294" on="0"/>
        <pt x="162" y="294" on="1"/>
        <pt x="180" y="294" on="1"/>
        <pt x="188" y="294" on="0"/>
        <pt x="194" y="300" on="1"/>
        <pt x="198" y="304" on="0"/>
        <pt x="201" y="311" on="1"/>
        <pt x="188" y="346" on="0"/>
        <pt x="168" y="387" on="1"/>
        <pt x="146" y="433" on="0"/>
        <pt x="136" y="446" on="1"/>
        <pt x="141" y="501" on="1"/>
        <pt x="153" y="486" on="0"/>
        <pt x="171" y="448" on="1"/>
        <pt x="185" y="419" on="0"/>
        <pt x="200" y="379" on="1"/>
        <pt x="212" y="346" on="0"/>
        <pt x="217" y="330" on="1"/>
        <pt x="220" y="336" on="0"/>
        <pt x="223" y="343" on="1"/>
        <pt x="231" y="358" on="0"/>
        <pt x="239" y="367" on="1"/>
        <pt x="252" y="380" on="0"/>
        <pt x="265" y="380" on="1"/>
        <pt x="282" y="380" on="0"/>
        <pt x="303" y="364" on="1"/>
        <pt x="326" y="344" on="0"/>
      </contour>
      <contour>
        <pt x="321" y="304" on="1"/>
        <pt x="312" y="316" on="0"/>
        <pt x="296" y="326" on="1"/>
        <pt x="281" y="334" on="0"/>
        <pt x="271" y="334" on="1"/>
        <pt x="261" y="334" on="0"/>
        <pt x="251" y="327" on="1"/>
        <pt x="235" y="317" on="0"/>
        <pt x="220" y="294" on="1"/>
        <pt x="304" y="294" on="1"/>
        <pt x="310" y="294" on="0"/>
        <pt x="319" y="300" on="0"/>
      </contour>
    </TTGlyph>
    <TTGlyph name="afii57512" xMin="46" yMin="0" xMax="454" yMax="694">
      <contour>
        <pt x="445" y="77" on="1"/>
        <pt x="455" y="42" on="0"/>
        <pt x="453" y="25" on="1"/>
        <pt x="451" y="0" on="0"/>
        <pt x="422" y="0" on="1"/>
        <pt x="213" y="0" on="1"/>
        <pt x="189" y="0" on="0"/>
        <pt x="170" y="27" on="1"/>
        <pt x="154" y="50" on="0"/>
        <pt x="141" y="92" on="1"/>
        <pt x="136" y="110" on="0"/>
        <pt x="133" y="155" on="0"/>
        <pt x="135" y="172" on="1"/>
        <pt x="150" y="152" on="0"/>
        <pt x="161" y="142" on="1"/>
        <pt x="194" y="113" on="0"/>
        <pt x="223" y="113" on="1"/>
        <pt x="358" y="113" on="1"/>
        <pt x="365" y="113" on="0"/>
        <pt x="376" y="127" on="0"/>
        <pt x="373" y="137" on="1"/>
        <pt x="364" y="165" on="0"/>
        <pt x="319" y="207" on="1"/>
        <pt x="271" y="250" on="0"/>
        <pt x="209" y="284" on="1"/>
        <pt x="182" y="416" on="1"/>
        <pt x="183" y="416" on="0"/>
        <pt x="207" y="400" on="1"/>
        <pt x="235" y="381" on="0"/>
        <pt x="263" y="359" on="1"/>
        <pt x="301" y="328" on="0"/>
        <pt x="329" y="299" on="1"/>
        <pt x="366" y="261" on="0"/>
        <pt x="398" y="196" on="1"/>
        <pt x="426" y="139" on="0"/>
      </contour>
      <contour>
        <pt x="251" y="512" on="1"/>
        <pt x="260" y="480" on="0"/>
        <pt x="260" y="465" on="1"/>
        <pt x="260" y="442" on="0"/>
        <pt x="241" y="442" on="1"/>
        <pt x="102" y="442" on="1"/>
        <pt x="88" y="442" on="0"/>
        <pt x="73" y="457" on="1"/>
        <pt x="63" y="468" on="0"/>
        <pt x="54" y="485" on="1"/>
        <pt x="46" y="500" on="1"/>
        <pt x="53" y="496" on="0"/>
        <pt x="57" y="494" on="1"/>
        <pt x="71" y="487" on="0"/>
        <pt x="79" y="487" on="1"/>
        <pt x="97" y="487" on="1"/>
        <pt x="105" y="487" on="0"/>
        <pt x="111" y="492" on="1"/>
        <pt x="115" y="496" on="0"/>
        <pt x="118" y="504" on="1"/>
        <pt x="105" y="538" on="0"/>
        <pt x="85" y="579" on="1"/>
        <pt x="63" y="626" on="0"/>
        <pt x="53" y="639" on="1"/>
        <pt x="58" y="693" on="1"/>
        <pt x="70" y="679" on="0"/>
        <pt x="88" y="641" on="1"/>
        <pt x="102" y="611" on="0"/>
        <pt x="117" y="571" on="1"/>
        <pt x="130" y="538" on="0"/>
        <pt x="134" y="522" on="1"/>
        <pt x="137" y="529" on="0"/>
        <pt x="140" y="535" on="1"/>
        <pt x="148" y="551" on="0"/>
        <pt x="157" y="560" on="1"/>
        <pt x="169" y="573" on="0"/>
        <pt x="182" y="573" on="1"/>
        <pt x="199" y="573" on="0"/>
        <pt x="220" y="556" on="1"/>
        <pt x="243" y="537" on="0"/>
      </contour>
      <contour>
        <pt x="238" y="497" on="1"/>
        <pt x="229" y="509" on="0"/>
        <pt x="213" y="518" on="1"/>
        <pt x="198" y="527" on="0"/>
        <pt x="188" y="527" on="1"/>
        <pt x="178" y="527" on="0"/>
        <pt x="168" y="520" on="1"/>
        <pt x="152" y="510" on="0"/>
        <pt x="137" y="487" on="1"/>
        <pt x="221" y="487" on="1"/>
        <pt x="227" y="487" on="0"/>
        <pt x="236" y="492" on="0"/>
      </contour>
    </TTGlyph>
    <TTGlyph name="afii57513" xMin="143" yMin="-249" xMax="475" yMax="622">
      <contour>
        <pt x="335" y="-249" on="1"/>
        <pt x="313" y="-249" on="0"/>
        <pt x="241" y="-213" on="0"/>
        <pt x="217" y="-192" on="1"/>
        <pt x="311" y="-162" on="0"/>
        <pt x="373" y="-82" on="1"/>
        <pt x="433" y="-6" on="0"/>
        <pt x="416" y="50" on="1"/>
        <pt x="408" y="77" on="0"/>
        <pt x="358" y="126" on="1"/>
        <pt x="342" y="142" on="0"/>
        <pt x="311" y="170" on="1"/>
        <pt x="308" y="307" on="1"/>
        <pt x="311" y="307" on="0"/>
        <pt x="338" y="276" on="1"/>
        <pt x="372" y="237" on="0"/>
        <pt x="401" y="191" on="1"/>
        <pt x="440" y="126" on="0"/>
        <pt x="460" y="61" on="1"/>
        <pt x="478" y="-1" on="0"/>
        <pt x="474" y="-70" on="1"/>
        <pt x="469" y="-146" on="0"/>
        <pt x="437" y="-193" on="1"/>
        <pt x="401" y="-249" on="0"/>
      </contour>
      <contour>
        <pt x="347" y="440" on="1"/>
        <pt x="357" y="409" on="0"/>
        <pt x="357" y="393" on="1"/>
        <pt x="356" y="370" on="0"/>
        <pt x="338" y="370" on="1"/>
        <pt x="199" y="370" on="1"/>
        <pt x="184" y="370" on="0"/>
        <pt x="170" y="386" on="1"/>
        <pt x="160" y="396" on="0"/>
        <pt x="150" y="413" on="1"/>
        <pt x="143" y="428" on="1"/>
        <pt x="150" y="424" on="0"/>
        <pt x="154" y="422" on="1"/>
        <pt x="167" y="415" on="0"/>
        <pt x="176" y="415" on="1"/>
        <pt x="194" y="415" on="1"/>
        <pt x="202" y="415" on="0"/>
        <pt x="208" y="421" on="1"/>
        <pt x="212" y="425" on="0"/>
        <pt x="215" y="432" on="1"/>
        <pt x="201" y="467" on="0"/>
        <pt x="182" y="508" on="1"/>
        <pt x="160" y="554" on="0"/>
        <pt x="149" y="567" on="1"/>
        <pt x="155" y="622" on="1"/>
        <pt x="167" y="607" on="0"/>
        <pt x="184" y="569" on="1"/>
        <pt x="198" y="540" on="0"/>
        <pt x="213" y="500" on="1"/>
        <pt x="226" y="467" on="0"/>
        <pt x="231" y="451" on="1"/>
        <pt x="234" y="457" on="0"/>
        <pt x="237" y="464" on="1"/>
        <pt x="245" y="479" on="0"/>
        <pt x="253" y="488" on="1"/>
        <pt x="266" y="501" on="0"/>
        <pt x="278" y="501" on="1"/>
        <pt x="296" y="501" on="0"/>
        <pt x="316" y="485" on="1"/>
        <pt x="340" y="465" on="0"/>
      </contour>
      <contour>
        <pt x="335" y="425" on="1"/>
        <pt x="326" y="437" on="0"/>
        <pt x="309" y="447" on="1"/>
        <pt x="295" y="455" on="0"/>
        <pt x="284" y="455" on="1"/>
        <pt x="275" y="455" on="0"/>
        <pt x="264" y="448" on="1"/>
        <pt x="249" y="438" on="0"/>
        <pt x="233" y="415" on="1"/>
        <pt x="318" y="415" on="1"/>
        <pt x="324" y="415" on="0"/>
        <pt x="333" y="421" on="0"/>
      </contour>
    </TTGlyph>
    <TTGlyph name="afii57514" xMin="57" yMin="-113" xMax="540" yMax="299">
      <contour>
        <pt x="496" y="69" on="1"/>
        <pt x="475" y="101" on="0"/>
        <pt x="412" y="173" on="0"/>
        <pt x="395" y="187" on="1"/>
        <pt x="395" y="299" on="1"/>
        <pt x="396" y="299" on="0"/>
        <pt x="422" y="267" on="1"/>
        <pt x="453" y="228" on="0"/>
        <pt x="477" y="191" on="1"/>
        <pt x="510" y="137" on="0"/>
        <pt x="523" y="94" on="1"/>
        <pt x="536" y="50" on="1"/>
        <pt x="551" y="1" on="0"/>
        <pt x="507" y="-40" on="1"/>
        <pt x="469" y="-74" on="0"/>
        <pt x="402" y="-95" on="1"/>
        <pt x="344" y="-113" on="0"/>
        <pt x="293" y="-113" on="1"/>
        <pt x="203" y="-113" on="0"/>
        <pt x="146" y="-69" on="1"/>
        <pt x="95" y="-31" on="0"/>
        <pt x="76" y="33" on="1"/>
        <pt x="55" y="103" on="0"/>
        <pt x="58" y="174" on="1"/>
        <pt x="60" y="226" on="0"/>
        <pt x="70" y="246" on="1"/>
        <pt x="84" y="246" on="1"/>
        <pt x="80" y="233" on="0"/>
        <pt x="90" y="143" on="0"/>
        <pt x="98" y="116" on="1"/>
        <pt x="118" y="50" on="0"/>
        <pt x="171" y="22" on="1"/>
        <pt x="214" y="0" on="0"/>
        <pt x="280" y="0" on="1"/>
        <pt x="355" y="0" on="0"/>
        <pt x="418" y="23" on="1"/>
        <pt x="471" y="42" on="0"/>
      </contour>
    </TTGlyph>
    <TTGlyph name="afii61573" xMin="-62" yMin="-62" xMax="62" yMax="555">
      <contour>
        <pt x="14" y="486" on="1"/>
        <pt x="14" y="-34" on="1"/>
        <pt x="56" y="-34" on="1"/>
        <pt x="56" y="-62" on="1"/>
        <pt x="-56" y="-62" on="1"/>
        <pt x="-56" y="-34" on="1"/>
        <pt x="-14" y="-34" on="1"/>
        <pt x="-14" y="486" on="1"/>
        <pt x="-62" y="486" on="1"/>
        <pt x="0" y="555" on="1"/>
        <pt x="62" y="486" on="1"/>
      </contour>
    </TTGlyph>
    <TTGlyph name="afii61574" xMin="-99" yMin="0" xMax="114" yMax="815">
      <contour>
        <pt x="45" y="694" on="1"/>
        <pt x="45" y="740" on="1"/>
        <pt x="-99" y="740" on="1"/>
        <pt x="-99" y="768" on="1"/>
        <pt x="45" y="768" on="1"/>
        <pt x="45" y="815" on="1"/>
        <pt x="114" y="755" on="1"/>
      </contour>
      <contour>
        <pt x="22" y="636" on="1"/>
        <pt x="22" y="628" on="0"/>
        <pt x="10" y="614" on="0"/>
        <pt x="0" y="614" on="1"/>
        <pt x="-10" y="614" on="0"/>
        <pt x="-22" y="628" on="0"/>
        <pt x="-22" y="636" on="1"/>
        <pt x="-22" y="646" on="0"/>
        <pt x="-10" y="659" on="0"/>
        <pt x="0" y="659" on="1"/>
        <pt x="10" y="659" on="0"/>
        <pt x="22" y="646" on="0"/>
      </contour>
      <contour>
        <pt x="22" y="534" on="1"/>
        <pt x="22" y="524" on="0"/>
        <pt x="10" y="512" on="0"/>
        <pt x="0" y="512" on="1"/>
        <pt x="-10" y="512" on="0"/>
        <pt x="-22" y="524" on="0"/>
        <pt x="-22" y="534" on="1"/>
        <pt x="-22" y="543" on="0"/>
        <pt x="-10" y="555" on="0"/>
        <pt x="0" y="555" on="1"/>
        <pt x="10" y="555" on="0"/>
        <pt x="22" y="543" on="0"/>
      </contour>
      <contour>
        <pt x="22" y="432" on="1"/>
        <pt x="22" y="422" on="0"/>
        <pt x="10" y="410" on="0"/>
        <pt x="0" y="410" on="1"/>
        <pt x="-10" y="410" on="0"/>
        <pt x="-22" y="422" on="0"/>
        <pt x="-22" y="432" on="1"/>
        <pt x="-22" y="440" on="0"/>
        <pt x="-10" y="454" on="0"/>
        <pt x="0" y="454" on="1"/>
        <pt x="10" y="454" on="0"/>
        <pt x="22" y="440" on="0"/>
      </contour>
      <contour>
        <pt x="22" y="328" on="1"/>
        <pt x="22" y="320" on="0"/>
        <pt x="10" y="308" on="0"/>
        <pt x="0" y="308" on="1"/>
        <pt x="-10" y="308" on="0"/>
        <pt x="-22" y="320" on="0"/>
        <pt x="-22" y="328" on="1"/>
        <pt x="-22" y="338" on="0"/>
        <pt x="-10" y="351" on="0"/>
        <pt x="0" y="351" on="1"/>
        <pt x="10" y="351" on="0"/>
        <pt x="22" y="338" on="0"/>
      </contour>
      <contour>
        <pt x="22" y="226" on="1"/>
        <pt x="22" y="218" on="0"/>
        <pt x="10" y="204" on="0"/>
        <pt x="0" y="204" on="1"/>
        <pt x="-10" y="204" on="0"/>
        <pt x="-22" y="218" on="0"/>
        <pt x="-22" y="226" on="1"/>
        <pt x="-22" y="236" on="0"/>
        <pt x="-10" y="249" on="0"/>
        <pt x="0" y="249" on="1"/>
        <pt x="10" y="249" on="0"/>
        <pt x="22" y="236" on="0"/>
      </contour>
      <contour>
        <pt x="22" y="124" on="1"/>
        <pt x="22" y="114" on="0"/>
        <pt x="10" y="102" on="0"/>
        <pt x="0" y="102" on="1"/>
        <pt x="-10" y="102" on="0"/>
        <pt x="-22" y="114" on="0"/>
        <pt x="-22" y="124" on="1"/>
        <pt x="-22" y="133" on="0"/>
        <pt x="-10" y="146" on="0"/>
        <pt x="0" y="146" on="1"/>
        <pt x="10" y="146" on="0"/>
        <pt x="22" y="133" on="0"/>
      </contour>
      <contour>
        <pt x="22" y="22" on="1"/>
        <pt x="22" y="13" on="0"/>
        <pt x="10" y="0" on="0"/>
        <pt x="0" y="0" on="1"/>
        <pt x="-10" y="0" on="0"/>
        <pt x="-22" y="13" on="0"/>
        <pt x="-22" y="22" on="1"/>
        <pt x="-22" y="30" on="0"/>
        <pt x="-10" y="43" on="0"/>
        <pt x="0" y="43" on="1"/>
        <pt x="10" y="43" on="0"/>
        <pt x="22" y="30" on="0"/>
      </contour>
    </TTGlyph>
    <TTGlyph name="afii61575" xMin="-114" yMin="0" xMax="99" yMax="815">
      <contour>
        <pt x="-45" y="740" on="1"/>
        <pt x="-45" y="694" on="1"/>
        <pt x="-114" y="755" on="1"/>
        <pt x="-45" y="815" on="1"/>
        <pt x="-45" y="768" on="1"/>
        <pt x="99" y="768" on="1"/>
        <pt x="99" y="740" on="1"/>
      </contour>
      <contour>
        <pt x="22" y="636" on="1"/>
        <pt x="22" y="628" on="0"/>
        <pt x="10" y="614" on="0"/>
        <pt x="0" y="614" on="1"/>
        <pt x="-10" y="614" on="0"/>
        <pt x="-22" y="628" on="0"/>
        <pt x="-22" y="636" on="1"/>
        <pt x="-22" y="646" on="0"/>
        <pt x="-10" y="659" on="0"/>
        <pt x="0" y="659" on="1"/>
        <pt x="10" y="659" on="0"/>
        <pt x="22" y="646" on="0"/>
      </contour>
      <contour>
        <pt x="22" y="534" on="1"/>
        <pt x="22" y="524" on="0"/>
        <pt x="10" y="512" on="0"/>
        <pt x="0" y="512" on="1"/>
        <pt x="-10" y="512" on="0"/>
        <pt x="-22" y="524" on="0"/>
        <pt x="-22" y="534" on="1"/>
        <pt x="-22" y="543" on="0"/>
        <pt x="-10" y="555" on="0"/>
        <pt x="0" y="555" on="1"/>
        <pt x="10" y="555" on="0"/>
        <pt x="22" y="543" on="0"/>
      </contour>
      <contour>
        <pt x="22" y="432" on="1"/>
        <pt x="22" y="422" on="0"/>
        <pt x="10" y="410" on="0"/>
        <pt x="0" y="410" on="1"/>
        <pt x="-10" y="410" on="0"/>
        <pt x="-22" y="422" on="0"/>
        <pt x="-22" y="432" on="1"/>
        <pt x="-22" y="440" on="0"/>
        <pt x="-10" y="454" on="0"/>
        <pt x="0" y="454" on="1"/>
        <pt x="10" y="454" on="0"/>
        <pt x="22" y="440" on="0"/>
      </contour>
      <contour>
        <pt x="22" y="328" on="1"/>
        <pt x="22" y="320" on="0"/>
        <pt x="10" y="308" on="0"/>
        <pt x="0" y="308" on="1"/>
        <pt x="-10" y="308" on="0"/>
        <pt x="-22" y="320" on="0"/>
        <pt x="-22" y="328" on="1"/>
        <pt x="-22" y="338" on="0"/>
        <pt x="-10" y="351" on="0"/>
        <pt x="0" y="351" on="1"/>
        <pt x="10" y="351" on="0"/>
        <pt x="22" y="338" on="0"/>
      </contour>
      <contour>
        <pt x="22" y="226" on="1"/>
        <pt x="22" y="218" on="0"/>
        <pt x="10" y="204" on="0"/>
        <pt x="0" y="204" on="1"/>
        <pt x="-10" y="204" on="0"/>
        <pt x="-22" y="218" on="0"/>
        <pt x="-22" y="226" on="1"/>
        <pt x="-22" y="236" on="0"/>
        <pt x="-10" y="249" on="0"/>
        <pt x="0" y="249" on="1"/>
        <pt x="10" y="249" on="0"/>
        <pt x="22" y="236" on="0"/>
      </contour>
      <contour>
        <pt x="22" y="124" on="1"/>
        <pt x="22" y="114" on="0"/>
        <pt x="10" y="102" on="0"/>
        <pt x="0" y="102" on="1"/>
        <pt x="-10" y="102" on="0"/>
        <pt x="-22" y="114" on="0"/>
        <pt x="-22" y="124" on="1"/>
        <pt x="-22" y="133" on="0"/>
        <pt x="-10" y="146" on="0"/>
        <pt x="0" y="146" on="1"/>
        <pt x="10" y="146" on="0"/>
        <pt x="22" y="133" on="0"/>
      </contour>
      <contour>
        <pt x="22" y="22" on="1"/>
        <pt x="22" y="13" on="0"/>
        <pt x="10" y="0" on="0"/>
        <pt x="0" y="0" on="1"/>
        <pt x="-10" y="0" on="0"/>
        <pt x="-22" y="13" on="0"/>
        <pt x="-22" y="22" on="1"/>
        <pt x="-22" y="30" on="0"/>
        <pt x="-10" y="43" on="0"/>
        <pt x="0" y="43" on="1"/>
        <pt x="10" y="43" on="0"/>
        <pt x="22" y="30" on="0"/>
      </contour>
    </TTGlyph>
    <TTGlyph name="afii61664" xMin="-202" yMin="0" xMax="202" yMax="914">
      <contour>
        <pt x="190" y="680" on="1"/>
        <pt x="156" y="703" on="0"/>
        <pt x="90" y="725" on="0"/>
        <pt x="53" y="728" on="1"/>
        <pt x="154" y="628" on="1"/>
        <pt x="133" y="606" on="1"/>
        <pt x="7" y="730" on="1"/>
        <pt x="-8" y="730" on="1"/>
        <pt x="-132" y="607" on="1"/>
        <pt x="-154" y="630" on="1"/>
        <pt x="-54" y="728" on="1"/>
        <pt x="-91" y="725" on="0"/>
        <pt x="-156" y="704" on="0"/>
        <pt x="-190" y="680" on="1"/>
        <pt x="-202" y="696" on="1"/>
        <pt x="-164" y="730" on="0"/>
        <pt x="-88" y="772" on="0"/>
        <pt x="-40" y="779" on="1"/>
        <pt x="-152" y="891" on="1"/>
        <pt x="-130" y="912" on="1"/>
        <pt x="0" y="782" on="1"/>
        <pt x="132" y="914" on="1"/>
        <pt x="152" y="892" on="1"/>
        <pt x="39" y="779" on="1"/>
        <pt x="86" y="772" on="0"/>
        <pt x="163" y="730" on="0"/>
        <pt x="202" y="696" on="1"/>
      </contour>
      <contour>
        <pt x="22" y="636" on="1"/>
        <pt x="22" y="628" on="0"/>
        <pt x="10" y="614" on="0"/>
        <pt x="0" y="614" on="1"/>
        <pt x="-10" y="614" on="0"/>
        <pt x="-22" y="628" on="0"/>
        <pt x="-22" y="636" on="1"/>
        <pt x="-22" y="646" on="0"/>
        <pt x="-10" y="659" on="0"/>
        <pt x="0" y="659" on="1"/>
        <pt x="10" y="659" on="0"/>
        <pt x="22" y="646" on="0"/>
      </contour>
      <contour>
        <pt x="22" y="534" on="1"/>
        <pt x="22" y="524" on="0"/>
        <pt x="10" y="512" on="0"/>
        <pt x="0" y="512" on="1"/>
        <pt x="-10" y="512" on="0"/>
        <pt x="-22" y="524" on="0"/>
        <pt x="-22" y="534" on="1"/>
        <pt x="-22" y="543" on="0"/>
        <pt x="-10" y="555" on="0"/>
        <pt x="0" y="555" on="1"/>
        <pt x="10" y="555" on="0"/>
        <pt x="22" y="543" on="0"/>
      </contour>
      <contour>
        <pt x="22" y="432" on="1"/>
        <pt x="22" y="422" on="0"/>
        <pt x="10" y="410" on="0"/>
        <pt x="0" y="410" on="1"/>
        <pt x="-10" y="410" on="0"/>
        <pt x="-22" y="422" on="0"/>
        <pt x="-22" y="432" on="1"/>
        <pt x="-22" y="440" on="0"/>
        <pt x="-10" y="454" on="0"/>
        <pt x="0" y="454" on="1"/>
        <pt x="10" y="454" on="0"/>
        <pt x="22" y="440" on="0"/>
      </contour>
      <contour>
        <pt x="22" y="328" on="1"/>
        <pt x="22" y="320" on="0"/>
        <pt x="10" y="308" on="0"/>
        <pt x="0" y="308" on="1"/>
        <pt x="-10" y="308" on="0"/>
        <pt x="-22" y="320" on="0"/>
        <pt x="-22" y="328" on="1"/>
        <pt x="-22" y="338" on="0"/>
        <pt x="-10" y="351" on="0"/>
        <pt x="0" y="351" on="1"/>
        <pt x="10" y="351" on="0"/>
        <pt x="22" y="338" on="0"/>
      </contour>
      <contour>
        <pt x="22" y="226" on="1"/>
        <pt x="22" y="218" on="0"/>
        <pt x="10" y="204" on="0"/>
        <pt x="0" y="204" on="1"/>
        <pt x="-10" y="204" on="0"/>
        <pt x="-22" y="218" on="0"/>
        <pt x="-22" y="226" on="1"/>
        <pt x="-22" y="236" on="0"/>
        <pt x="-10" y="249" on="0"/>
        <pt x="0" y="249" on="1"/>
        <pt x="10" y="249" on="0"/>
        <pt x="22" y="236" on="0"/>
      </contour>
      <contour>
        <pt x="22" y="124" on="1"/>
        <pt x="22" y="114" on="0"/>
        <pt x="10" y="102" on="0"/>
        <pt x="0" y="102" on="1"/>
        <pt x="-10" y="102" on="0"/>
        <pt x="-22" y="114" on="0"/>
        <pt x="-22" y="124" on="1"/>
        <pt x="-22" y="133" on="0"/>
        <pt x="-10" y="146" on="0"/>
        <pt x="0" y="146" on="1"/>
        <pt x="10" y="146" on="0"/>
        <pt x="22" y="133" on="0"/>
      </contour>
      <contour>
        <pt x="22" y="22" on="1"/>
        <pt x="22" y="13" on="0"/>
        <pt x="10" y="0" on="0"/>
        <pt x="0" y="0" on="1"/>
        <pt x="-10" y="0" on="0"/>
        <pt x="-22" y="13" on="0"/>
        <pt x="-22" y="22" on="1"/>
        <pt x="-22" y="30" on="0"/>
        <pt x="-10" y="43" on="0"/>
        <pt x="0" y="43" on="1"/>
        <pt x="10" y="43" on="0"/>
        <pt x="22" y="30" on="0"/>
      </contour>
    </TTGlyph>
    <TTGlyph name="agrave" xMin="70" yMin="-14" xMax="575" yMax="642">
      <component glyphName="a" x="0" y="0" flags="0x1004"/>
      <component glyphName="grave" x="0" y="0" flags="0x1004"/>
    </TTGlyph>
    <TTGlyph name="ain" xMin="26" yMin="-361" xMax="624" yMax="367">
      <contour>
        <pt x="141" y="89" on="1"/>
        <pt x="101" y="115" on="0"/>
        <pt x="80" y="135" on="1"/>
        <pt x="43" y="168" on="0"/>
        <pt x="33" y="204" on="1"/>
        <pt x="15" y="263" on="0"/>
        <pt x="45" y="317" on="1"/>
        <pt x="71" y="367" on="0"/>
        <pt x="112" y="367" on="1"/>
        <pt x="149" y="367" on="0"/>
        <pt x="228" y="323" on="0"/>
        <pt x="274" y="274" on="1"/>
        <pt x="274" y="265" on="1"/>
        <pt x="274" y="265" on="0"/>
        <pt x="237" y="275" on="1"/>
        <pt x="199" y="284" on="0"/>
        <pt x="184" y="284" on="1"/>
        <pt x="143" y="284" on="0"/>
        <pt x="108" y="262" on="1"/>
        <pt x="82" y="243" on="0"/>
        <pt x="69" y="220" on="1"/>
        <pt x="98" y="199" on="0"/>
        <pt x="139" y="180" on="1"/>
        <pt x="190" y="158" on="0"/>
        <pt x="220" y="158" on="1"/>
        <pt x="232" y="158" on="0"/>
        <pt x="239" y="162" on="1"/>
        <pt x="379" y="220" on="1"/>
        <pt x="380" y="105" on="1"/>
        <pt x="379" y="105" on="0"/>
        <pt x="353" y="95" on="1"/>
        <pt x="319" y="82" on="0"/>
        <pt x="293" y="70" on="1"/>
        <pt x="255" y="52" on="0"/>
        <pt x="232" y="37" on="1"/>
        <pt x="200" y="16" on="0"/>
        <pt x="178" y="-22" on="1"/>
        <pt x="151" y="-67" on="0"/>
        <pt x="161" y="-101" on="1"/>
        <pt x="176" y="-150" on="0"/>
        <pt x="274" y="-199" on="1"/>
        <pt x="374" y="-250" on="0"/>
        <pt x="468" y="-250" on="1"/>
        <pt x="623" y="-250" on="1"/>
        <pt x="579" y="-302" on="0"/>
        <pt x="548" y="-331" on="1"/>
        <pt x="513" y="-361" on="0"/>
        <pt x="492" y="-361" on="1"/>
        <pt x="425" y="-361" on="0"/>
        <pt x="351" y="-333" on="1"/>
        <pt x="270" y="-303" on="0"/>
        <pt x="212" y="-250" on="1"/>
        <pt x="147" y="-192" on="0"/>
        <pt x="124" y="-116" on="1"/>
        <pt x="108" y="-64" on="0"/>
        <pt x="115" y="-5" on="1"/>
        <pt x="120" y="49" on="0"/>
      </contour>
    </TTGlyph>
    <TTGlyph name="ainfinal" xMin="35" yMin="-312" xMax="648" yMax="332">
      <contour>
        <pt x="297" y="237" on="1"/>
        <pt x="277" y="246" on="0"/>
        <pt x="260" y="251" on="1"/>
        <pt x="233" y="260" on="0"/>
        <pt x="215" y="260" on="1"/>
        <pt x="193" y="260" on="0"/>
        <pt x="157" y="251" on="1"/>
        <pt x="139" y="246" on="0"/>
        <pt x="122" y="242" on="1"/>
        <pt x="161" y="231" on="0"/>
        <pt x="171" y="228" on="1"/>
        <pt x="201" y="218" on="0"/>
        <pt x="223" y="208" on="1"/>
        <pt x="241" y="218" on="0"/>
        <pt x="279" y="233" on="0"/>
      </contour>
      <contour>
        <pt x="154" y="141" on="1"/>
        <pt x="125" y="155" on="0"/>
        <pt x="61" y="172" on="0"/>
        <pt x="39" y="172" on="1"/>
        <pt x="36" y="183" on="1"/>
        <pt x="38" y="200" on="0"/>
        <pt x="41" y="235" on="1"/>
        <pt x="46" y="278" on="0"/>
        <pt x="50" y="287" on="1"/>
        <pt x="73" y="305" on="0"/>
        <pt x="100" y="316" on="1"/>
        <pt x="143" y="332" on="0"/>
        <pt x="197" y="332" on="1"/>
        <pt x="239" y="332" on="0"/>
        <pt x="303" y="312" on="1"/>
        <pt x="368" y="292" on="0"/>
        <pt x="378" y="276" on="1"/>
        <pt x="379" y="275" on="0"/>
        <pt x="381" y="270" on="1"/>
        <pt x="387" y="249" on="0"/>
        <pt x="382" y="175" on="0"/>
        <pt x="375" y="170" on="1"/>
        <pt x="367" y="166" on="0"/>
        <pt x="362" y="164" on="1"/>
        <pt x="345" y="157" on="0"/>
        <pt x="332" y="150" on="1"/>
        <pt x="364" y="132" on="0"/>
        <pt x="388" y="124" on="1"/>
        <pt x="421" y="113" on="0"/>
        <pt x="457" y="113" on="1"/>
        <pt x="614" y="113" on="1"/>
        <pt x="648" y="0" on="1"/>
        <pt x="475" y="0" on="1"/>
        <pt x="424" y="0" on="0"/>
        <pt x="346" y="35" on="1"/>
        <pt x="284" y="64" on="0"/>
        <pt x="240" y="95" on="1"/>
        <pt x="207" y="72" on="0"/>
        <pt x="181" y="39" on="1"/>
        <pt x="139" y="-11" on="0"/>
        <pt x="151" y="-50" on="1"/>
        <pt x="171" y="-115" on="0"/>
        <pt x="263" y="-159" on="1"/>
        <pt x="350" y="-200" on="0"/>
        <pt x="450" y="-200" on="1"/>
        <pt x="606" y="-200" on="1"/>
        <pt x="562" y="-252" on="0"/>
        <pt x="530" y="-280" on="1"/>
        <pt x="496" y="-312" on="0"/>
        <pt x="475" y="-312" on="1"/>
        <pt x="368" y="-312" on="0"/>
        <pt x="265" y="-254" on="1"/>
        <pt x="150" y="-188" on="0"/>
        <pt x="116" y="-77" on="1"/>
        <pt x="99" y="-19" on="0"/>
        <pt x="118" y="92" on="0"/>
      </contour>
    </TTGlyph>
    <TTGlyph name="aininitial" xMin="-44" yMin="0" xMax="437" yMax="387">
      <contour>
        <pt x="137" y="129" on="1"/>
        <pt x="119" y="146" on="0"/>
        <pt x="106" y="161" on="1"/>
        <pt x="79" y="192" on="0"/>
        <pt x="70" y="222" on="1"/>
        <pt x="51" y="286" on="0"/>
        <pt x="73" y="337" on="1"/>
        <pt x="93" y="387" on="0"/>
        <pt x="133" y="387" on="1"/>
        <pt x="190" y="387" on="0"/>
        <pt x="249" y="345" on="1"/>
        <pt x="285" y="320" on="0"/>
        <pt x="319" y="282" on="1"/>
        <pt x="324" y="266" on="1"/>
        <pt x="290" y="279" on="0"/>
        <pt x="237" y="287" on="0"/>
        <pt x="194" y="287" on="1"/>
        <pt x="176" y="287" on="0"/>
        <pt x="123" y="251" on="0"/>
        <pt x="107" y="232" on="1"/>
        <pt x="149" y="197" on="0"/>
        <pt x="195" y="179" on="1"/>
        <pt x="234" y="163" on="0"/>
        <pt x="269" y="163" on="1"/>
        <pt x="305" y="163" on="0"/>
        <pt x="376" y="187" on="1"/>
        <pt x="406" y="197" on="0"/>
        <pt x="436" y="208" on="1"/>
        <pt x="433" y="171" on="0"/>
        <pt x="430" y="152" on="1"/>
        <pt x="421" y="97" on="0"/>
        <pt x="415" y="92" on="1"/>
        <pt x="341" y="61" on="1"/>
        <pt x="315" y="51" on="0"/>
        <pt x="275" y="38" on="1"/>
        <pt x="227" y="23" on="0"/>
        <pt x="179" y="13" on="1"/>
        <pt x="121" y="0" on="0"/>
        <pt x="80" y="0" on="1"/>
        <pt x="-10" y="0" on="1"/>
        <pt x="-44" y="113" on="1"/>
        <pt x="37" y="113" on="1"/>
        <pt x="70" y="113" on="0"/>
        <pt x="118" y="122" on="0"/>
      </contour>
    </TTGlyph>
</ttFont>
